<svg width="25" height="24" viewBox="0 0 25 24" fill="none" xmlns="http://www.w3.org/2000/svg">
<g clip-path="url(#clip0_407_786)">
<circle cx="12.1323" cy="12" r="12" fill="#09DA47"/>
<path d="M17.7333 6.326C16.9998 5.58568 16.1263 4.99875 15.1636 4.59941C14.201 4.20007 13.1685 3.99631 12.1263 4C7.75932 4 4.20032 7.558 4.19632 11.926C4.19632 13.325 4.56232 14.686 5.25332 15.891L4.13232 20L8.33632 18.898C9.49933 19.5309 10.8023 19.8627 12.1263 19.863H12.1303C16.4983 19.863 20.0563 16.305 20.0603 11.933C20.0613 10.891 19.8561 9.85919 19.4566 8.89688C19.057 7.93457 18.471 7.06083 17.7323 6.326H17.7333ZM12.1263 18.521C10.9453 18.5214 9.78603 18.2036 8.77032 17.601L8.53032 17.457L6.03632 18.111L6.70232 15.678L6.54632 15.427C5.88613 14.3773 5.53697 13.162 5.53932 11.922C5.53932 8.296 8.49632 5.338 12.1303 5.338C12.9961 5.33645 13.8535 5.50628 14.6533 5.8377C15.4531 6.16911 16.1794 6.65556 16.7903 7.269C17.4034 7.88005 17.8893 8.60643 18.2202 9.40623C18.5512 10.206 18.7204 11.0634 18.7183 11.929C18.7143 15.568 15.7573 18.521 12.1263 18.521ZM15.7413 13.587C15.5443 13.488 14.5713 13.009 14.3883 12.941C14.2063 12.876 14.0733 12.842 13.9433 13.04C13.8103 13.237 13.4303 13.686 13.3163 13.815C13.2023 13.948 13.0843 13.963 12.8863 13.865C12.6893 13.765 12.0503 13.557 11.2943 12.88C10.7043 12.355 10.3093 11.705 10.1913 11.508C10.0773 11.31 10.1803 11.204 10.2793 11.105C10.3663 11.017 10.4763 10.873 10.5753 10.759C10.6753 10.645 10.7083 10.561 10.7733 10.429C10.8383 10.295 10.8073 10.181 10.7583 10.082C10.7083 9.983 10.3133 9.006 10.1463 8.612C9.98632 8.223 9.82332 8.277 9.70132 8.272C9.58732 8.265 9.45432 8.265 9.32132 8.265C9.22089 8.2675 9.12205 8.29073 9.03102 8.33323C8.93999 8.37574 8.85872 8.4366 8.79232 8.512C8.61032 8.71 8.10132 9.189 8.10132 10.166C8.10132 11.143 8.81132 12.082 8.91132 12.215C9.00932 12.348 10.3053 14.347 12.2943 15.207C12.7643 15.412 13.1343 15.533 13.4233 15.625C13.8983 15.777 14.3273 15.754 14.6693 15.705C15.0493 15.647 15.8403 15.225 16.0073 14.762C16.1713 14.298 16.1713 13.902 16.1213 13.819C16.0723 13.735 15.9393 13.686 15.7413 13.587Z" fill="white"/>
</g>
<defs>
<clipPath id="clip0_407_786">
<rect width="24" height="24" fill="white" transform="translate(0.132324)"/>
</clipPath>
</defs>
</svg>
