<svg width="341" height="341" viewBox="0 0 341 341" fill="none" xmlns="http://www.w3.org/2000/svg">
<path d="M221.189 170.039C221.159 198.276 198.276 221.159 170.039 221.189C141.802 221.159 118.919 198.276 118.889 170.039C118.919 141.802 141.802 118.919 170.039 118.889C198.276 118.919 221.159 141.802 221.189 170.039ZM170.039 0C76.2838 0 0 76.2838 0 170.039C0 263.794 76.2838 340.078 170.039 340.078C204.387 340.078 237.513 329.855 265.824 310.502L266.313 310.162L243.4 283.53L243.018 283.785C221.257 297.794 195.92 305.236 170.039 305.22C95.4982 305.22 34.858 244.58 34.858 170.039C34.858 95.4982 95.4982 34.858 170.039 34.858C244.58 34.858 305.22 95.4982 305.22 170.039C305.22 179.699 304.147 189.477 302.032 199.095C297.76 216.64 285.474 222.018 276.25 221.306C266.972 220.551 256.121 213.941 256.047 197.766V170.039C256.047 122.609 217.469 84.0312 170.039 84.0312C122.609 84.0312 84.0312 122.609 84.0312 170.039C84.0312 217.469 122.609 256.047 170.039 256.047C192.935 256.101 214.892 246.953 230.977 230.658C240.342 245.344 256.084 254.754 273.455 256.047C287.447 257.137 301.353 253.062 312.543 244.591C322.734 236.854 330.343 225.663 334.552 212.219C335.221 210.051 336.454 205.078 336.465 205.046L336.497 204.865C338.973 194.078 340.078 183.323 340.078 170.039C340.078 76.2838 263.794 0 170.039 0Z" fill="#FF9E00"/>
</svg>
