<svg width="30" height="31" viewBox="0 0 30 31" fill="none" xmlns="http://www.w3.org/2000/svg">
<path d="M26.62 15.4348C26.62 16.9048 24.4 17.9148 23.88 19.1848C23.36 20.4548 24.16 22.7848 23.17 23.7848C22.18 24.7848 19.9 23.9548 18.57 24.4948C17.24 25.0348 16.28 27.2348 14.82 27.2348C13.36 27.2348 12.34 25.0148 11.07 24.4948C9.80002 23.9748 7.47002 24.7748 6.47002 23.7848C5.47002 22.7948 6.30002 20.5148 5.76002 19.1848C5.22002 17.8548 3.02002 16.8948 3.02002 15.4348C3.02002 13.9748 5.24002 12.9548 5.76002 11.6848C6.28002 10.4148 5.48002 8.08477 6.47002 7.08477C7.46002 6.08477 9.74002 6.91477 11.07 6.37477C12.4 5.83477 13.36 3.63477 14.82 3.63477C16.28 3.63477 17.3 5.85477 18.57 6.37477C19.84 6.89477 22.17 6.09477 23.17 7.08477C24.17 8.07477 23.34 10.3548 23.88 11.6848C24.42 13.0148 26.62 13.9748 26.62 15.4348Z" stroke="#3B3B3B" stroke-width="1.5" stroke-miterlimit="10"/>
<path d="M11.52 14.225C12.249 14.225 12.84 13.634 12.84 12.905C12.84 12.1759 12.249 11.585 11.52 11.585C10.7909 11.585 10.2 12.1759 10.2 12.905C10.2 13.634 10.7909 14.225 11.52 14.225Z" fill="#3B3B3B"/>
<path d="M18.36 11.895L10.77 19.555" stroke="#3B3B3B" stroke-width="1.5" stroke-miterlimit="10" stroke-linecap="round"/>
<path d="M17.3701 19.9847C18.0991 19.9847 18.6901 19.3937 18.6901 18.6647C18.6901 17.9357 18.0991 17.3447 17.3701 17.3447C16.641 17.3447 16.05 17.9357 16.05 18.6647C16.05 19.3937 16.641 19.9847 17.3701 19.9847Z" fill="#3B3B3B"/>
</svg>
