<svg width="32" height="33" viewBox="0 0 32 33" fill="none" xmlns="http://www.w3.org/2000/svg">
<path d="M21.8267 22.3263L18.824 29.8334L12.8187 13.3178L29.3333 19.3235L21.8267 22.3263ZM21.8267 22.3263L29.3333 29.8334L21.8267 22.3263ZM10.0983 3.16675L11.2648 7.51635L10.0983 3.16675ZM7.01752 11.7639L2.66666 10.5973L7.01752 11.7639ZM20.2503 5.88581L17.0644 9.07182L20.2503 5.88581ZM8.5714 17.5638L5.38857 20.7498L8.5714 17.5638Z" fill="#FAA61A"/>
<path d="M21.8267 22.3263L18.824 29.8334L12.8187 13.3178L29.3333 19.3235L21.8267 22.3263ZM21.8267 22.3263L29.3333 29.8334M10.0983 3.16675L11.2648 7.51635M7.01752 11.7639L2.66666 10.5973M20.2503 5.88581L17.0644 9.07182M8.5714 17.5638L5.38857 20.7498" stroke="black" stroke-width="2" stroke-linecap="round" stroke-linejoin="round"/>
</svg>
