<svg width="25" height="24" viewBox="0 0 25 24" fill="none" xmlns="http://www.w3.org/2000/svg">
<path d="M19.4242 12.7581L11.4564 20.6482C10.5823 21.5137 9.39686 22 8.16075 22C6.92464 22 5.73916 21.5137 4.8651 20.6482C3.99104 19.7827 3.5 18.6087 3.5 17.3847C3.5 16.1606 3.99104 14.9867 4.8651 14.1211L16.1958 2.90076C16.4845 2.61509 16.8271 2.38851 17.2041 2.23396C17.5812 2.0794 17.9852 1.9999 18.3933 2C18.8014 2.0001 19.2054 2.07978 19.5824 2.23451C19.9594 2.38924 20.3019 2.61598 20.5904 2.90179C20.8789 3.18759 21.1077 3.52687 21.2637 3.90024C21.4198 4.27361 21.5001 4.67377 21.5 5.07786C21.4999 5.48196 21.4194 5.88208 21.2632 6.25538C21.1069 6.62868 20.878 6.96785 20.5893 7.25352L9.25032 18.4821C8.95616 18.7613 8.56298 18.9139 8.15552 18.9088C7.74805 18.9037 7.35892 18.7403 7.072 18.4537C6.78508 18.1672 6.62334 17.7805 6.62164 17.3769C6.61993 16.9734 6.7784 16.5854 7.06289 16.2965L15.1518 8.28632M9.25964 18.4718L9.24929 18.4821" stroke="#231F20" stroke-width="2" stroke-linecap="round" stroke-linejoin="round"/>
</svg>
