<svg width="60" height="60" viewBox="0 0 60 60" fill="none" xmlns="http://www.w3.org/2000/svg">
<path d="M44.8342 58.0003H15.2156C15.1376 57.8264 14.961 57.8849 14.83 57.8527C11.253 56.9889 9.01049 54.2105 9.00755 50.5522C8.99872 36.8487 8.99578 23.1436 9.00902 9.4386C9.01344 5.13723 12.2079 2.00658 16.5354 2.00219C20.0581 1.99927 23.5807 1.99927 27.1033 2.00219C29.7813 2.00365 32.4594 2.01242 35.1374 2.01827C35.1433 2.29158 35.1536 2.56343 35.1536 2.83674C35.1536 7.80604 35.1624 12.7753 35.1433 17.7446C35.1418 18.2752 35.3037 18.4199 35.829 18.4169C40.8863 18.3994 45.9436 18.4053 51.0025 18.4053C51.2614 18.5967 51.1525 18.8759 51.1525 19.1156C51.1584 29.5204 51.157 39.9267 51.157 50.3315C51.157 50.6048 51.1584 50.8796 51.1349 51.1515C50.87 54.1681 49.3235 56.2654 46.541 57.4844C45.9907 57.7255 45.3874 57.7723 44.8356 58.0003H44.8342ZM26.1925 38.6639C26.1925 40.2307 26.2028 41.7975 26.1851 43.3643C26.1807 43.7034 26.2808 43.7954 26.6177 43.7881C27.8096 43.7662 29.0029 43.8027 30.1933 43.7677C33.1966 43.6785 35.1403 41.7536 35.2316 38.8115C35.314 36.1076 33.8455 34.2281 31.1895 33.699C29.7034 33.4023 28.1892 33.604 26.6913 33.5368C26.2528 33.5178 26.1807 33.6858 26.1851 34.0717C26.2043 35.6019 26.194 37.1322 26.194 38.6624L26.1925 38.6639ZM19.7873 33.6025C19.7873 33.5835 19.7873 33.566 19.7873 33.547C19.0545 33.547 18.3203 33.5631 17.5875 33.5397C17.2461 33.5295 17.152 33.642 17.1564 33.9738C17.174 35.2482 17.1637 36.5227 17.1637 37.7972C17.1637 39.6358 17.1755 41.4759 17.1549 43.3146C17.1505 43.7063 17.2726 43.8086 17.6478 43.7881C18.2144 43.7574 18.7853 43.7531 19.3518 43.7881C19.7388 43.813 19.8079 43.6566 19.802 43.3204C19.7844 42.4099 19.8109 41.4993 19.7888 40.5888C19.78 40.2175 19.8785 40.0728 20.2758 40.0875C20.8983 40.1094 21.5236 40.105 22.1446 40.0553C23.8897 39.9179 25.0919 38.6054 25.1095 36.856C25.1257 35.1036 23.9486 33.7545 22.2064 33.6113C21.4059 33.5455 20.5951 33.5996 19.7903 33.5996L19.7873 33.6025ZM36.5603 38.6566C36.5603 40.2234 36.5691 41.7902 36.5529 43.357C36.55 43.6814 36.6206 43.8086 36.9737 43.7896C37.5402 43.7589 38.1112 43.756 38.6777 43.7896C39.0779 43.813 39.2192 43.715 39.2059 43.2868C39.1721 42.2126 39.2118 41.1369 39.1853 40.0626C39.1765 39.6914 39.303 39.6095 39.6503 39.6168C40.6214 39.6388 41.5941 39.6168 42.5652 39.63C42.8448 39.6344 42.9581 39.5598 42.9463 39.2646C42.9242 38.7735 42.9257 38.281 42.9463 37.7899C42.9581 37.4976 42.8477 37.4128 42.5667 37.4187C41.8516 37.4333 41.1364 37.423 40.4213 37.423C39.1368 37.423 39.1456 37.423 39.1868 36.1544C39.1956 35.8738 39.2662 35.7759 39.5591 35.7817C40.4022 35.7993 41.2468 35.8022 42.0899 35.7817C42.6697 35.7686 43.4643 36.0404 43.7688 35.6677C44.0602 35.3126 43.838 34.554 43.8719 33.9752C43.891 33.6391 43.7777 33.5368 43.4392 33.5397C41.2939 33.5528 39.1485 33.5558 37.0017 33.5397C36.625 33.5368 36.547 33.6683 36.5514 34.0118C36.5676 35.5596 36.5588 37.1088 36.5588 38.6566H36.5603Z" fill="#E4252A"/>
<path d="M35.1375 2.01794C35.5024 2.20941 35.729 2.54849 36.0027 2.83203C40.9364 7.93579 45.8643 13.0454 50.7921 18.155C50.8672 18.2325 50.9319 18.3216 51.0011 18.4049C45.9437 18.4049 40.8864 18.3991 35.8276 18.4166C35.3023 18.4181 35.1404 18.2749 35.1419 17.7443C35.161 12.775 35.1536 7.80571 35.1522 2.83642C35.1522 2.56311 35.1419 2.29126 35.136 2.01794H35.1375Z" fill="#EC676A"/>
<path d="M26.1926 38.6636C26.1926 37.1333 26.2044 35.603 26.1838 34.0728C26.1794 33.6869 26.2515 33.5189 26.69 33.5379C28.1894 33.6051 29.702 33.4034 31.1881 33.7001C33.8441 34.2292 35.3126 36.1087 35.2302 38.8126C35.1404 41.7533 33.1967 43.6796 30.192 43.7688C29.0016 43.8039 27.8082 43.7658 26.6164 43.7892C26.2794 43.7951 26.1808 43.703 26.1838 43.3654C26.2014 41.7986 26.1911 40.2318 26.1911 38.665L26.1926 38.6636ZM28.7603 38.6387C28.7603 39.2043 28.7603 39.7685 28.7603 40.3341C28.7603 41.2393 29.2169 41.6315 30.1302 41.5107C31.7341 41.2987 32.5654 40.3692 32.5963 38.7542C32.6287 37.0953 31.8312 36.0868 30.2508 35.8325C29.8918 35.7741 29.5181 35.815 29.1531 35.7828C28.8412 35.7565 28.7456 35.8676 28.7529 36.1774C28.7735 36.9974 28.7603 37.8173 28.7603 38.6387Z" fill="#FEFDFD"/>
<path d="M19.7876 33.6023C20.5939 33.6023 21.4047 33.5468 22.2037 33.614C23.9459 33.7587 25.123 35.1077 25.1068 36.8587C25.0906 38.6081 23.887 39.9206 22.1419 40.058C21.5224 40.1062 20.8956 40.1121 20.2731 40.0902C19.8759 40.0755 19.7758 40.2202 19.7861 40.5915C19.8082 41.502 19.7817 42.4126 19.7993 43.3231C19.8067 43.6607 19.7361 43.8157 19.3491 43.7908C18.7826 43.7557 18.2117 43.7587 17.6451 43.7908C17.2699 43.8113 17.1478 43.709 17.1522 43.3173C17.1728 41.4786 17.161 39.6385 17.161 37.7999C17.161 36.5254 17.1713 35.2509 17.1537 33.9765C17.1493 33.6447 17.2434 33.5321 17.5848 33.5424C18.3176 33.5658 19.0518 33.5497 19.7846 33.5497C19.7846 33.5687 19.7846 33.5862 19.7846 33.6052L19.7876 33.6023ZM19.7964 36.8543C19.7964 37.1086 19.7964 37.3644 19.7964 37.6187C19.7964 37.7575 19.8185 37.8759 19.998 37.8715C20.5645 37.8554 21.1369 37.9446 21.696 37.8189C22.2199 37.7005 22.4994 37.3 22.4788 36.7797C22.4582 36.2726 22.1257 35.8926 21.6033 35.8136C21.3694 35.7786 21.128 35.7903 20.8897 35.7903C20.1598 35.7883 19.7959 36.1435 19.7979 36.8557L19.7964 36.8543Z" fill="#FEFDFD"/>
<path d="M36.5602 38.6564C36.5602 37.1086 36.569 35.5593 36.5528 34.0116C36.5499 33.6681 36.6264 33.5366 37.0031 33.5395C39.1484 33.557 41.2938 33.5541 43.4406 33.5395C43.7805 33.538 43.8938 33.6389 43.8732 33.975C43.8394 34.5553 44.0616 35.3138 43.7702 35.6675C43.4642 36.0402 42.6711 35.7684 42.0913 35.7815C41.2482 35.802 40.4036 35.7976 39.5604 35.7815C39.2676 35.7757 39.197 35.8736 39.1882 36.1542C39.147 37.4228 39.1381 37.4228 40.4227 37.4228C41.1378 37.4228 41.8529 37.4331 42.5681 37.4185C42.8506 37.4126 42.9595 37.4974 42.9477 37.7897C42.9271 38.2808 42.9271 38.7733 42.9477 39.2644C42.9609 39.5596 42.8462 39.6342 42.5666 39.6298C41.5954 39.6166 40.6228 39.6386 39.6517 39.6166C39.3044 39.6093 39.1779 39.6912 39.1867 40.0624C39.2117 41.1367 39.1734 42.2124 39.2073 43.2866C39.2205 43.7148 39.0793 43.8128 38.679 43.7894C38.1125 43.7558 37.5416 43.7587 36.9751 43.7894C36.622 43.8084 36.5513 43.6812 36.5543 43.3568C36.5705 41.79 36.5616 40.2232 36.5616 38.6564H36.5602Z" fill="#FEFDFD"/>
<path d="M28.7604 38.6401C28.7604 37.8202 28.7737 36.9988 28.7531 36.1789C28.7457 35.869 28.8414 35.7579 29.1533 35.7842C29.5182 35.8164 29.892 35.7755 30.251 35.8339C31.8313 36.0897 32.6288 37.0967 32.5965 38.7556C32.5656 40.3706 31.7342 41.3002 30.1303 41.5121C29.2171 41.6329 28.7604 41.2407 28.7604 40.3355C28.7604 39.7699 28.7604 39.2057 28.7604 38.6401Z" fill="#E4252A"/>
<path d="M19.7964 36.8541C19.7954 36.1428 20.1593 35.7876 20.8882 35.7886C21.1266 35.7886 21.3679 35.7769 21.6019 35.812C22.1242 35.8909 22.4568 36.2709 22.4774 36.7781C22.4994 37.2984 22.2184 37.7003 21.6946 37.8173C21.1354 37.943 20.563 37.8523 19.9965 37.8699C19.817 37.8757 19.7949 37.7559 19.7949 37.617C19.7949 37.3627 19.7949 37.1069 19.7949 36.8526L19.7964 36.8541Z" fill="#E4252A"/>
</svg>
