<svg width="24" height="24" viewBox="0 0 24 24" fill="none" xmlns="http://www.w3.org/2000/svg">
<path d="M14.0585 5.11808L16.8235 2.35306C17.0497 2.12699 17.3563 2 17.6761 2C17.9958 2 18.3025 2.12699 18.5286 2.35306L21.6469 5.47139C21.873 5.69752 22 6.00418 22 6.32393C22 6.64368 21.873 6.95033 21.6469 7.17646L18.8819 9.94148M14.0585 5.11808L2.35331 16.8233C2.12716 17.0494 2.00007 17.356 2 17.6758V20.7941C2 21.114 2.12704 21.4207 2.35319 21.6468C2.57933 21.873 2.88604 22 3.20585 22H6.32418C6.64397 21.9999 6.95063 21.8728 7.17672 21.6467L18.8819 9.94148M14.0585 5.11808L18.8819 9.94148" stroke="#D9D9D9" stroke-width="2" stroke-linecap="round" stroke-linejoin="round"/>
</svg>
