<svg width="64" height="64" viewBox="0 0 64 64" fill="none" xmlns="http://www.w3.org/2000/svg">
<g clip-path="url(#clip0_884_10206)">
<g opacity="0.25" filter="url(#filter0_f_884_10206)">
<path fill-rule="evenodd" clip-rule="evenodd" d="M31.9524 44.7283C32.143 44.728 32.3327 44.7295 32.5213 44.7328C39.2796 44.8509 44.6803 47.2576 44.7056 50.2148C44.7316 53.2582 39.0606 55.7313 32.0477 55.7425C31.0265 55.7442 30.033 55.6935 29.0805 55.5962C27.518 55.4367 26.066 55.152 24.7844 54.7678C21.4817 53.7778 19.3105 52.1271 19.2945 50.2561C19.2811 48.6869 20.7798 47.2694 23.1972 46.2627C25.4686 45.3169 28.551 44.7337 31.9524 44.7283ZM31.9264 42C21.433 42.0151 12.9569 45.7152 13.0002 50.2673C13.0164 52.3998 14.4074 54.8136 20.037 56.6441C25.6667 58.4746 28.4815 58.4746 32 60C35.5185 58.4746 38.3766 58.4746 43.6111 56.6441C48.8456 54.8136 51.0168 52.4329 50.9999 50.211C50.9566 45.659 42.4199 41.985 31.9264 42Z" fill="#231F20"/>
<path fill-rule="evenodd" clip-rule="evenodd" d="M22.4806 45.704C21.788 45.415 20.8096 45.5164 20.0131 45.0773C23.6494 44.1879 27.2858 43.3022 30.9308 42.4128C30.9135 42.6905 31.1819 42.8519 30.8702 43.246C30.6104 43.5687 30.8009 43.5237 31.2078 43.8126C31.6467 44.1194 32.0841 44.4262 32.5213 44.7328C33.1535 45.1762 33.7852 45.619 34.4199 46.0605C35.1385 46.8073 35.052 47.4978 33.71 48.0945C34.065 48.3985 34.4113 48.6987 34.7662 49.0026C34.9827 49.3592 35.1991 49.7119 35.4156 50.0684C36.342 50.0684 37.2684 50.0647 38.1948 50.0647C38.7229 50.1022 39.2597 50.1435 39.7879 50.181C39.7879 50.3311 39.7879 50.485 39.7879 50.6351C39.5801 50.6613 39.3723 50.6839 39.1558 50.7101C39.1558 50.8903 39.1558 51.0704 39.1645 51.2505C39.355 51.2505 39.5541 51.2505 39.7446 51.2505C39.7446 51.4156 39.7446 51.5808 39.7446 51.7459H39.7438C39.2852 51.7459 38.8352 51.7459 38.3766 51.7496C38.0649 51.9861 36.6797 51.896 35.8831 51.9335C35.4243 51.7647 35.2511 51.7459 34.9567 51.5958C34.4113 51.5958 33.8658 51.5958 33.3117 51.5995C33.3165 51.6367 33.3213 51.6738 33.3261 51.7109C33.4166 52.4097 33.5074 53.1115 33.6061 53.8099C33.8658 53.9525 34.4459 53.915 34.3853 54.2415C34.342 54.4479 33.7879 54.5529 33.2944 54.5192C31.5888 54.4554 31.5801 52.4927 30.7143 51.4832C30.1716 52.8554 29.6289 54.2248 29.0805 55.5962C28.999 55.8001 28.9173 56.0039 28.8356 56.2079C29.2165 56.3655 29.5975 56.5231 29.9784 56.6807C30.671 56.9096 30.065 57.2662 29.3464 57.1949C27.8139 57.0335 26.2728 56.8721 24.7403 56.707C23.9611 56.5794 24.117 56.2079 24.3248 55.8401C24.4784 55.4827 24.6316 55.1253 24.7844 54.7678C25.243 53.6955 25.6992 52.6231 26.1602 51.5507C25.8745 51.5507 25.5802 51.5507 25.2945 51.5507C25.1732 51.7459 25.1646 51.8022 24.8616 51.8022C24.3507 51.8059 23.8399 51.8059 23.3204 51.8097C23.1126 51.8097 22.8789 51.836 22.8789 51.5733C22.6798 51.5733 22.6451 51.5733 22.4546 51.5733C22.143 51.8209 21.8053 51.7459 21.3811 51.4945C21.2858 51.3819 21.2339 51.1642 21.2166 50.9991C21.1992 50.849 21.2079 50.6276 21.2772 50.545C21.7014 50.3686 22.2815 50.3536 22.6018 50.6013C22.6538 50.5563 22.6971 50.5112 22.749 50.4625C22.9135 50.3048 23.1213 50.3424 23.3031 50.3424C23.8572 50.3424 24.4113 50.3424 24.9655 50.3386C25.2401 50.3386 25.268 50.4234 25.3359 50.6295C25.3365 50.6314 25.3371 50.6332 25.3377 50.6351C25.8572 50.6276 26.368 50.6201 26.8875 50.6126C26.8702 50.4549 26.8529 50.2973 26.8356 50.1397C26.368 49.7682 26.2728 49.4342 26.749 49.2578C27.1559 49.1077 27.5888 48.9764 28.0044 48.8375C27.1386 48.7512 26.3074 48.5898 25.5802 48.1283C24.7935 47.507 23.9965 46.8857 23.1972 46.2627C22.9585 46.0766 22.7196 45.8904 22.4806 45.704ZM30.7057 49.8583L31.3464 49.8958L31.5628 49.5806L30.5845 48.9726L29.0693 48.9388L30.7057 49.8583Z" fill="#231F20"/>
<path fill-rule="evenodd" clip-rule="evenodd" d="M24.8529 55.9602C25.4416 54.4816 26.0217 53.003 26.6105 51.5282C27.8053 51.5245 29.0001 51.5245 30.1949 51.5245C29.5715 53.0068 28.9481 54.4891 28.3247 55.9715C28.1689 56.313 28.4373 56.647 29.5368 56.9622C28.1169 56.8083 26.697 56.6545 25.2771 56.4968C24.9048 56.388 24.7663 56.2079 24.8529 55.9602Z" fill="#231F20"/>
<path fill-rule="evenodd" clip-rule="evenodd" d="M30.4979 43.8576C31.6321 44.6645 32.7663 45.4713 33.9005 46.2782C34.2987 46.8598 34.0996 47.4002 33.3637 47.8956C32.3593 48.1545 31.3464 48.4172 30.342 48.6762C28.7576 48.7324 27.3724 48.5448 26.2468 48.0157C25.1732 47.2389 24.0997 46.4583 23.0261 45.6815C22.7836 45.5726 22.5412 45.4976 22.3075 45.4451L30.2814 43.4561C30.2641 43.595 30.3074 43.7263 30.4979 43.8576ZM21.8659 45.3625L30.3161 43.2985C30.342 43.2272 30.3767 43.1521 30.4113 43.0771L21.5023 45.2949C21.6235 45.3175 21.7447 45.34 21.8659 45.3625ZM21.1213 45.1974L30.4719 42.9157C30.4892 42.8594 30.4979 42.7994 30.4979 42.7431C27.2944 43.5274 24.091 44.3117 20.8876 45.096C20.9482 45.1373 21.0347 45.1711 21.1213 45.1974Z" fill="#231F20"/>
<path fill-rule="evenodd" clip-rule="evenodd" d="M32.368 49.7457L30.9741 48.7625L32.9827 48.2258L34.3507 49.1753L32.368 49.7457Z" fill="#231F20"/>
<path fill-rule="evenodd" clip-rule="evenodd" d="M33.3637 50.196L32.6883 49.8508L34.4113 49.3929L34.8701 49.802L33.3637 50.196Z" fill="#231F20"/>
<path fill-rule="evenodd" clip-rule="evenodd" d="M33.7186 50.2148C34.0303 50.151 34.3507 50.0872 34.6623 50.0196C34.7662 50.1285 34.8615 50.241 34.9567 50.3536C34.8961 50.4249 34.8269 50.4962 34.7662 50.5638C34.9134 50.5675 35.0606 50.5713 35.2078 50.575C35.1905 50.8415 35.1818 51.1079 35.1732 51.3744C34.4372 51.3744 33.7013 51.3706 32.9567 51.3706C33.329 51.1867 33.658 50.9878 33.7879 50.7176C33.9524 50.6463 34.1256 50.5713 34.2901 50.5C34.1082 50.4062 33.9178 50.3086 33.7186 50.2148Z" fill="#231F20"/>
<path d="M36.1808 50.2745L35.6527 50.2753L35.6636 51.6901L36.1917 51.6893L36.1808 50.2745Z" fill="#231F20"/>
<path d="M37.1159 50.2745L36.5878 50.2753L36.5987 51.6901L37.1268 51.6893L37.1159 50.2745Z" fill="#231F20"/>
<path fill-rule="evenodd" clip-rule="evenodd" d="M37.5281 51.6858H38.0563L38.0476 50.2711H37.5108L37.5281 51.6858Z" fill="#231F20"/>
<path d="M38.7112 50.6648L38.183 50.6657L38.1896 51.3562L38.7178 51.3553L38.7112 50.6648Z" fill="#231F20"/>
<path d="M39.3456 50.4018L38.4452 50.4033L38.4469 50.5946L39.3473 50.5932L39.3456 50.4018Z" fill="#231F20"/>
<path fill-rule="evenodd" clip-rule="evenodd" d="M27.2858 50.6013L30.5065 50.5976V50.3161L27.2858 50.3198V50.6013Z" fill="#231F20"/>
<path d="M29.569 50.7178L24.9803 50.7252L24.9854 51.3331L29.5741 51.3258L29.569 50.7178Z" fill="#231F20"/>
<path fill-rule="evenodd" clip-rule="evenodd" d="M23.9784 51.5207H24.749L24.7403 50.5413H23.9698L23.9784 51.5207Z" fill="#231F20"/>
<path d="M23.5241 50.5447L22.9787 50.5456L22.9871 51.525L23.5325 51.5242L23.5241 50.5447Z" fill="#231F20"/>
<path d="M22.1299 50.616L21.5845 50.617L21.5933 51.5364L22.1388 51.5354L22.1299 50.616Z" fill="#231F20"/>
<path d="M23.7688 50.785L23.3879 50.7856L23.3916 51.2772L23.7726 51.2766L23.7688 50.785Z" fill="#231F20"/>
<path d="M30.505 50.8412L29.873 50.8419L29.8762 51.3335L30.5082 51.3328L30.505 50.8412Z" fill="#231F20"/>
<path d="M23.77 50.9452L21.9258 50.9482L21.9273 51.1208L23.7715 51.1178L23.77 50.9452Z" fill="#231F20"/>
<path d="M39.3544 51.4001L38.4539 51.4014L38.4554 51.5928L39.3559 51.5915L39.3544 51.4001Z" fill="#231F20"/>
<path fill-rule="evenodd" clip-rule="evenodd" d="M27.8918 50.2148C27.8053 50.226 27.7187 50.2373 27.6234 50.2485C27.2944 50.0984 27.0087 49.907 26.9135 49.5843C26.9308 49.2803 27.381 49.119 28.2208 49.0852C28.8788 49.0477 29.8139 49.7644 30.6018 50.1059C30.3247 50.1134 30.0477 50.1247 29.7793 50.1322C29.2858 49.862 28.8788 49.5205 28.2988 49.3216C27.7533 49.2316 27.4243 49.3216 27.3118 49.6031C27.2685 49.8282 27.5455 50.0271 27.8918 50.2148Z" fill="#231F20"/>
<path fill-rule="evenodd" clip-rule="evenodd" d="M27.6061 49.7006C27.8139 49.862 28.0217 50.0196 28.2295 50.181C28.6884 50.1697 29.1472 50.1622 29.5975 50.1547C29.2252 49.9408 28.8529 49.7269 28.4892 49.5093C27.9871 49.3667 27.6408 49.3779 27.6061 49.7006Z" fill="#231F20"/>
<path fill-rule="evenodd" clip-rule="evenodd" d="M32.1429 50.0234C32.8961 50.0234 33.5022 50.2748 33.5022 50.5825C33.5022 50.894 32.8961 51.1454 32.1515 51.1492C31.3983 51.1492 30.7922 50.8978 30.7922 50.59C30.7836 50.2786 31.3896 50.0271 32.1429 50.0234Z" fill="#231F20"/>
<path fill-rule="evenodd" clip-rule="evenodd" d="M32.4546 53.7236C31.9957 52.9843 31.6148 52.1737 31.3983 51.2243C31.8399 51.2468 32.2814 51.2655 32.723 51.2881C32.7836 53.0706 33.1126 54.0951 33.7273 54.3128C33.1472 54.294 32.6624 54.1626 32.4546 53.7236Z" fill="#231F20"/>
<path d="M44.7056 50.2148C44.6803 47.2576 39.2796 44.8509 32.5213 44.7328C33.1535 45.1762 33.7852 45.619 34.4199 46.0605C35.1385 46.8073 35.052 47.4978 33.71 48.0945C34.065 48.3985 34.4113 48.6987 34.7662 49.0026C34.9827 49.3592 35.1991 49.7119 35.4156 50.0684C36.342 50.0684 37.2684 50.0647 38.1948 50.0647C38.7229 50.1022 39.2597 50.1435 39.7879 50.181V50.6351C39.5801 50.6613 39.3723 50.6839 39.1558 50.7101C39.1558 50.8903 39.1558 51.0704 39.1645 51.2505H39.7446V51.7459H39.7438C39.2852 51.7459 38.8352 51.7459 38.3766 51.7496C38.0649 51.9861 36.6797 51.896 35.8831 51.9335C35.4243 51.7647 35.2511 51.7459 34.9567 51.5958C34.4113 51.5958 33.8658 51.5958 33.3117 51.5995L33.3261 51.7109C33.4166 52.4097 33.5074 53.1115 33.6061 53.8099C33.8658 53.9525 34.4459 53.915 34.3853 54.2415C34.342 54.4479 33.7879 54.5529 33.2944 54.5192C31.5888 54.4554 31.5801 52.4927 30.7143 51.4832C30.1716 52.8554 29.6289 54.2248 29.0805 55.5962C30.033 55.6935 31.0265 55.7442 32.0477 55.7425C39.0606 55.7313 44.7316 53.2582 44.7056 50.2148Z" fill="#231F20"/>
<path d="M23.1972 46.2627C20.7798 47.2694 19.2811 48.6869 19.2945 50.2561C19.3105 52.1271 21.4817 53.7778 24.7844 54.7678C25.243 53.6955 25.6992 52.6231 26.1602 51.5507H25.2945C25.1732 51.7459 25.1646 51.8022 24.8616 51.8022C24.3507 51.8059 23.8399 51.8059 23.3204 51.8097C23.1126 51.8097 22.8789 51.836 22.8789 51.5733H22.4546C22.143 51.8209 21.8053 51.7459 21.3811 51.4945C21.2858 51.3819 21.2339 51.1642 21.2166 50.9991C21.1992 50.849 21.2079 50.6276 21.2772 50.545C21.7014 50.3686 22.2815 50.3536 22.6018 50.6013C22.6538 50.5563 22.6971 50.5112 22.749 50.4625C22.9135 50.3048 23.1213 50.3424 23.3031 50.3424C23.8572 50.3424 24.4113 50.3424 24.9655 50.3386C25.2401 50.3386 25.268 50.4234 25.3359 50.6295L25.3377 50.6351C25.8572 50.6276 26.368 50.6201 26.8875 50.6126L26.8356 50.1397C26.368 49.7682 26.2728 49.4342 26.749 49.2578C27.1559 49.1077 27.5888 48.9764 28.0044 48.8375C27.1386 48.7512 26.3074 48.5898 25.5802 48.1283C24.7935 47.507 23.9965 46.8857 23.1972 46.2627Z" fill="#231F20"/>
<path d="M30.7057 49.8583L31.3464 49.8958L31.5628 49.5806L30.5845 48.9726L29.0693 48.9388L30.7057 49.8583Z" fill="#231F20"/>
</g>
<path fill-rule="evenodd" clip-rule="evenodd" d="M31.9399 10.0333C32.1807 10.0324 32.4202 10.0368 32.6584 10.0465C41.1953 10.3943 48.0172 17.4806 48.0491 26.1879C48.082 35.1492 40.9186 42.4309 32.0602 42.4641C30.7704 42.4689 29.5153 42.3196 28.3122 42.0333C26.3385 41.5636 24.5044 40.7253 22.8856 39.5941C18.7137 36.679 15.9711 31.8187 15.9509 26.3094C15.934 21.6892 17.8271 17.5154 20.8807 14.5513C23.7498 11.7663 27.6434 10.0493 31.9399 10.0333ZM31.9071 2.00013C18.6522 2.04433 7.94553 12.9393 8.00021 26.3426C8.02072 32.6214 9.77778 39.7287 16.8889 45.1186C24 50.5084 27.5556 50.5084 32 54.9999C36.4444 50.5084 40.0547 50.5084 46.6667 45.1186C53.2787 39.7287 56.0212 32.7191 55.9999 26.1768C55.9452 12.7736 45.1619 1.95594 31.9071 2.00013Z" fill="#231F20"/>
<path fill-rule="evenodd" clip-rule="evenodd" d="M19.9755 12.9062C19.1006 12.0554 17.8648 12.3537 16.8587 11.0609C21.4519 8.4421 26.0452 5.83438 30.6494 3.2156C30.6275 4.03328 30.9666 4.50841 30.5728 5.66863C30.2448 6.6189 30.4854 6.48631 30.9994 7.33713C31.5537 8.24051 32.1062 9.14389 32.6584 10.0465C33.4571 11.352 34.255 12.6559 35.0567 13.9559C35.9645 16.1548 35.8551 18.1879 34.16 19.9448C34.6084 20.8398 35.0458 21.7238 35.4942 22.6188C35.7676 23.6686 36.041 24.7072 36.3144 25.757C37.4846 25.757 38.6548 25.7459 39.825 25.7459C40.4921 25.8564 41.1702 25.978 41.8373 26.0884C41.8373 26.5304 41.8373 26.9835 41.8373 27.4255C41.5748 27.5028 41.3123 27.5691 41.0389 27.6465C41.0389 28.1768 41.0389 28.7072 41.0499 29.2376C41.2905 29.2376 41.542 29.2376 41.7826 29.2376C41.7826 29.7238 41.7826 30.21 41.7826 30.6962H41.7816C41.2023 30.6962 40.634 30.6962 40.0547 30.7072C39.661 31.4033 37.9111 31.1382 36.905 31.2487C36.3254 30.7514 36.1066 30.6962 35.7348 30.2542C35.0458 30.2542 34.3568 30.2542 33.6569 30.2652C33.663 30.3745 33.669 30.4839 33.6751 30.5932C33.7894 32.6507 33.9041 34.7171 34.0287 36.7735C34.3568 37.1934 35.0896 37.0829 35.013 38.0442C34.9583 38.6519 34.2584 38.9613 33.635 38.8619C31.4806 38.674 31.4696 32.8951 30.376 29.9227C29.6905 33.9631 29.0049 37.9951 28.3122 42.0333C28.2092 42.6335 28.1061 43.2338 28.0028 43.8342C28.484 44.2983 28.9652 44.7624 29.4464 45.2265C30.3213 45.9005 29.5558 46.9503 28.648 46.7403C26.7123 46.2652 24.7656 45.79 22.8299 45.3039C21.8456 44.9282 22.0425 43.8342 22.305 42.7514C22.4991 41.699 22.6925 40.6466 22.8856 39.5941C23.4649 36.4366 24.0411 33.2791 24.6235 30.1216C24.2626 30.1216 23.8907 30.1216 23.5298 30.1216C23.3767 30.6962 23.3658 30.8619 22.983 30.8619C22.3378 30.873 21.6925 30.873 21.0363 30.884C20.7739 30.884 20.4786 30.9614 20.4786 30.1879C20.2271 30.1879 20.1833 30.1879 19.9427 30.1879C19.549 30.9172 19.1225 30.6962 18.5866 29.9558C18.4663 29.6243 18.4007 28.9835 18.3788 28.4973C18.3569 28.0553 18.3679 27.4034 18.4554 27.1603C18.9912 26.6409 19.724 26.5967 20.1286 27.326C20.1942 27.1934 20.2489 27.0608 20.3145 26.9172C20.5223 26.4531 20.7848 26.5636 21.0145 26.5636C21.7144 26.5636 22.4143 26.5636 23.1143 26.5525C23.4611 26.5525 23.4964 26.8022 23.5822 27.4092C23.583 27.4146 23.5837 27.42 23.5845 27.4255C24.2407 27.4034 24.8859 27.3813 25.5421 27.3592C25.5202 26.8951 25.4984 26.431 25.4765 25.9669C24.8859 24.873 24.7656 23.8896 25.3671 23.3702C25.8811 22.9282 26.428 22.5415 26.9529 22.1327C25.8593 21.8785 24.8094 21.4034 23.8907 20.0443C22.897 18.215 21.8904 16.3856 20.8807 14.5513C20.5792 14.0034 20.2773 13.4551 19.9755 12.9062ZM30.3651 25.1382L31.1743 25.2487L31.4478 24.3205L30.2119 22.5304L28.2981 22.431L30.3651 25.1382Z" fill="#6D6E70"/>
<path fill-rule="evenodd" clip-rule="evenodd" d="M22.9721 43.105C23.7157 38.7514 24.4485 34.3978 25.1922 30.0553C26.7014 30.0442 28.2106 30.0442 29.7198 30.0442C28.9324 34.4089 28.145 38.7735 27.3576 43.1381C27.1607 44.1436 27.4997 45.1271 28.8886 46.0552C27.0951 45.6022 25.3015 45.1492 23.508 44.6851C23.0377 44.3646 22.8627 43.8342 22.9721 43.105Z" fill="#E6A52F"/>
<path fill-rule="evenodd" clip-rule="evenodd" d="M30.1026 7.46973C31.5352 9.84541 32.9679 12.2211 34.4006 14.5968C34.9036 16.3095 34.6521 17.9006 33.7225 19.3592C32.4539 20.1216 31.1743 20.8951 29.9057 21.6575C27.9044 21.8233 26.1546 21.2708 24.7328 19.7128C23.3767 17.4255 22.0206 15.1272 20.6645 12.8399C20.3583 12.5194 20.0521 12.2984 19.7568 12.1437L29.8292 6.28741C29.8073 6.69625 29.862 7.08299 30.1026 7.46973ZM19.199 11.9007L29.8729 5.82333C29.9057 5.61338 29.9495 5.39239 29.9932 5.17139L18.7397 11.7018C18.8928 11.7681 19.0459 11.8344 19.199 11.9007ZM18.2585 11.4145L30.0698 4.69626C30.0916 4.53051 30.1026 4.35372 30.1026 4.18797C26.0561 6.49736 22.0097 8.80674 17.9632 11.1161C18.0398 11.2377 18.1491 11.3371 18.2585 11.4145Z" fill="#E6A52F"/>
<path fill-rule="evenodd" clip-rule="evenodd" d="M32.4648 24.8067L30.7041 21.9117L33.2413 20.3316L34.9693 23.1271L32.4648 24.8067Z" fill="#E6A52F"/>
<path fill-rule="evenodd" clip-rule="evenodd" d="M33.7225 26.1327L32.8695 25.1161L35.0458 23.768L35.6254 24.9724L33.7225 26.1327Z" fill="#E6A52F"/>
<path fill-rule="evenodd" clip-rule="evenodd" d="M34.1709 26.1879C34.5646 26.0001 34.9693 25.8122 35.363 25.6133C35.4942 25.9338 35.6145 26.2652 35.7348 26.5967C35.6582 26.8067 35.5708 27.0166 35.4942 27.2155C35.6801 27.2266 35.866 27.2376 36.052 27.2487C36.0301 28.0332 36.0191 28.8177 36.0082 29.6022C35.0786 29.6022 34.149 29.5912 33.2085 29.5912C33.6788 29.0498 34.0943 28.4641 34.2584 27.6686C34.4662 27.4586 34.6849 27.2376 34.8927 27.0277C34.663 26.7514 34.4224 26.4641 34.1709 26.1879Z" fill="#E6A52F"/>
<path d="M37.281 26.3639L36.6139 26.3661L36.6277 30.5318L37.2948 30.5296L37.281 26.3639Z" fill="#E6A52F"/>
<path d="M38.4622 26.3638L37.7951 26.3661L37.8088 30.5318L38.476 30.5296L38.4622 26.3638Z" fill="#E6A52F"/>
<path fill-rule="evenodd" clip-rule="evenodd" d="M38.9829 30.5194H39.65L39.6391 26.3536H38.961L38.9829 30.5194Z" fill="#E6A52F"/>
<path d="M40.4773 27.5129L39.8101 27.5157L39.8185 29.5488L40.4856 29.546L40.4773 27.5129Z" fill="#E6A52F"/>
<path d="M41.2787 26.7386L40.1413 26.7429L40.1434 27.3064L41.2808 27.3021L41.2787 26.7386Z" fill="#E6A52F"/>
<path fill-rule="evenodd" clip-rule="evenodd" d="M26.0452 27.326L30.1135 27.315V26.4862L26.0452 26.4973V27.326Z" fill="#E6A52F"/>
<path d="M28.9292 27.6691L23.133 27.6907L23.1395 29.4808L28.9358 29.4592L28.9292 27.6691Z" fill="#E6A52F"/>
<path fill-rule="evenodd" clip-rule="evenodd" d="M21.8675 30.0332H22.8408L22.8299 27.1492H21.8566L21.8675 30.0332Z" fill="#E6A52F"/>
<path d="M21.2936 27.1593L20.6046 27.1619L20.6152 30.0459L21.3042 30.0433L21.2936 27.1593Z" fill="#E6A52F"/>
<path d="M19.5326 27.3692L18.8436 27.3721L18.8548 30.0793L19.5437 30.0763L19.5326 27.3692Z" fill="#E6A52F"/>
<path d="M21.6027 27.8669L21.1215 27.8685L21.1263 29.316L21.6075 29.3144L21.6027 27.8669Z" fill="#E6A52F"/>
<path d="M30.1116 28.0323L29.3132 28.0345L29.3172 29.482L30.1156 29.4798L30.1116 28.0323Z" fill="#E6A52F"/>
<path d="M21.6042 28.3385L19.2747 28.3474L19.2766 28.8556L21.6061 28.8468L21.6042 28.3385Z" fill="#E6A52F"/>
<path d="M41.2897 29.6779L40.1523 29.6818L40.1542 30.2454L41.2916 30.2415L41.2897 29.6779Z" fill="#E6A52F"/>
<path fill-rule="evenodd" clip-rule="evenodd" d="M26.8107 26.1879C26.7014 26.221 26.592 26.2542 26.4717 26.2873C26.0561 25.8454 25.6952 25.2818 25.5749 24.3316C25.5968 23.4365 26.1655 22.9614 27.2263 22.8619C28.0575 22.7514 29.2386 24.8619 30.2338 25.8675C29.8839 25.8896 29.5339 25.9227 29.1949 25.9448C28.5715 25.1492 28.0575 24.1437 27.3247 23.5581C26.6358 23.2929 26.2202 23.5581 26.078 24.3868C26.0233 25.0498 26.3733 25.6354 26.8107 26.1879Z" fill="#E6A52F"/>
<path fill-rule="evenodd" clip-rule="evenodd" d="M26.4498 24.6741C26.7123 25.1492 26.9748 25.6133 27.2373 26.0884C27.8169 26.0553 28.3965 26.0332 28.9652 26.0111C28.4949 25.3813 28.0247 24.7514 27.5653 24.1106C26.931 23.6907 26.4936 23.7238 26.4498 24.6741Z" fill="#E6A52F"/>
<path fill-rule="evenodd" clip-rule="evenodd" d="M32.1805 25.6244C33.132 25.6244 33.8975 26.3647 33.8975 27.2708C33.8975 28.1879 33.132 28.9282 32.1914 28.9393C31.24 28.9393 30.4744 28.1989 30.4744 27.2929C30.4635 26.3757 31.229 25.6354 32.1805 25.6244Z" fill="#E6A52F"/>
<path fill-rule="evenodd" clip-rule="evenodd" d="M32.5742 36.5194C31.9946 34.3426 31.5134 31.9558 31.24 29.1603C31.7977 29.2266 32.3555 29.2818 32.9132 29.3481C32.9898 34.5967 33.4054 37.6133 34.1818 38.2541C33.4491 38.1989 32.8367 37.8122 32.5742 36.5194Z" fill="#E6A52F"/>
<path d="M48.0491 26.1879C48.0172 17.4806 41.1953 10.3943 32.6584 10.0465C33.4571 11.352 34.255 12.6559 35.0567 13.9559C35.9645 16.1548 35.8551 18.1879 34.16 19.9448C34.6084 20.8398 35.0458 21.7238 35.4942 22.6188C35.7676 23.6686 36.041 24.7072 36.3144 25.757C37.4846 25.757 38.6548 25.7459 39.825 25.7459C40.4921 25.8564 41.1702 25.978 41.8373 26.0884V27.4255C41.5748 27.5028 41.3123 27.5691 41.0389 27.6465C41.0389 28.1768 41.0389 28.7072 41.0499 29.2376H41.7826V30.6962H41.7816C41.2023 30.6962 40.634 30.6962 40.0547 30.7072C39.661 31.4033 37.9111 31.1382 36.905 31.2487C36.3254 30.7514 36.1066 30.6962 35.7348 30.2542C35.0458 30.2542 34.3568 30.2542 33.6569 30.2652L33.6751 30.5932C33.7894 32.6507 33.9041 34.7171 34.0287 36.7735C34.3568 37.1934 35.0896 37.0829 35.013 38.0442C34.9583 38.6519 34.2584 38.9613 33.635 38.8619C31.4806 38.674 31.4696 32.8951 30.376 29.9227C29.6905 33.9631 29.0049 37.9951 28.3122 42.0333C29.5153 42.3196 30.7704 42.4689 32.0602 42.4641C40.9186 42.4309 48.082 35.1492 48.0491 26.1879Z" fill="white"/>
<path d="M20.8807 14.5513C17.8271 17.5154 15.934 21.6892 15.9509 26.3094C15.9711 31.8187 18.7137 36.679 22.8856 39.5941C23.4649 36.4366 24.0411 33.2791 24.6235 30.1216H23.5298C23.3767 30.6962 23.3658 30.8619 22.983 30.8619C22.3378 30.873 21.6925 30.873 21.0363 30.884C20.7739 30.884 20.4786 30.9614 20.4786 30.1879H19.9427C19.549 30.9172 19.1225 30.6962 18.5866 29.9558C18.4663 29.6243 18.4007 28.9835 18.3788 28.4973C18.3569 28.0553 18.3679 27.4034 18.4554 27.1603C18.9912 26.6409 19.724 26.5967 20.1286 27.326C20.1942 27.1934 20.2489 27.0608 20.3145 26.9172C20.5223 26.4531 20.7848 26.5636 21.0145 26.5636C21.7144 26.5636 22.4143 26.5636 23.1143 26.5525C23.4611 26.5525 23.4964 26.8022 23.5822 27.4092L23.5845 27.4255C24.2407 27.4034 24.8859 27.3813 25.5421 27.3592L25.4765 25.9669C24.8859 24.873 24.7656 23.8896 25.3671 23.3702C25.8811 22.9282 26.428 22.5415 26.9529 22.1327C25.8593 21.8785 24.8094 21.4034 23.8907 20.0443C22.897 18.215 21.8904 16.3856 20.8807 14.5513Z" fill="white"/>
<path d="M30.3651 25.1382L31.1743 25.2487L31.4478 24.3205L30.2119 22.5304L28.2981 22.431L30.3651 25.1382Z" fill="white"/>
<circle cx="32" cy="60" r="2" fill="#231F20"/>
</g>
<defs>
<filter id="filter0_f_884_10206" x="7" y="36" width="50" height="30" filterUnits="userSpaceOnUse" color-interpolation-filters="sRGB">
<feFlood flood-opacity="0" result="BackgroundImageFix"/>
<feBlend mode="normal" in="SourceGraphic" in2="BackgroundImageFix" result="shape"/>
<feGaussianBlur stdDeviation="3" result="effect1_foregroundBlur_884_10206"/>
</filter>
<clipPath id="clip0_884_10206">
<rect width="64" height="64" fill="white"/>
</clipPath>
</defs>
</svg>
