<svg width="66" height="60" viewBox="0 0 66 60" fill="none" xmlns="http://www.w3.org/2000/svg">
<path d="M3.24634 29.6278C3.48979 29.6011 3.59032 29.3859 3.73639 29.2414C6.77409 26.2115 9.81021 23.1833 12.8322 20.1377C13.1558 19.811 13.3238 19.7403 13.6898 20.111C16.7196 23.1754 19.7746 26.2147 22.8202 29.2634C22.9442 29.3874 23.062 29.5162 23.1877 29.6482C23.0401 29.8288 22.8516 29.7424 22.6929 29.7424C21.0673 29.7503 19.4416 29.7613 17.816 29.7377C17.395 29.7314 17.3024 29.8665 17.3071 30.2702C17.3856 36.9566 22.3348 43.3995 28.8029 45.1288C34.6348 46.6885 39.8385 45.4854 44.3306 41.4063C44.6134 41.1487 44.7641 41.1487 45.0296 41.4189C46.6804 43.0916 48.3437 44.7534 50.0149 46.4058C50.2819 46.6696 50.3102 46.8236 50.0181 47.1016C46.4102 50.5272 42.1741 52.7152 37.2531 53.4848C30.1568 54.5937 23.7563 52.9037 18.1725 48.4021C13.4778 44.6183 10.6474 39.677 9.59974 33.7304C9.39555 32.5728 9.2856 31.4026 9.27304 30.2278C9.26833 29.8414 9.15053 29.7361 8.77042 29.7393C6.92958 29.7581 5.08875 29.7471 3.24791 29.7471V29.6293L3.24634 29.6278Z" fill="#6AC25A"/>
<path d="M63.2637 29.7974C63.2574 29.989 63.1035 30.0659 62.9998 30.1696C59.915 33.2607 56.8255 36.3455 53.7407 39.4382C53.5286 39.6502 53.3982 39.7963 53.0982 39.4932C49.9412 36.3094 46.7653 33.1413 43.5956 29.9701C43.5564 29.9309 43.5297 29.879 43.492 29.8256C43.6427 29.6733 43.8265 29.7502 43.9883 29.7502C45.5747 29.7424 47.1611 29.7283 48.7459 29.7565C49.2249 29.7659 49.3789 29.656 49.3585 29.1487C49.2014 25.3241 47.8773 21.9581 45.3265 19.1214C41.6904 15.0817 37.0977 13.3162 31.7024 13.7921C28.1448 14.1063 25.0302 15.545 22.4244 18.0094C22.0647 18.3502 21.8872 18.3345 21.5527 17.9921C19.9506 16.3539 18.3281 14.7361 16.6946 13.1309C16.3883 12.8293 16.3585 12.6644 16.6914 12.3518C20.5459 8.72354 25.0726 6.48689 30.3391 5.88689C38.4281 4.96333 45.3234 7.4937 50.9276 13.3696C54.5024 17.1188 56.5695 21.6392 57.2087 26.7974C57.3092 27.6141 57.3972 28.4324 57.3925 29.2523C57.3893 29.6858 57.5527 29.7597 57.9407 29.755C59.527 29.7345 61.1134 29.744 62.6998 29.7502C62.8852 29.7502 63.0815 29.6953 63.2637 29.7989V29.7974Z" fill="#6AC159"/>
</svg>
