<svg width="33" height="32" viewBox="0 0 33 32" fill="none" xmlns="http://www.w3.org/2000/svg">
<circle cx="16.3334" cy="16" r="13" stroke="#231F20" stroke-width="2"/>
<path d="M11.8334 22V21.5H11.3334H10.3334C10.1762 21.5 10.0677 21.4522 9.97393 21.3584C9.88117 21.2657 9.83337 21.1577 9.83337 21C9.83337 20.8423 9.88117 20.7343 9.97393 20.6416C10.0677 20.5478 10.1762 20.5 10.3334 20.5H11.3334H11.8334V20V18V17.5H11.3334H10.3334C10.1762 17.5 10.0677 17.4522 9.97393 17.3584C9.88117 17.2657 9.83337 17.1577 9.83337 17C9.83337 16.8426 9.88101 16.7341 9.97396 16.6405C10.0675 16.5476 10.176 16.5 10.3334 16.5H11.3334H11.8334V16V8C11.8334 7.84266 11.881 7.73409 11.9739 7.64057C12.0674 7.54763 12.176 7.5 12.3334 7.5H17.8334C19.2365 7.5 20.4086 7.98237 21.3798 8.95355C22.351 9.92473 22.8334 11.0968 22.8334 12.5C22.8334 13.9032 22.351 15.0753 21.3798 16.0464C20.4086 17.0176 19.2365 17.5 17.8334 17.5H13.3334H12.8334V18V20V20.5H13.3334H16.3334C16.4905 20.5 16.599 20.5478 16.6928 20.6416C16.7856 20.7343 16.8334 20.8423 16.8334 21C16.8334 21.1577 16.7856 21.2657 16.6928 21.3584C16.599 21.4522 16.4905 21.5 16.3334 21.5H13.3334H12.8334V22V24C12.8334 24.1577 12.7856 24.2657 12.6928 24.3584C12.599 24.4522 12.4905 24.5 12.3334 24.5C12.1762 24.5 12.0677 24.4522 11.9739 24.3584C11.8812 24.2657 11.8334 24.1577 11.8334 24V22ZM12.8334 16V16.5H13.3334H17.8334C18.9326 16.5 19.8848 16.1057 20.6619 15.3286C21.4391 14.5514 21.8334 13.5992 21.8334 12.5C21.8334 11.4008 21.4391 10.4486 20.6619 9.67145C19.8848 8.89431 18.9326 8.5 17.8334 8.5H13.3334H12.8334V9V16Z" fill="#231F20" stroke="#231F20"/>
</svg>
