<svg width="241" height="64" viewBox="0 0 241 64" fill="none" xmlns="http://www.w3.org/2000/svg">
<g clip-path="url(#clip0_392_229)">
<rect width="240" height="62.1127" transform="translate(0.132324 0.943665)" fill="white"/>
<path fill-rule="evenodd" clip-rule="evenodd" d="M31.1042 11.3239C42.5267 11.2817 51.8084 20.507 51.8507 31.9155C51.8929 43.338 42.6676 52.6197 31.2591 52.662C19.8507 52.7042 10.5549 43.4789 10.5127 32.0704C10.4704 20.6479 19.6817 11.3662 31.1042 11.3239ZM31.062 1.08451C13.9915 1.14085 0.202795 15.0282 0.273218 32.1127C0.329556 49.1831 14.2169 62.9718 31.2873 62.9155C48.3577 62.8592 62.1465 48.9718 62.0901 31.9014C62.0197 14.8169 48.1324 1.02817 31.062 1.08451Z" fill="black"/>
<path fill-rule="evenodd" clip-rule="evenodd" d="M15.6958 14.9859C14.569 13.9014 12.9774 14.2817 11.6817 12.6338C17.5972 9.29578 23.5127 5.97183 29.4422 2.6338C29.4141 3.67606 29.8507 4.28169 29.3436 5.76056C28.9211 6.97183 29.231 6.80282 29.8929 7.88732C31.6394 10.7042 33.3718 13.5211 35.1183 16.3239C36.2873 19.1268 36.1465 21.7183 33.9634 23.9577C34.5408 25.0986 35.1042 26.2254 35.6817 27.3662C36.0338 28.7042 36.3859 30.0282 36.738 31.3662C38.245 31.3662 39.7521 31.3521 41.2591 31.3521C42.1183 31.493 42.9915 31.6479 43.8507 31.7887C43.8507 32.3521 43.8507 32.9296 43.8507 33.493C43.5127 33.5916 43.1746 33.6761 42.8225 33.7747C42.8225 34.4507 42.8225 35.1268 42.8366 35.8028C43.1465 35.8028 43.4704 35.8028 43.7803 35.8028C43.7803 36.4225 43.7803 37.0423 43.7803 37.662C43.0338 37.662 42.3014 37.662 41.5549 37.6761C41.0479 38.5634 38.7943 38.2254 37.4986 38.3662C36.7521 37.7324 36.4704 37.662 35.9915 37.0986C35.1042 37.0986 34.2169 37.0986 33.3155 37.1127C33.4704 39.8732 33.6253 42.6479 33.7943 45.4085C34.2169 45.9437 35.1605 45.8028 35.062 47.0282C34.9915 47.8028 34.0901 48.1972 33.2873 48.0704C30.5127 47.831 30.4986 40.4648 29.0901 36.6761C28.076 42.5916 27.062 48.493 26.0338 54.4085C26.6535 55 27.2732 55.5916 27.8929 56.1831C29.0197 57.0423 28.0338 58.3803 26.8648 58.1127C24.3718 57.507 21.8648 56.9014 19.3718 56.2817C18.1042 55.8028 18.3577 54.4085 18.6958 53.0282C19.6958 47.662 20.6817 42.2958 21.6817 36.9296C21.2169 36.9296 20.738 36.9296 20.2732 36.9296C20.076 37.662 20.062 37.8732 19.569 37.8732C18.738 37.8873 17.907 37.8873 17.062 37.9014C16.7239 37.9014 16.3436 38 16.3436 37.0141C16.0197 37.0141 15.9634 37.0141 15.6535 37.0141C15.1465 37.9437 14.5972 37.662 13.907 36.7183C13.7521 36.2958 13.6676 35.4789 13.6394 34.8592C13.6112 34.2958 13.6253 33.4648 13.738 33.1549C14.4281 32.493 15.3718 32.4366 15.8929 33.3662C15.9774 33.1972 16.0479 33.0282 16.1324 32.8451C16.4 32.2535 16.738 32.3944 17.0338 32.3944C17.9352 32.3944 18.8366 32.3944 19.738 32.3803C20.1887 32.3803 20.231 32.7042 20.3436 33.493C21.1887 33.4648 22.0197 33.4366 22.8648 33.4085C22.8366 32.8169 22.8084 32.2254 22.7803 31.6338C22.0197 30.2394 21.8648 28.9859 22.6394 28.3239C23.3014 27.7606 24.0056 27.2676 24.6817 26.7465C23.2732 26.4225 21.9211 25.8169 20.738 24.0845C19.076 21.0563 17.3859 18.0282 15.6958 14.9859ZM29.076 30.5775L30.1183 30.7183L30.4704 29.5352L28.8789 27.2535L26.4141 27.1268L29.076 30.5775Z" fill="#6D6E70"/>
<path fill-rule="evenodd" clip-rule="evenodd" d="M134.893 25.6901C137.4 25.6761 138.344 28.3803 138.358 31C138.372 34.1831 137.414 36.5493 134.977 36.5493C132.273 36.5634 131.597 33.4789 131.583 31.0282C131.583 28.5915 132.33 25.7042 134.893 25.6901ZM134.921 20.9859C129.555 21 125.921 24.9577 125.935 31C125.963 37.5634 129.583 41.2817 134.992 41.2676C140.09 41.2535 144.02 37.5493 143.992 30.9859C143.992 25.9014 141.076 20.9577 134.921 20.9859ZM151.217 26.6761L146.245 26.6901L146.301 40.7042L151.273 40.6901L151.259 36.7606L152.189 35.7183L154.893 40.6901L160.879 40.662L155.611 32.0986L160.231 26.6479L154.414 26.6761L151.245 30.9718L151.217 26.6761ZM162.245 26.6338L162.315 45.4225L167.287 45.4085L167.259 39.2535C168.104 40.4225 169.104 41.0423 170.47 41.0282C173.273 41.0141 176.33 39 176.301 33.493C176.287 29.6338 174.456 26.1972 170.682 26.2113C169.245 26.2113 167.456 27 166.766 28.7183H166.724V26.6338H162.245ZM169.203 36.7746C167.907 36.7746 167.161 35.4366 167.161 33.493C167.161 31.6197 167.963 30.2817 169.161 30.2817C170.484 30.2817 171.344 31.3662 171.344 33.5915C171.344 35.507 170.513 36.7746 169.203 36.7746ZM183.414 30.8732C183.527 29.6761 184.456 29.507 185.161 29.507C185.682 29.507 186.794 29.6338 186.794 30.6479C186.808 33.2676 177.865 30.4084 177.893 36.7746C177.907 39.6901 180.02 41 182.386 40.9859C184.259 40.9859 185.682 40.5493 187.09 39.0704L187.33 40.5634L192.47 40.5493V40.2817C191.823 39.6901 191.794 39.2958 191.794 38.493L191.766 31.9437C191.752 28.5915 191.386 26.1408 185.456 26.1549C180.499 26.169 178.625 27.9155 178.625 30.8873L183.414 30.8732ZM186.794 34.3521C186.808 36.493 186.344 37.8028 184.597 37.8169C183.611 37.8169 183.02 37.338 183.02 36.6479C183.02 34.831 185.175 35.2535 186.794 34.3521ZM207.949 31.8169C207.583 27.6761 204.414 26.0704 201.062 26.0845C196.921 26.0986 193.921 28.8592 193.935 33.6479C193.949 38.3803 197.076 40.9155 201.118 40.9014C204.583 40.8873 207.639 39.2958 208.062 35.0423L203.034 35.0563C202.893 36.1549 202.4 37.1408 201.104 37.1549C199.639 37.1549 198.921 35.7746 198.921 33.662C198.921 32 199.217 29.831 201.09 29.831C202.189 29.831 202.907 30.7324 202.921 31.831L207.949 31.8169ZM215.048 26.4507L210.076 26.4648L210.132 40.4789L215.104 40.4648L215.09 36.5352L216.02 35.493L218.71 40.4648L224.696 40.4366L219.428 31.8732L224.048 26.4225L218.231 26.4507L215.062 30.7465L215.048 26.4507ZM231.048 30.6901C231.161 29.493 232.09 29.3239 232.794 29.3239C233.315 29.3239 234.428 29.4507 234.428 30.4648C234.442 33.0845 225.499 30.2254 225.527 36.5915C225.541 39.507 227.654 40.8169 230.02 40.8028C231.879 40.8028 233.315 40.3662 234.724 38.8873L234.963 40.3803L240.104 40.3662V40.0986C239.456 39.507 239.428 39.1127 239.428 38.3099L239.4 31.7606C239.386 28.4084 239.02 25.9577 233.09 25.9718C228.132 25.9859 226.259 27.7324 226.259 30.7042L231.048 30.6901ZM234.442 34.1831C234.442 36.3239 234.006 37.6338 232.259 37.6479C231.273 37.6479 230.682 37.169 230.668 36.4789C230.654 34.662 232.823 35.0704 234.442 34.1831Z" fill="#6D6E70"/>
<path fill-rule="evenodd" clip-rule="evenodd" d="M82.9774 14.6761C82.9774 18 85.4422 18.4085 86.3859 18.4085C87.3296 18.4085 89.7803 18 89.7803 14.6761C89.7803 11.3521 87.3155 10.9437 86.3718 10.9437C85.4422 10.9437 82.9774 11.3662 82.9774 14.6761ZM84.4563 14.6761C84.4563 12.6901 85.569 12.1972 86.3718 12.1972C87.1746 12.1972 88.3014 12.6901 88.3014 14.6761C88.3014 16.662 87.1746 17.1549 86.3859 17.1549C85.5831 17.169 84.4563 16.662 84.4563 14.6761ZM92.1887 12.9577H90.8084L90.8225 18.2113H92.2028V16.5493L92.7803 15.9577L94.0338 18.2113H95.6817L93.7803 14.9859L95.6253 12.9577H93.9352L92.2028 14.9577L92.1887 12.9577ZM98.8084 14C99.7521 14 99.9915 14.8451 99.9915 15.6901C99.9915 16.4648 99.6535 17.2113 98.7662 17.2113C97.8789 17.2113 97.6253 16.2394 97.6253 15.6197C97.6253 14.7887 97.9352 14.0141 98.8084 14ZM97.6253 12.9577H96.3014L96.3155 20.3239H97.6958V17.5352L97.7239 17.5493C97.8929 17.831 98.231 18.3662 99.2028 18.3521C100.766 18.3521 101.428 16.9859 101.428 15.5493C101.428 13.7324 100.386 12.8169 99.2169 12.831C98.2873 12.831 97.907 13.3239 97.6535 13.7324H97.6394L97.6253 12.9577ZM103.597 14.6479C103.639 14.338 103.752 13.9155 104.442 13.9155C104.794 13.9155 105.358 13.9437 105.358 14.5352C105.358 14.7887 105.146 14.9437 104.555 15C103.231 15.1127 102.104 15.6056 102.104 16.8169C102.104 17.9014 102.907 18.3521 103.696 18.3521C104.639 18.3521 105.09 17.9155 105.4 17.5916C105.428 17.8873 105.442 17.9577 105.527 18.2113H107.006V18C106.837 17.9437 106.696 17.8028 106.696 17.1831V14.338C106.696 13.0423 105.344 12.8169 104.597 12.8169C103.527 12.8169 102.414 13.0423 102.259 14.662L103.597 14.6479ZM105.358 15.6338V16.3099C105.358 16.9437 104.738 17.3521 104.132 17.3521C103.865 17.3521 103.484 17.2113 103.484 16.7183C103.484 16.1549 103.907 16.0141 104.428 15.9296C104.977 15.831 105.217 15.7465 105.358 15.6338ZM111.076 16.2817C111.076 16.5211 110.837 17.1972 110.132 17.1972C109.09 17.1972 109.062 16.0563 109.062 15.493C109.062 14.8451 109.287 13.9718 110.161 13.9718C110.808 13.9718 111.02 14.4789 111.076 14.8169H112.47C112.344 13.1831 110.977 12.8028 110.146 12.8028C108.372 12.8028 107.639 14.0141 107.639 15.7183C107.639 16.8169 108.09 18.338 110.062 18.338C111.992 18.338 112.4 16.8169 112.456 16.2817H111.076ZM115.837 12.7887C114.428 12.7887 113.146 13.662 113.146 15.5634C113.146 17.4648 114.428 18.3239 115.837 18.3239C117.245 18.3239 118.513 17.4366 118.513 15.5493C118.513 13.6479 117.245 12.7887 115.837 12.7887ZM115.837 13.9577C116.907 13.9577 117.104 14.8873 117.104 15.5634C117.104 16.2394 116.907 17.169 115.851 17.169C114.78 17.169 114.583 16.2394 114.583 15.5634C114.569 14.8732 114.78 13.9577 115.837 13.9577ZM119.442 12.9296V14.507C119.442 15.8451 120.189 16.338 121.217 16.338C121.752 16.338 122.217 16.2817 122.696 16.169V18.1831H124.076V12.9296H122.696V15.0986C122.513 15.1549 122.132 15.1831 121.71 15.1831C121.287 15.1831 120.808 15.0845 120.808 14.4648V12.9296H119.442ZM126.639 12.9155H125.259L125.273 18.169H126.654V15.9859H128.611V18.169H129.992V12.9155H128.611V14.8732H126.639V12.9155ZM133.597 12.7746C132.189 12.7746 130.907 13.6479 130.907 15.5493C130.907 17.4507 132.189 18.3099 133.597 18.3099C135.006 18.3099 136.273 17.4225 136.273 15.5352C136.287 13.6197 135.006 12.7606 133.597 12.7746ZM133.597 13.9296C134.668 13.9296 134.865 14.8592 134.865 15.5352C134.865 16.2113 134.668 17.1408 133.611 17.1408C132.541 17.1408 132.344 16.1972 132.344 15.5352C132.33 14.8592 132.541 13.9296 133.597 13.9296ZM140.484 16.6056C140.372 16.9718 139.992 17.1831 139.597 17.1831C138.484 17.1831 138.386 16.2958 138.386 15.9014H141.949V15.3803C141.949 13.5775 140.949 12.7606 139.484 12.7606C137.189 12.7606 136.963 14.7887 136.963 15.4225C136.963 17.5775 138.104 18.2958 139.583 18.2958C140.484 18.2958 141.527 17.8732 141.893 16.6056H140.484ZM138.386 15C138.47 14.3099 138.808 13.8873 139.47 13.8873C139.907 13.8873 140.456 14.1549 140.541 14.9859L138.386 15ZM148.076 12.7465C146.668 12.7465 145.386 13.6197 145.386 15.5211C145.386 17.4225 146.668 18.2817 148.076 18.2817C149.484 18.2817 150.752 17.3944 150.752 15.507C150.752 13.6056 149.484 12.7465 148.076 12.7465ZM148.076 13.9155C149.146 13.9155 149.344 14.8451 149.344 15.5211C149.344 16.1972 149.146 17.1268 148.09 17.1268C147.02 17.1268 146.823 16.1972 146.823 15.5211C146.808 14.831 147.006 13.9155 148.076 13.9155ZM152.499 14.1831C152.597 12.8873 153.414 12.4648 154.541 12.2817C155.583 12.1127 156.175 11.7183 156.33 10.831H155.287C155.203 11.169 154.668 11.1972 153.766 11.4084C151.893 11.8592 151.456 13.3099 151.456 15.338C151.456 17.2676 152.47 18.2676 154.048 18.2676C155.569 18.2676 156.654 17.3239 156.639 15.493C156.639 13.7183 155.47 13.0563 154.175 13.0563C153.414 13.0704 152.808 13.5634 152.499 14.1831ZM154.076 14.1831C154.949 14.1831 155.203 14.9577 155.217 15.6338C155.217 16.3099 154.949 17.1127 154.034 17.1268C153.104 17.1268 152.865 16.3239 152.865 15.6479C152.851 14.9296 153.161 14.1831 154.076 14.1831ZM159.992 12.7324C158.583 12.7324 157.301 13.6056 157.301 15.507C157.301 17.4085 158.583 18.2676 159.992 18.2676C161.4 18.2676 162.668 17.3803 162.668 15.493C162.682 13.5915 161.4 12.7324 159.992 12.7324ZM160.006 13.9014C161.076 13.9014 161.259 14.831 161.273 15.507C161.273 16.1831 161.076 17.1127 160.02 17.1127C158.949 17.1127 158.752 16.1831 158.752 15.507C158.724 14.8169 158.935 13.9014 160.006 13.9014ZM166.118 13.9155C167.062 13.9155 167.301 14.7606 167.301 15.6056C167.301 16.3803 166.963 17.1268 166.076 17.1268C165.189 17.1268 164.935 16.1549 164.935 15.5352C164.935 14.7042 165.231 13.9155 166.118 13.9155ZM164.935 12.8592H163.611L163.625 20.2254H165.006V17.4366L165.034 17.4507C165.203 17.7324 165.541 18.2676 166.513 18.2535C168.076 18.2535 168.738 16.8873 168.738 15.4507C168.738 13.6338 167.696 12.7324 166.541 12.7324C165.611 12.7324 165.231 13.2254 164.977 13.6338H164.963L164.935 12.8592ZM169.161 12.8592L171.104 18.3239C170.977 19.0423 170.71 19.1127 170.203 19.1127C170.09 19.1127 169.992 19.0986 169.935 19.0986V20.1972C170.132 20.2113 170.372 20.2113 170.555 20.2113C171.752 20.2113 171.992 19.7183 172.583 18L174.386 12.831H172.921L171.851 16.7042H171.837L170.71 12.831L169.161 12.8592ZM175.851 12.8451V14.2676C175.851 15.5352 175.654 16.5493 175.301 17H174.724V19.5211H176.006V18.0986H179.273V19.5211H180.555V17H179.921V12.8451H175.851ZM178.541 17H176.668C176.935 16.6056 177.132 16 177.132 14.5915V13.9437H178.527L178.541 17ZM183.808 12.7042C182.4 12.7042 181.118 13.5775 181.118 15.4789C181.118 17.3803 182.4 18.2394 183.808 18.2394C185.217 18.2394 186.484 17.3521 186.484 15.4648C186.484 13.5634 185.217 12.7042 183.808 12.7042ZM183.808 13.8592C184.879 13.8592 185.076 14.7887 185.076 15.4648C185.076 16.1408 184.879 17.0704 183.823 17.0704C182.752 17.0704 182.555 16.1408 182.555 15.4648C182.541 14.7887 182.752 13.8732 183.808 13.8592ZM187.428 18.0986H190.076C191.273 18.0986 192.006 17.6338 192.006 16.662C192.006 15.8028 191.414 15.4648 190.865 15.338C191.414 15.1972 191.851 14.8028 191.837 14.1972C191.837 13.3239 190.977 12.8451 189.794 12.8451H187.414L187.428 18.0986ZM188.794 15.7887H189.794C190.301 15.7887 190.639 16 190.639 16.4648C190.639 16.9859 190.33 17.1408 189.823 17.1408H188.808L188.794 15.7887ZM188.794 13.7887H189.71C190.175 13.7887 190.484 13.9437 190.484 14.3803C190.484 14.7887 190.161 14.9718 189.71 14.9718H188.808L188.794 13.7887ZM194.161 14.5211C194.203 14.2113 194.315 13.7887 195.006 13.7887C195.358 13.7887 195.921 13.8169 195.921 14.4085C195.921 14.662 195.71 14.8169 195.118 14.8732C193.794 14.9859 192.668 15.4789 192.668 16.6901C192.668 17.7746 193.47 18.2254 194.259 18.2254C195.203 18.2254 195.654 17.7887 195.963 17.4648C195.992 17.7606 196.006 17.831 196.09 18.0845H197.583V17.8732C197.414 17.8169 197.273 17.6761 197.273 17.0563V14.2113C197.273 12.9155 195.921 12.6901 195.175 12.6901C194.104 12.6901 192.992 12.9155 192.837 14.5352L194.161 14.5211ZM195.921 15.5211V16.1972C195.921 16.831 195.301 17.2394 194.696 17.2394C194.428 17.2394 194.048 17.0986 194.048 16.6056C194.048 16.0423 194.47 15.9014 194.992 15.8169C195.555 15.7183 195.794 15.6338 195.921 15.5211ZM199.837 12.8169H198.456V18.0704H199.837V15.8873H201.794V18.0704H203.175V12.8169H201.794V14.7747H199.837V12.8169ZM205.724 12.8169H204.344L204.358 18.0704H205.837L207.823 14.7183V18.0563H209.203L209.189 12.8028H207.71L205.724 16.1408V12.8169ZM213.639 16.5211C213.527 16.8873 213.146 17.0986 212.752 17.0986C211.639 17.0986 211.555 16.2113 211.555 15.8169H215.118V15.2958C215.118 13.493 214.132 12.6761 212.654 12.6761C210.358 12.6761 210.132 14.7042 210.132 15.338C210.132 17.493 211.273 18.2113 212.752 18.2113C213.654 18.2113 214.696 17.7887 215.062 16.5211H213.639ZM211.541 14.9014C211.611 14.2113 211.963 13.7887 212.625 13.7887C213.062 13.7887 213.611 14.0563 213.696 14.8873L211.541 14.9014Z" fill="#6D6E70"/>
<path fill-rule="evenodd" clip-rule="evenodd" d="M74.9493 28.9296C74.4704 23.9859 71.4704 21.0704 66.1324 21.0845C61.245 21.0986 57.4281 24.9859 57.4422 31.2254C57.4563 37.4789 60.9634 41.3803 66.7521 41.3662C71.3718 41.3521 74.5831 38.3521 75.076 33.3662L69.569 33.3803C69.3577 35.2253 68.4845 36.6479 66.6394 36.6479C63.7239 36.662 63.1887 34.1127 63.1746 31.4084C63.1605 27.6901 64.3718 25.7887 66.3859 25.7746C68.1887 25.7746 69.3296 26.9155 69.4986 28.9296H74.9493ZM77.1183 26.8169L77.1605 40.831L82.2169 40.8169L82.1887 30.8592L85.9352 30.8451L85.9634 40.8028L91.0197 40.7887L90.9774 26.7746L77.1183 26.8169ZM98.2169 32.1831C98.2169 30.6901 99.062 29.7465 100.569 29.7465C101.752 29.7465 102.808 30.8873 102.808 32.169L98.2169 32.1831ZM107.865 34.9859C107.851 29.7183 105.076 26.3239 100.358 26.338C96.2732 26.3521 93.1465 29.2958 93.1605 33.9014C93.1746 38.6056 96.3436 41.169 100.414 41.1549C103.372 41.1408 106.583 39.9859 107.442 36.507L102.611 36.5211C102.245 37.3521 101.527 37.7606 100.724 37.7606C99.3859 37.7606 98.2169 36.6761 98.2169 35.0141L107.865 34.9859ZM114.992 26.6901L109.935 26.7042L109.977 40.7183L120.611 40.6901L120.625 44.0282L125.245 44.0141L125.217 36.6056H123.808L123.78 26.6479L118.724 26.662L118.752 36.6197L115.006 36.6338L114.992 26.6901Z" fill="#E6A52F"/>
<path fill-rule="evenodd" clip-rule="evenodd" d="M19.5549 53.4789C20.5126 47.9296 21.4563 42.3803 22.4141 36.8451C24.3577 36.831 26.3014 36.831 28.245 36.831C27.231 42.3944 26.2169 47.9577 25.2028 53.5211C24.9493 54.8028 25.3859 56.0563 27.1746 57.2394C24.8648 56.662 22.5549 56.0845 20.245 55.493C19.6394 55.0845 19.4141 54.4085 19.5549 53.4789Z" fill="#E6A52F"/>
<path fill-rule="evenodd" clip-rule="evenodd" d="M28.738 8.05634C30.5831 11.0845 32.4281 14.1127 34.2732 17.1408C34.9211 19.3239 34.5972 21.3521 33.4 23.2113C31.7662 24.1831 30.1183 25.169 28.4845 26.1408C25.907 26.3521 23.6535 25.6479 21.8225 23.662C20.076 20.7465 18.3296 17.8169 16.5831 14.9014C16.1887 14.493 15.7943 14.2113 15.4141 14.0141L28.3859 6.5493C28.3577 7.07042 28.4281 7.56338 28.738 8.05634ZM14.6958 13.7042L28.4422 5.95775C28.4845 5.69014 28.5408 5.40845 28.5972 5.12676L14.1042 13.4507C14.3014 13.5352 14.4986 13.6197 14.6958 13.7042ZM13.4845 13.0845L28.6957 4.52113C28.7239 4.30986 28.738 4.08451 28.738 3.87324C23.5267 6.8169 18.3155 9.76056 13.1042 12.7042C13.2028 12.8592 13.3436 12.9859 13.4845 13.0845Z" fill="#E6A52F"/>
<path fill-rule="evenodd" clip-rule="evenodd" d="M31.7803 30.1549L29.5127 26.4648L32.7803 24.4507L35.0056 28.0141L31.7803 30.1549Z" fill="#E6A52F"/>
<path fill-rule="evenodd" clip-rule="evenodd" d="M33.4 31.8451L32.3014 30.5493L35.1042 28.831L35.8507 30.3662L33.4 31.8451Z" fill="#E6A52F"/>
<path fill-rule="evenodd" clip-rule="evenodd" d="M33.9774 31.9155C34.4845 31.6761 35.0056 31.4366 35.5126 31.1831C35.6817 31.5916 35.8366 32.0141 35.9915 32.4366C35.8929 32.7042 35.7803 32.9718 35.6817 33.2254C35.9211 33.2394 36.1605 33.2535 36.4 33.2676C36.3718 34.2676 36.3577 35.2676 36.3436 36.2676C35.1465 36.2676 33.9493 36.2535 32.738 36.2535C33.3436 35.5634 33.8788 34.8169 34.0901 33.8028C34.3577 33.5352 34.6394 33.2535 34.907 32.9859C34.6112 32.6338 34.3014 32.2676 33.9774 31.9155Z" fill="#E6A52F"/>
<path d="M37.9829 32.1398L37.1237 32.1427L37.1415 37.4525L38.0006 37.4497L37.9829 32.1398Z" fill="#E6A52F"/>
<path d="M39.504 32.1398L38.6449 32.1426L38.6626 37.4525L39.5218 37.4496L39.504 32.1398Z" fill="#E6A52F"/>
<path fill-rule="evenodd" clip-rule="evenodd" d="M40.1746 37.4366H41.0338L41.0197 32.1268H40.1465L40.1746 37.4366Z" fill="#E6A52F"/>
<path d="M42.0992 33.6044L41.24 33.608L41.2507 36.1995L42.1099 36.1959L42.0992 33.6044Z" fill="#E6A52F"/>
<path d="M43.1313 32.6174L41.6665 32.6229L41.6692 33.3412L43.134 33.3357L43.1313 32.6174Z" fill="#E6A52F"/>
<path fill-rule="evenodd" clip-rule="evenodd" d="M23.5127 33.3662L28.7521 33.3521V32.2958L23.5127 32.3099V33.3662Z" fill="#E6A52F"/>
<path d="M27.2269 33.8036L19.7621 33.8311L19.7705 36.1128L27.2353 36.0853L27.2269 33.8036Z" fill="#E6A52F"/>
<path fill-rule="evenodd" clip-rule="evenodd" d="M18.1324 36.8169H19.3859L19.3718 33.1408H18.1183L18.1324 36.8169Z" fill="#E6A52F"/>
<path d="M17.3933 33.1538L16.506 33.157L16.5196 36.8331L17.4069 36.8298L17.3933 33.1538Z" fill="#E6A52F"/>
<path d="M15.1253 33.4212L14.238 33.4249L14.2524 36.8756L15.1397 36.8719L15.1253 33.4212Z" fill="#E6A52F"/>
<path d="M17.7914 34.0557L17.1717 34.0577L17.1777 35.9028L17.7975 35.9007L17.7914 34.0557Z" fill="#E6A52F"/>
<path d="M28.7496 34.2664L27.7214 34.2693L27.7266 36.1144L28.7548 36.1115L28.7496 34.2664Z" fill="#E6A52F"/>
<path d="M17.7932 34.6568L14.7932 34.668L14.7957 35.3159L17.7957 35.3047L17.7932 34.6568Z" fill="#E6A52F"/>
<path d="M43.1455 36.3641L41.6807 36.369L41.6831 37.0873L43.1479 37.0824L43.1455 36.3641Z" fill="#E6A52F"/>
<path fill-rule="evenodd" clip-rule="evenodd" d="M24.4986 31.9155C24.3577 31.9577 24.2169 32 24.0619 32.0423C23.5267 31.4789 23.0619 30.7606 22.907 29.5493C22.9352 28.4085 23.6676 27.8028 25.0338 27.6761C26.1042 27.5352 27.6253 30.2254 28.907 31.507C28.4563 31.5352 28.0056 31.5775 27.569 31.6056C26.7662 30.5916 26.1042 29.3099 25.1605 28.5634C24.2732 28.2254 23.738 28.5634 23.5549 29.6197C23.4845 30.4648 23.9352 31.2113 24.4986 31.9155Z" fill="#E6A52F"/>
<path fill-rule="evenodd" clip-rule="evenodd" d="M24.0338 29.9859C24.3718 30.5916 24.7098 31.1831 25.0479 31.7887C25.7943 31.7465 26.5408 31.7183 27.2732 31.6901C26.6676 30.8873 26.0619 30.0845 25.4704 29.2676C24.6535 28.7324 24.0901 28.7747 24.0338 29.9859Z" fill="#E6A52F"/>
<path fill-rule="evenodd" clip-rule="evenodd" d="M31.4141 31.1972C32.6394 31.1972 33.6253 32.1408 33.6253 33.2958C33.6253 34.4648 32.6394 35.4085 31.4281 35.4225C30.2028 35.4225 29.2169 34.4789 29.2169 33.3239C29.2028 32.1549 30.1887 31.2113 31.4141 31.1972Z" fill="#E6A52F"/>
<path fill-rule="evenodd" clip-rule="evenodd" d="M31.9211 45.0845C31.1746 42.3099 30.5549 39.2676 30.2028 35.7042C30.9211 35.7887 31.6394 35.8592 32.3577 35.9437C32.4563 42.6338 32.9915 46.4789 33.9915 47.2958C33.0479 47.2253 32.2591 46.7324 31.9211 45.0845Z" fill="#E6A52F"/>
</g>
<defs>
<clipPath id="clip0_392_229">
<rect width="240" height="62.1127" fill="white" transform="translate(0.132324 0.943665)"/>
</clipPath>
</defs>
</svg>
