<svg width="16" height="17" viewBox="0 0 16 17" fill="none" xmlns="http://www.w3.org/2000/svg">
<path fill-rule="evenodd" clip-rule="evenodd" d="M11.6539 10.992L14.4054 13.7269C14.7332 14.0528 14.7333 14.5832 14.4056 14.9093V14.9093C14.0805 15.2327 13.5552 15.2329 13.2299 14.9096L10.4599 12.157C9.31247 12.9935 7.90468 13.3942 6.48868 13.2874C5.07268 13.1806 3.74094 12.5732 2.73195 11.574C2.18029 11.0269 1.74223 10.3761 1.44299 9.65909C1.14375 8.94209 0.989215 8.17299 0.988285 7.39605C0.987356 6.6191 1.14005 5.84964 1.43758 5.13192C1.7351 4.41419 2.1716 3.76238 2.72195 3.21397C3.84248 2.10785 5.3542 1.48855 6.92871 1.49061C8.50322 1.49267 10.0133 2.11592 11.1309 3.22497C12.1476 4.23463 12.7616 5.58018 12.8578 7.00979C12.9541 8.43941 12.5261 9.85511 11.6539 10.992ZM3.88295 4.36897C3.48451 4.76606 3.16851 5.238 2.9531 5.75765C2.73769 6.27729 2.62714 6.8344 2.62779 7.39692C2.62844 7.95945 2.74028 8.51629 2.95689 9.03544C3.1735 9.55459 3.4906 10.0258 3.88995 10.422C4.69936 11.2249 5.7929 11.676 6.93301 11.6773C8.07312 11.6786 9.16769 11.23 9.97895 10.429C10.3775 10.0319 10.6936 9.56002 10.9091 9.04037C11.1246 8.52071 11.2352 7.96357 11.2345 7.40101C11.2339 6.83845 11.122 6.28157 10.9053 5.76241C10.6886 5.24325 10.3714 4.77207 9.97195 4.37597C9.16241 3.57327 8.06892 3.12232 6.92889 3.12101C5.78886 3.1197 4.69433 3.56814 3.88295 4.36897Z" fill="#919191"/>
</svg>
