<svg width="17" height="16" viewBox="0 0 17 16" fill="none" xmlns="http://www.w3.org/2000/svg">
<g clip-path="url(#clip0_405_629)">
<path fill-rule="evenodd" clip-rule="evenodd" d="M14.1323 6.72728C14.1323 11.1818 8.13229 15 8.13229 15C8.13229 15 2.13232 11.1818 2.13232 6.72728C2.13232 5.20831 2.76446 3.75155 3.88967 2.67748C5.01489 1.60341 6.541 1 8.13229 1C9.72358 1 11.2498 1.60341 12.3749 2.67748C13.5001 3.75155 14.1323 5.20831 14.1323 6.72728ZM8.13232 9C9.23689 9 10.1323 8.10457 10.1323 7C10.1323 5.89543 9.23689 5 8.13232 5C7.02775 5 6.13232 5.89543 6.13232 7C6.13232 8.10457 7.02775 9 8.13232 9Z" stroke="#FAA61A" stroke-width="2"/>
</g>
<defs>
<clipPath id="clip0_405_629">
<rect width="16" height="16" fill="white" transform="translate(0.132324)"/>
</clipPath>
</defs>
</svg>
