<svg width="16" height="16" viewBox="0 0 16 16" fill="none" xmlns="http://www.w3.org/2000/svg">
<path d="M12.2278 3.7715L11.5206 4.47861L12.2278 3.7715ZM3.7715 3.7715L3.06454 3.06424L3.06424 3.06454L3.7715 3.7715ZM3.7715 12.2278L3.06439 12.9349L3.7715 12.2278ZM11 15C11.5523 15 12 14.5523 12 14C12 13.4477 11.5523 13 11 13V15ZM15 9.0875C15 9.08377 15 9.08004 15 9.07633C15 9.07261 15 9.06891 15 9.06521C15 9.06152 15 9.05784 15 9.05416C15 9.05049 15 9.04683 15 9.04318C15 9.03952 15 9.03588 15 9.03225C15 9.02862 15 9.025 15 9.02139C15 9.01778 15 9.01418 15 9.01059C15 9.00699 15 9.00341 15 8.99984C15 8.99627 15 8.99271 15 8.98917C15 8.98562 15 8.98208 15 8.97855C15 8.97502 15 8.9715 15 8.96799C15 8.96448 15 8.96098 15 8.95749C15 8.95401 15 8.95053 15 8.94706C15 8.94359 15 8.94013 15 8.93668C15 8.93324 15 8.9298 15 8.92637C15 8.92294 15 8.91952 15 8.91612C15 8.91271 15 8.90931 15 8.90592C15 8.90253 15 8.89916 15 8.89579C15 8.89242 15 8.88906 15 8.88571C15 8.88237 15 8.87903 15 8.8757C15 8.87237 15 8.86905 15 8.86574C15 8.86244 15 8.85914 15 8.85585C15 8.85256 15 8.84928 15 8.84601C15 8.84274 15 8.83948 15 8.83623C15 8.83298 15 8.82975 15 8.82652C15 8.82329 15 8.82007 15 8.81686C15 8.81365 15 8.81044 15 8.80725C15 8.80406 15 8.80088 15 8.79771C15 8.79454 15 8.79138 15 8.78823C15 8.78507 15 8.78193 15 8.7788C15 8.77567 15 8.77254 15 8.76943C15 8.76632 15 8.76321 15 8.76012C15 8.75702 15 8.75394 15 8.75086C15 8.74779 15 8.74472 15 8.74167C15 8.73861 15 8.73557 15 8.73253C15 8.72949 15 8.72646 15 8.72345C15 8.72043 15 8.71742 15 8.71442C15 8.71142 15 8.70843 15 8.70545C15 8.70247 15 8.6995 15 8.69654C15 8.69358 15 8.69063 15 8.68769C15 8.68474 15 8.68181 15 8.67889C15 8.67596 15 8.67305 15 8.67014C15 8.66724 15 8.66434 15 8.66146C15 8.65857 15 8.65569 15 8.65283C15 8.64996 15 8.6471 15 8.64425C15 8.6414 15 8.63856 15 8.63573C15 8.6329 15 8.63008 15 8.62727C15 8.62445 15 8.62165 15 8.61886C15 8.61606 15 8.61328 15 8.6105C15 8.60773 15 8.60496 15 8.6022C15 8.59944 15 8.5967 15 8.59396C15 8.59122 15 8.58849 15 8.58577C15 8.58305 15 8.58033 15 8.57763C15 8.57493 15 8.57223 15 8.56955C15 8.56686 15 8.56419 15 8.56152C15 8.55885 15 8.5562 15 8.55355C15 8.5509 15 8.54826 15 8.54563C15 8.543 15 8.54037 15 8.53776C15 8.53515 15 8.53254 15 8.52995C15 8.52735 15 8.52476 15 8.52219C15 8.51961 15 8.51704 15 8.51448C15 8.51192 15 8.50937 15 8.50683C15 8.50428 15 8.50175 15 8.49923C15 8.4967 15 8.49418 15 8.49168C15 8.48917 15 8.48667 15 8.48418C15 8.48169 15 8.47921 15 8.47674C15 8.47426 15 8.4718 15 8.46935C15 8.46689 15 8.46444 15 8.46201C15 8.45957 15 8.45714 15 8.45472C15 8.4523 15 8.44989 15 8.44748C15 8.44508 15 8.44268 15 8.4403C15 8.43791 15 8.43553 15 8.43316C15 8.4308 15 8.42843 15 8.42608C15 8.42373 15 8.42139 15 8.41905C15 8.41672 15 8.41439 15 8.41207C15 8.40975 15 8.40744 15 8.40514C15 8.40284 15 8.40055 15 8.39826C15 8.39598 15 8.3937 15 8.39143C15 8.38917 15 8.38691 15 8.38466C15 8.38241 15 8.38016 15 8.37793C15 8.37569 15 8.37347 15 8.37125C15 8.36903 15 8.36682 15 8.36462C15 8.36242 15 8.36023 15 8.35804C15 8.35586 15 8.35368 15 8.35151C15 8.34935 15 8.34719 15 8.34503C15 8.34288 15 8.34074 15 8.3386C15 8.33647 15 8.33434 15 8.33222C15 8.3301 15 8.32799 15 8.32589C15 8.32378 15 8.32169 15 8.3196C15 8.31752 15 8.31544 15 8.31337C15 8.3113 15 8.30923 15 8.30718C15 8.30512 15 8.30308 15 8.30104C15 8.299 15 8.29697 15 8.29495C15 8.29292 15 8.29091 15 8.2889C15 8.2869 15 8.2849 15 8.28291C15 8.28092 15 8.27893 15 8.27696C15 8.27498 15 8.27302 15 8.27106C15 8.2691 15 8.26715 15 8.2652C15 8.26326 15 8.26132 15 8.2594C15 8.25747 15 8.25555 15 8.25364C15 8.25172 15 8.24982 15 8.24792C15 8.24603 15 8.24414 15 8.24226C15 8.24037 15 8.2385 15 8.23664C15 8.23477 15 8.23291 15 8.23106C15 8.22921 15 8.22737 15 8.22553C15 8.2237 15 8.22187 15 8.22005C15 8.21823 15 8.21642 15 8.21461C15 8.21281 15 8.21101 15 8.20922C15 8.20743 15 8.20565 15 8.20388C15 8.2021 15 8.20034 15 8.19858C15 8.19682 15 8.19507 15 8.19332C15 8.19158 15 8.18984 15 8.18811C15 8.18639 15 8.18466 15 8.18295C15 8.18124 15 8.17953 15 8.17783C15 8.17613 15 8.17444 15 8.17275C15 8.17107 15 8.16939 15 8.16772C15 8.16605 15 8.16439 15 8.16273C15 8.16108 15 8.15943 15 8.15779C15 8.15615 15 8.15452 15 8.15289C15 8.15127 15 8.14965 15 8.14804C15 8.14642 15 8.14482 15 8.14322C15 8.14163 15 8.14004 15 8.13845C15 8.13687 15 8.1353 15 8.13373C15 8.13216 15 8.1306 15 8.12905C15 8.12749 15 8.12595 15 8.12441C15 8.12287 15 8.12134 15 8.11981C15 8.11829 15 8.11677 15 8.11526C15 8.11375 15 8.11224 15 8.11074C15 8.10925 15 8.10776 15 8.10627C15 8.10479 15 8.10332 15 8.10185C15 8.10038 15 8.09892 15 8.09746C15 8.09601 15 8.09456 15 8.09312C15 8.09168 15 8.09024 15 8.08882C15 8.08739 15 8.08597 15 8.08456C15 8.08314 15 8.08174 15 8.08034C15 8.07894 15 8.07754 15 8.07616C15 8.07477 15 8.07339 15 8.07202C15 8.07065 15 8.06928 15 8.06792C15 8.06657 15 8.06521 15 8.06387C15 8.06252 15 8.06119 15 8.05985C15 8.05852 15 8.0572 15 8.05588C15 8.05456 15 8.05325 15 8.05194C15 8.05064 15 8.04934 15 8.04805C15 8.04676 15 8.04547 15 8.0442C15 8.04292 15 8.04165 15 8.04038C15 8.03912 15 8.03786 15 8.03661C15 8.03535 15 8.03411 15 8.03287C15 8.03163 15 8.0304 15 8.02917C15 8.02795 15 8.02673 15 8.02552C15 8.0243 15 8.0231 15 8.0219C15 8.0207 15 8.0195 15 8.01832C15 8.01713 15 8.01595 15 8.01478C15 8.0136 15 8.01243 15 8.01127C15 8.01011 15 8.00896 15 8.00781C15 8.00666 15 8.00552 15 8.00438C15 8.00325 15 8.00212 15 8.00099C15 7.99987 15 7.99875 15 7.99764C15 7.99653 15 7.99543 15 7.99433C15 7.99323 15 7.99214 15 7.99105C15 7.98997 15 7.98889 15 7.98782C15 7.98674 15 7.98568 15 7.98462C15 7.98355 15 7.9825 15 7.98145C15 7.9804 15 7.97936 15 7.97832C15 7.97729 15 7.97626 15 7.97523C15 7.97421 15 7.97319 15 7.97218C15 7.97117 15 7.97016 15 7.96916C15 7.96816 15 7.96717 15 7.96618C15 7.96519 15 7.96421 15 7.96324C15 7.96226 15 7.96129 15 7.96033C15 7.95936 15 7.95841 15 7.95745C15 7.9565 15 7.95556 15 7.95462C15 7.95368 15 7.95274 15 7.95181C15 7.95088 15 7.94996 15 7.94905C15 7.94813 15 7.94722 15 7.94631C15 7.94541 15 7.94451 15 7.94362C15 7.94272 15 7.94184 15 7.94095C15 7.94007 15 7.9392 15 7.93833C15 7.93746 15 7.93659 15 7.93573C15 7.93487 15 7.93402 15 7.93317C15 7.93233 15 7.93148 15 7.93065C15 7.92981 15 7.92898 15 7.92816C15 7.92733 15 7.92651 15 7.9257C15 7.92489 15 7.92408 15 7.92328C15 7.92248 15 7.92168 15 7.92089C15 7.9201 15 7.91931 15 7.91853C15 7.91775 15 7.91698 15 7.91621C15 7.91544 15 7.91468 15 7.91392C15 7.91316 15 7.91241 15 7.91166C15 7.91091 15 7.91017 15 7.90944C15 7.9087 15 7.90797 15 7.90724C15 7.90652 15 7.9058 15 7.90508C15 7.90437 15 7.90366 15 7.90296C15 7.90225 15 7.90155 15 7.90086C15 7.90017 15 7.89948 15 7.8988C15 7.89811 15 7.89744 15 7.89677C15 7.89609 15 7.89543 15 7.89477C15 7.8941 15 7.89345 15 7.8928C15 7.89215 15 7.8915 15 7.89086C15 7.89022 15 7.88958 15 7.88895C15 7.88832 15 7.8877 15 7.88708C15 7.88646 15 7.88584 15 7.88523C15 7.88462 15 7.88402 15 7.88342C15 7.88282 15 7.88223 15 7.88164C15 7.88105 15 7.88046 15 7.87988C15 7.8793 15 7.87873 15 7.87816C15 7.87759 15 7.87703 15 7.87647C15 7.87591 15 7.87535 15 7.8748C15 7.87425 15 7.87371 15 7.87317C15 7.87263 15 7.8721 15 7.87157C15 7.87104 15 7.87051 15 7.86999C15 7.86947 15 7.86896 15 7.86845C15 7.86794 15 7.86743 15 7.86693C15 7.86643 15 7.86593 15 7.86544C15 7.86495 15 7.86447 15 7.86399C15 7.8635 15 7.86303 15 7.86256C15 7.86208 15 7.86162 15 7.86115C15 7.86069 15 7.86023 15 7.85978C15 7.85933 15 7.85888 15 7.85844C15 7.85799 15 7.85755 15 7.85712C15 7.85668 15 7.85625 15 7.85583C15 7.8554 15 7.85498 15 7.85457C15 7.85415 15 7.85374 15 7.85333C15 7.85293 15 7.85252 15 7.85212C15 7.85173 15 7.85133 15 7.85094C15 7.85056 15 7.85017 15 7.84979C15 7.84941 15 7.84904 15 7.84867C15 7.84829 15 7.84793 15 7.84757C15 7.8472 15 7.84685 15 7.84649C15 7.84614 15 7.84579 15 7.84545C15 7.8451 15 7.84476 15 7.84443C15 7.84409 15 7.84376 15 7.84343C15 7.8431 15 7.84278 15 7.84246C15 7.84214 15 7.84183 15 7.84152C15 7.84121 15 7.8409 15 7.8406C15 7.8403 15 7.84 15 7.83971C15 7.83942 15 7.83913 15 7.83884C15 7.83856 15 7.83828 15 7.838C15 7.83773 15 7.83745 15 7.83719C15 7.83692 15 7.83665 15 7.83639C15 7.83613 15 7.83588 15 7.83563C15 7.83538 15 7.83513 15 7.83488C15 7.83464 15 7.8344 15 7.83417C15 7.83393 15 7.8337 15 7.83347C15 7.83324 15 7.83302 15 7.8328C15 7.83258 15 7.83237 15 7.83215C15 7.83194 15 7.83173 15 7.83153C15 7.83133 15 7.83113 15 7.83093C15 7.83073 15 7.83054 15 7.83035C15 7.83017 15 7.82998 15 7.8298C15 7.82962 15 7.82944 15 7.82927C15 7.8291 15 7.82893 15 7.82876C15 7.8286 15 7.82844 15 7.82828C15 7.82812 15 7.82797 15 7.82782C15 7.82767 15 7.82752 15 7.82738C15 7.82723 15 7.8271 15 7.82696C15 7.82682 15 7.82669 15 7.82656C15 7.82644 15 7.82631 15 7.82619C15 7.82607 15 7.82595 15 7.82584C15 7.82573 15 7.82561 15 7.82551C15 7.8254 15 7.8253 15 7.8252C15 7.8251 15 7.825 15 7.82491C15 7.82482 15 7.82473 15 7.82465C15 7.82456 15 7.82448 15 7.8244C15 7.82432 15 7.82425 15 7.82417C15 7.8241 15 7.82404 15 7.82397C15 7.82391 15 7.82384 15 7.82379C15 7.82373 15 7.82367 15 7.82362C15 7.82357 15 7.82352 15 7.82348C15 7.82344 15 7.82339 15 7.82336C15 7.82332 15 7.82328 15 7.82325C15 7.82322 15 7.82319 15 7.82317C15 7.82314 15 7.82312 15 7.8231C15 7.82309 15 7.82307 15 7.82306C15 7.82305 15 7.82304 15 7.82303C15 7.82303 14 7.82303 13 7.82303C13 7.82303 13 7.82303 13 7.82304C13 7.82305 13 7.82306 13 7.82307C13 7.82308 13 7.8231 13 7.82312C13 7.82314 13 7.82316 13 7.82319C13 7.82321 13 7.82324 13 7.82327C13 7.8233 13 7.82334 13 7.82338C13 7.82341 13 7.82345 13 7.8235C13 7.82354 13 7.82359 13 7.82364C13 7.82369 13 7.82374 13 7.82379C13 7.82385 13 7.82391 13 7.82397C13 7.82403 13 7.82409 13 7.82416C13 7.82423 13 7.8243 13 7.82437C13 7.82444 13 7.82452 13 7.8246C13 7.82467 13 7.82475 13 7.82484C13 7.82492 13 7.82501 13 7.8251C13 7.82519 13 7.82528 13 7.82537C13 7.82547 13 7.82557 13 7.82567C13 7.82577 13 7.82587 13 7.82597C13 7.82608 13 7.82619 13 7.8263C13 7.82641 13 7.82652 13 7.82664C13 7.82675 13 7.82687 13 7.82699C13 7.82712 13 7.82724 13 7.82737C13 7.82749 13 7.82762 13 7.82775C13 7.82788 13 7.82802 13 7.82815C13 7.82829 13 7.82843 13 7.82857C13 7.82871 13 7.82886 13 7.829C13 7.82915 13 7.8293 13 7.82945C13 7.8296 13 7.82975 13 7.82991C13 7.83007 13 7.83022 13 7.83039C13 7.83055 13 7.83071 13 7.83087C13 7.83104 13 7.83121 13 7.83138C13 7.83155 13 7.83172 13 7.8319C13 7.83207 13 7.83225 13 7.83243C13 7.83261 13 7.83279 13 7.83297C13 7.83316 13 7.83334 13 7.83353C13 7.83372 13 7.83391 13 7.8341C13 7.8343 13 7.83449 13 7.83469C13 7.83489 13 7.83508 13 7.83529C13 7.83549 13 7.83569 13 7.8359C13 7.8361 13 7.83631 13 7.83652C13 7.83673 13 7.83694 13 7.83716C13 7.83737 13 7.83759 13 7.8378C13 7.83802 13 7.83824 13 7.83846C13 7.83869 13 7.83891 13 7.83914C13 7.83936 13 7.83959 13 7.83982C13 7.84005 13 7.84028 13 7.84052C13 7.84075 13 7.84099 13 7.84122C13 7.84146 13 7.8417 13 7.84194C13 7.84218 13 7.84243 13 7.84267C13 7.84292 13 7.84317 13 7.84341C13 7.84366 13 7.84391 13 7.84417C13 7.84442 13 7.84467 13 7.84493C13 7.84518 13 7.84544 13 7.8457C13 7.84596 13 7.84622 13 7.84649C13 7.84675 13 7.84701 13 7.84728C13 7.84755 13 7.84781 13 7.84808C13 7.84835 13 7.84862 13 7.8489C13 7.84917 13 7.84945 13 7.84972C13 7.85 13 7.85028 13 7.85055C13 7.85083 13 7.85112 13 7.8514C13 7.85168 13 7.85196 13 7.85225C13 7.85254 13 7.85282 13 7.85311C13 7.8534 13 7.85369 13 7.85398C13 7.85427 13 7.85457 13 7.85486C13 7.85516 13 7.85545 13 7.85575C13 7.85605 13 7.85635 13 7.85665C13 7.85695 13 7.85725 13 7.85755C13 7.85785 13 7.85816 13 7.85846C13 7.85877 13 7.85908 13 7.85938C13 7.85969 13 7.86 13 7.86031C13 7.86062 13 7.86094 13 7.86125C13 7.86156 13 7.86188 13 7.86219C13 7.86251 13 7.86283 13 7.86314C13 7.86346 13 7.86378 13 7.8641C13 7.86442 13 7.86475 13 7.86507C13 7.86539 13 7.86572 13 7.86604C13 7.86637 13 7.86669 13 7.86702C13 7.86735 13 7.86768 13 7.86801C13 7.86834 13 7.86867 13 7.869C13 7.86933 13 7.86966 13 7.87C13 7.87033 13 7.87067 13 7.871C13 7.87134 13 7.87168 13 7.87201C13 7.87235 13 7.87269 13 7.87303C13 7.87337 13 7.87371 13 7.87405C13 7.87439 13 7.87474 13 7.87508C13 7.87542 13 7.87577 13 7.87611C13 7.87646 13 7.8768 13 7.87715C13 7.8775 13 7.87785 13 7.8782C13 7.87854 13 7.87889 13 7.87924C13 7.87959 13 7.87994 13 7.8803C13 7.88065 13 7.881 13 7.88135C13 7.88171 13 7.88206 13 7.88242C13 7.88277 13 7.88312 13 7.88348C13 7.88384 13 7.88419 13 7.88455C13 7.88491 13 7.88527 13 7.88562C13 7.88598 13 7.88634 13 7.8867C13 7.88706 13 7.88742 13 7.88778C13 7.88814 13 7.88851 13 7.88887C13 7.88923 13 7.88959 13 7.88996C13 7.89032 13 7.89068 13 7.89105C13 7.89141 13 7.89178 13 7.89214C13 7.89251 13 7.89287 13 7.89324C13 7.8936 13 7.89397 13 7.89434C13 7.8947 13 7.89507 13 7.89544C13 7.89581 13 7.89617 13 7.89654C13 7.89691 13 7.89728 13 7.89765C13 7.89802 13 7.89839 13 7.89876C13 7.89913 13 7.8995 13 7.89987C13 7.90024 13 7.90061 13 7.90098C13 7.90135 13 7.90172 13 7.90209C13 7.90246 13 7.90283 13 7.90321C13 7.90358 13 7.90395 13 7.90432C13 7.90469 13 7.90507 13 7.90544C13 7.90581 13 7.90618 13 7.90656C13 7.90693 13 7.9073 13 7.90767C13 7.90805 13 7.90842 13 7.90879C13 7.90916 13 7.90954 13 7.90991C13 7.91028 13 7.91066 13 7.91103C13 7.9114 13 7.91178 13 7.91215C13 7.91252 13 7.9129 13 7.91327C13 7.91364 13 7.91402 13 7.91439C13 7.91476 13 7.91513 13 7.91551C13 7.91588 13 7.91625 13 7.91663C13 7.917 13 7.91737 13 7.91774C13 7.91812 13 7.91849 13 7.91886C13 7.91923 13 7.9196 13 7.91997C13 7.92035 13 7.92072 13 7.92109C13 7.92146 13 7.92183 13 7.9222C13 7.92257 13 7.92294 13 7.92331C13 7.92368 13 7.92405 13 7.92442C13 7.92479 13 7.92516 13 7.92553C13 7.9259 13 7.92627 13 7.92664C13 7.927 13 7.92737 13 7.92774C13 7.92811 13 7.92847 13 7.92884C13 7.92921 13 7.92957 13 7.92994C13 7.93031 13 7.93067 13 7.93104C13 7.9314 13 7.93177 13 7.93213C13 7.93249 13 7.93286 13 7.93322C13 7.93358 13 7.93395 13 7.93431C13 7.93467 13 7.93503 13 7.93539C13 7.93575 13 7.93611 13 7.93647C13 7.93683 13 7.93719 13 7.93755C13 7.93791 13 7.93827 13 7.93862C13 7.93898 13 7.93934 13 7.93969C13 7.94005 13 7.9404 13 7.94076C13 7.94111 13 7.94147 13 7.94182C13 7.94217 13 7.94252 13 7.94288C13 7.94323 13 7.94358 13 7.94393C13 7.94428 13 7.94463 13 7.94498C13 7.94532 13 7.94567 13 7.94602C13 7.94636 13 7.94671 13 7.94706C13 7.9474 13 7.94774 13 7.94809C13 7.94843 13 7.94877 13 7.94911C13 7.94946 13 7.9498 13 7.95014C13 7.95048 13 7.95081 13 7.95115C13 7.95149 13 7.95183 13 7.95216C13 7.9525 13 7.95283 13 7.95317C13 7.9535 13 7.95383 13 7.95416C13 7.9545 13 7.95483 13 7.95516C13 7.95548 13 7.95581 13 7.95614C13 7.95647 13 7.95679 13 7.95712C13 7.95744 13 7.95777 13 7.95809C13 7.95841 13 7.95874 13 7.95906C13 7.95938 13 7.9597 13 7.96001C13 7.96033 13 7.96065 13 7.96096C13 7.96128 13 7.96159 13 7.96191C13 7.96222 13 7.96253 13 7.96284C13 7.96315 13 7.96346 13 7.96377C13 7.96408 13 7.96438 13 7.96469C13 7.965 13 7.9653 13 7.9656C13 7.9659 13 7.96621 13 7.96651C13 7.9668 13 7.9671 13 7.9674C13 7.9677 13 7.96799 13 7.96829C13 7.96858 13 7.96887 13 7.96917C13 7.96946 13 7.96975 13 7.97003C13 7.97032 13 7.97061 13 7.97089C13 7.97118 13 7.97146 13 7.97175C13 7.97203 13 7.97231 13 7.97259C13 7.97287 13 7.97314 13 7.97342C13 7.97369 13 7.97397 13 7.97424C13 7.97451 13 7.97478 13 7.97505C13 7.97532 13 7.97559 13 7.97586C13 7.97612 13 7.97639 13 7.97665C13 7.97691 13 7.97717 13 7.97743C13 7.97769 13 7.97795 13 7.9782C13 7.97846 13 7.97871 13 7.97896C13 7.97922 13 7.97947 13 7.97972C13 7.97996 13 7.98021 13 7.98045C13 7.9807 13 7.98094 13 7.98118C13 7.98142 13 7.98166 13 7.9819C13 7.98214 13 7.98237 13 7.98261C13 7.98284 13 7.98307 13 7.9833C13 7.98353 13 7.98376 13 7.98398C13 7.98421 13 7.98443 13 7.98465C13 7.98488 13 7.9851 13 7.98531C13 7.98553 13 7.98575 13 7.98596C13 7.98617 13 7.98638 13 7.98659C13 7.9868 13 7.98701 13 7.98722C13 7.98742 13 7.98762 13 7.98782C13 7.98802 13 7.98822 13 7.98842C13 7.98862 13 7.98881 13 7.989C13 7.9892 13 7.98939 13 7.98957C13 7.98976 13 7.98995 13 7.99013C13 7.99031 13 7.99049 13 7.99067C13 7.99085 13 7.99103 13 7.9912C13 7.99138 13 7.99155 13 7.99172C13 7.99189 13 7.99206 13 7.99222C13 7.99239 13 7.99255 13 7.99271C13 7.99287 13 7.99303 13 7.99318C13 7.99334 13 7.99349 13 7.99364C13 7.99379 13 7.99394 13 7.99409C13 7.99423 13 7.99437 13 7.99451C13 7.99466 13 7.99479 13 7.99493C13 7.99507 13 7.9952 13 7.99533C13 7.99546 13 7.99559 13 7.99571C13 7.99584 13 7.99596 13 7.99608C13 7.9962 13 7.99632 13 7.99644C13 7.99655 13 7.99666 13 7.99677C13 7.99688 13 7.99699 13 7.9971C13 7.9972 13 7.9973 13 7.9974C13 7.9975 13 7.9976 13 7.99769C13 7.99779 13 7.99788 13 7.99797C13 7.99805 13 7.99814 13 7.99822C13 7.99831 13 7.99839 13 7.99846C13 7.99854 13 7.99862 13 7.99869C13 7.99876 13 7.99883 13 7.99889C13 7.99896 13 7.99902 13 7.99908C13 7.99914 13 7.9992 13 7.99926C13 7.99931 13 7.99936 13 7.99941C13 7.99946 13 7.9995 13 7.99955C13 7.99959 13 7.99963 13 7.99967C13 7.9997 13 7.99974 13 7.99977C13 7.9998 13 7.99983 13 7.99985C13 7.99988 13 7.9999 13 7.99992C13 7.99994 13 7.99995 13 7.99996C13 7.99998 13 7.99999 13 7.99999C13 8 13 8 14 8C15 8 15 8 15 7.99999C15 7.99999 15 7.99998 15 7.99996C15 7.99995 15 7.99994 15 7.99992C15 7.9999 15 7.99988 15 7.99985C15 7.99983 15 7.9998 15 7.99977C15 7.99974 15 7.9997 15 7.99967C15 7.99963 15 7.99959 15 7.99955C15 7.9995 15 7.99946 15 7.99941C15 7.99936 15 7.99931 15 7.99926C15 7.9992 15 7.99914 15 7.99908C15 7.99902 15 7.99896 15 7.99889C15 7.99883 15 7.99876 15 7.99869C15 7.99862 15 7.99854 15 7.99846C15 7.99839 15 7.99831 15 7.99822C15 7.99814 15 7.99805 15 7.99797C15 7.99788 15 7.99779 15 7.99769C15 7.9976 15 7.9975 15 7.9974C15 7.9973 15 7.9972 15 7.9971C15 7.99699 15 7.99688 15 7.99677C15 7.99666 15 7.99655 15 7.99644C15 7.99632 15 7.9962 15 7.99608C15 7.99596 15 7.99584 15 7.99571C15 7.99559 15 7.99546 15 7.99533C15 7.9952 15 7.99507 15 7.99493C15 7.99479 15 7.99466 15 7.99451C15 7.99437 15 7.99423 15 7.99409C15 7.99394 15 7.99379 15 7.99364C15 7.99349 15 7.99334 15 7.99318C15 7.99303 15 7.99287 15 7.99271C15 7.99255 15 7.99239 15 7.99222C15 7.99206 15 7.99189 15 7.99172C15 7.99155 15 7.99138 15 7.9912C15 7.99103 15 7.99085 15 7.99067C15 7.99049 15 7.99031 15 7.99013C15 7.98995 15 7.98976 15 7.98957C15 7.98939 15 7.9892 15 7.989C15 7.98881 15 7.98862 15 7.98842C15 7.98822 15 7.98802 15 7.98782C15 7.98762 15 7.98742 15 7.98722C15 7.98701 15 7.9868 15 7.98659C15 7.98638 15 7.98617 15 7.98596C15 7.98575 15 7.98553 15 7.98531C15 7.9851 15 7.98488 15 7.98465C15 7.98443 15 7.98421 15 7.98398C15 7.98376 15 7.98353 15 7.9833C15 7.98307 15 7.98284 15 7.98261C15 7.98237 15 7.98214 15 7.9819C15 7.98166 15 7.98142 15 7.98118C15 7.98094 15 7.9807 15 7.98045C15 7.98021 15 7.97996 15 7.97972C15 7.97947 15 7.97922 15 7.97896C15 7.97871 15 7.97846 15 7.9782C15 7.97795 15 7.97769 15 7.97743C15 7.97717 15 7.97691 15 7.97665C15 7.97639 15 7.97612 15 7.97586C15 7.97559 15 7.97532 15 7.97505C15 7.97478 15 7.97451 15 7.97424C15 7.97397 15 7.97369 15 7.97342C15 7.97314 15 7.97287 15 7.97259C15 7.97231 15 7.97203 15 7.97175C15 7.97146 15 7.97118 15 7.97089C15 7.97061 15 7.97032 15 7.97003C15 7.96975 15 7.96946 15 7.96917C15 7.96887 15 7.96858 15 7.96829C15 7.96799 15 7.9677 15 7.9674C15 7.9671 15 7.9668 15 7.96651C15 7.96621 15 7.9659 15 7.9656C15 7.9653 15 7.965 15 7.96469C15 7.96438 15 7.96408 15 7.96377C15 7.96346 15 7.96315 15 7.96284C15 7.96253 15 7.96222 15 7.96191C15 7.96159 15 7.96128 15 7.96096C15 7.96065 15 7.96033 15 7.96001C15 7.9597 15 7.95938 15 7.95906C15 7.95874 15 7.95841 15 7.95809C15 7.95777 15 7.95744 15 7.95712C15 7.95679 15 7.95647 15 7.95614C15 7.95581 15 7.95548 15 7.95516C15 7.95483 15 7.9545 15 7.95416C15 7.95383 15 7.9535 15 7.95317C15 7.95283 15 7.9525 15 7.95216C15 7.95183 15 7.95149 15 7.95115C15 7.95081 15 7.95048 15 7.95014C15 7.9498 15 7.94946 15 7.94911C15 7.94877 15 7.94843 15 7.94809C15 7.94774 15 7.9474 15 7.94706C15 7.94671 15 7.94636 15 7.94602C15 7.94567 15 7.94532 15 7.94498C15 7.94463 15 7.94428 15 7.94393C15 7.94358 15 7.94323 15 7.94288C15 7.94252 15 7.94217 15 7.94182C15 7.94147 15 7.94111 15 7.94076C15 7.9404 15 7.94005 15 7.93969C15 7.93934 15 7.93898 15 7.93862C15 7.93827 15 7.93791 15 7.93755C15 7.93719 15 7.93683 15 7.93647C15 7.93611 15 7.93575 15 7.93539C15 7.93503 15 7.93467 15 7.93431C15 7.93395 15 7.93358 15 7.93322C15 7.93286 15 7.93249 15 7.93213C15 7.93177 15 7.9314 15 7.93104C15 7.93067 15 7.93031 15 7.92994C15 7.92957 15 7.92921 15 7.92884C15 7.92847 15 7.92811 15 7.92774C15 7.92737 15 7.927 15 7.92664C15 7.92627 15 7.9259 15 7.92553C15 7.92516 15 7.92479 15 7.92442C15 7.92405 15 7.92368 15 7.92331C15 7.92294 15 7.92257 15 7.9222C15 7.92183 15 7.92146 15 7.92109C15 7.92072 15 7.92035 15 7.91997C15 7.9196 15 7.91923 15 7.91886C15 7.91849 15 7.91812 15 7.91774C15 7.91737 15 7.917 15 7.91663C15 7.91625 15 7.91588 15 7.91551C15 7.91513 15 7.91476 15 7.91439C15 7.91402 15 7.91364 15 7.91327C15 7.9129 15 7.91252 15 7.91215C15 7.91178 15 7.9114 15 7.91103C15 7.91066 15 7.91028 15 7.90991C15 7.90954 15 7.90916 15 7.90879C15 7.90842 15 7.90805 15 7.90767C15 7.9073 15 7.90693 15 7.90656C15 7.90618 15 7.90581 15 7.90544C15 7.90507 15 7.90469 15 7.90432C15 7.90395 15 7.90358 15 7.90321C15 7.90283 15 7.90246 15 7.90209C15 7.90172 15 7.90135 15 7.90098C15 7.90061 15 7.90024 15 7.89987C15 7.8995 15 7.89913 15 7.89876C15 7.89839 15 7.89802 15 7.89765C15 7.89728 15 7.89691 15 7.89654C15 7.89617 15 7.89581 15 7.89544C15 7.89507 15 7.8947 15 7.89434C15 7.89397 15 7.8936 15 7.89324C15 7.89287 15 7.89251 15 7.89214C15 7.89178 15 7.89141 15 7.89105C15 7.89068 15 7.89032 15 7.88996C15 7.88959 15 7.88923 15 7.88887C15 7.88851 15 7.88814 15 7.88778C15 7.88742 15 7.88706 15 7.8867C15 7.88634 15 7.88598 15 7.88562C15 7.88527 15 7.88491 15 7.88455C15 7.88419 15 7.88384 15 7.88348C15 7.88312 15 7.88277 15 7.88242C15 7.88206 15 7.88171 15 7.88135C15 7.881 15 7.88065 15 7.8803C15 7.87994 15 7.87959 15 7.87924C15 7.87889 15 7.87854 15 7.8782C15 7.87785 15 7.8775 15 7.87715C15 7.8768 15 7.87646 15 7.87611C15 7.87577 15 7.87542 15 7.87508C15 7.87474 15 7.87439 15 7.87405C15 7.87371 15 7.87337 15 7.87303C15 7.87269 15 7.87235 15 7.87201C15 7.87168 15 7.87134 15 7.871C15 7.87067 15 7.87033 15 7.87C15 7.86966 15 7.86933 15 7.869C15 7.86867 15 7.86834 15 7.86801C15 7.86768 15 7.86735 15 7.86702C15 7.86669 15 7.86637 15 7.86604C15 7.86572 15 7.86539 15 7.86507C15 7.86475 15 7.86442 15 7.8641C15 7.86378 15 7.86346 15 7.86314C15 7.86283 15 7.86251 15 7.86219C15 7.86188 15 7.86156 15 7.86125C15 7.86094 15 7.86062 15 7.86031C15 7.86 15 7.85969 15 7.85938C15 7.85908 15 7.85877 15 7.85846C15 7.85816 15 7.85785 15 7.85755C15 7.85725 15 7.85695 15 7.85665C15 7.85635 15 7.85605 15 7.85575C15 7.85545 15 7.85516 15 7.85486C15 7.85457 15 7.85427 15 7.85398C15 7.85369 15 7.8534 15 7.85311C15 7.85282 15 7.85254 15 7.85225C15 7.85196 15 7.85168 15 7.8514C15 7.85112 15 7.85083 15 7.85055C15 7.85028 15 7.85 15 7.84972C15 7.84945 15 7.84917 15 7.8489C15 7.84862 15 7.84835 15 7.84808C15 7.84781 15 7.84755 15 7.84728C15 7.84701 15 7.84675 15 7.84649C15 7.84622 15 7.84596 15 7.8457C15 7.84544 15 7.84518 15 7.84493C15 7.84467 15 7.84442 15 7.84417C15 7.84391 15 7.84366 15 7.84341C15 7.84317 15 7.84292 15 7.84267C15 7.84243 15 7.84218 15 7.84194C15 7.8417 15 7.84146 15 7.84122C15 7.84099 15 7.84075 15 7.84052C15 7.84028 15 7.84005 15 7.83982C15 7.83959 15 7.83936 15 7.83914C15 7.83891 15 7.83869 15 7.83846C15 7.83824 15 7.83802 15 7.8378C15 7.83759 15 7.83737 15 7.83716C15 7.83694 15 7.83673 15 7.83652C15 7.83631 15 7.8361 15 7.8359C15 7.83569 15 7.83549 15 7.83529C15 7.83508 15 7.83489 15 7.83469C15 7.83449 15 7.8343 15 7.8341C15 7.83391 15 7.83372 15 7.83353C15 7.83334 15 7.83316 15 7.83297C15 7.83279 15 7.83261 15 7.83243C15 7.83225 15 7.83207 15 7.8319C15 7.83172 15 7.83155 15 7.83138C15 7.83121 15 7.83104 15 7.83087C15 7.83071 15 7.83055 15 7.83039C15 7.83022 15 7.83007 15 7.82991C15 7.82975 15 7.8296 15 7.82945C15 7.8293 15 7.82915 15 7.829C15 7.82886 15 7.82871 15 7.82857C15 7.82843 15 7.82829 15 7.82815C15 7.82802 15 7.82788 15 7.82775C15 7.82762 15 7.82749 15 7.82737C15 7.82724 15 7.82712 15 7.82699C15 7.82687 15 7.82675 15 7.82664C15 7.82652 15 7.82641 15 7.8263C15 7.82619 15 7.82608 15 7.82597C15 7.82587 15 7.82577 15 7.82567C15 7.82557 15 7.82547 15 7.82537C15 7.82528 15 7.82519 15 7.8251C15 7.82501 15 7.82492 15 7.82484C15 7.82475 15 7.82467 15 7.8246C15 7.82452 15 7.82444 15 7.82437C15 7.8243 15 7.82423 15 7.82416C15 7.82409 15 7.82403 15 7.82397C15 7.82391 15 7.82385 15 7.82379C15 7.82374 15 7.82369 15 7.82364C15 7.82359 15 7.82354 15 7.8235C15 7.82345 15 7.82341 15 7.82338C15 7.82334 15 7.8233 15 7.82327C15 7.82324 15 7.82321 15 7.82319C15 7.82316 15 7.82314 15 7.82312C15 7.8231 15 7.82308 15 7.82307C15 7.82306 15 7.82305 15 7.82304C15 7.82303 15 7.82303 15 7.82303C14 7.82303 13 7.82303 13 7.82303C13 7.82304 13 7.82305 13 7.82306C13 7.82307 13 7.82309 13 7.8231C13 7.82312 13 7.82314 13 7.82317C13 7.82319 13 7.82322 13 7.82325C13 7.82328 13 7.82332 13 7.82336C13 7.82339 13 7.82344 13 7.82348C13 7.82352 13 7.82357 13 7.82362C13 7.82367 13 7.82373 13 7.82379C13 7.82384 13 7.82391 13 7.82397C13 7.82404 13 7.8241 13 7.82417C13 7.82425 13 7.82432 13 7.8244C13 7.82448 13 7.82456 13 7.82465C13 7.82473 13 7.82482 13 7.82491C13 7.825 13 7.8251 13 7.8252C13 7.8253 13 7.8254 13 7.82551C13 7.82561 13 7.82573 13 7.82584C13 7.82595 13 7.82607 13 7.82619C13 7.82631 13 7.82644 13 7.82656C13 7.82669 13 7.82682 13 7.82696C13 7.8271 13 7.82723 13 7.82738C13 7.82752 13 7.82767 13 7.82782C13 7.82797 13 7.82812 13 7.82828C13 7.82844 13 7.8286 13 7.82876C13 7.82893 13 7.8291 13 7.82927C13 7.82944 13 7.82962 13 7.8298C13 7.82998 13 7.83017 13 7.83035C13 7.83054 13 7.83073 13 7.83093C13 7.83113 13 7.83133 13 7.83153C13 7.83173 13 7.83194 13 7.83215C13 7.83237 13 7.83258 13 7.8328C13 7.83302 13 7.83324 13 7.83347C13 7.8337 13 7.83393 13 7.83417C13 7.8344 13 7.83464 13 7.83488C13 7.83513 13 7.83538 13 7.83563C13 7.83588 13 7.83613 13 7.83639C13 7.83665 13 7.83692 13 7.83719C13 7.83745 13 7.83773 13 7.838C13 7.83828 13 7.83856 13 7.83884C13 7.83913 13 7.83942 13 7.83971C13 7.84 13 7.8403 13 7.8406C13 7.8409 13 7.84121 13 7.84152C13 7.84183 13 7.84214 13 7.84246C13 7.84278 13 7.8431 13 7.84343C13 7.84376 13 7.84409 13 7.84443C13 7.84476 13 7.8451 13 7.84545C13 7.84579 13 7.84614 13 7.84649C13 7.84685 13 7.8472 13 7.84757C13 7.84793 13 7.84829 13 7.84867C13 7.84904 13 7.84941 13 7.84979C13 7.85017 13 7.85056 13 7.85094C13 7.85133 13 7.85173 13 7.85212C13 7.85252 13 7.85293 13 7.85333C13 7.85374 13 7.85415 13 7.85457C13 7.85498 13 7.8554 13 7.85583C13 7.85625 13 7.85668 13 7.85712C13 7.85755 13 7.85799 13 7.85844C13 7.85888 13 7.85933 13 7.85978C13 7.86023 13 7.86069 13 7.86115C13 7.86162 13 7.86208 13 7.86256C13 7.86303 13 7.8635 13 7.86399C13 7.86447 13 7.86495 13 7.86544C13 7.86593 13 7.86643 13 7.86693C13 7.86743 13 7.86794 13 7.86845C13 7.86896 13 7.86947 13 7.86999C13 7.87051 13 7.87104 13 7.87157C13 7.8721 13 7.87263 13 7.87317C13 7.87371 13 7.87425 13 7.8748C13 7.87535 13 7.87591 13 7.87647C13 7.87703 13 7.87759 13 7.87816C13 7.87873 13 7.8793 13 7.87988C13 7.88046 13 7.88105 13 7.88164C13 7.88223 13 7.88282 13 7.88342C13 7.88402 13 7.88462 13 7.88523C13 7.88584 13 7.88646 13 7.88708C13 7.8877 13 7.88832 13 7.88895C13 7.88958 13 7.89022 13 7.89086C13 7.8915 13 7.89215 13 7.8928C13 7.89345 13 7.8941 13 7.89477C13 7.89543 13 7.89609 13 7.89677C13 7.89744 13 7.89811 13 7.8988C13 7.89948 13 7.90017 13 7.90086C13 7.90155 13 7.90225 13 7.90296C13 7.90366 13 7.90437 13 7.90508C13 7.9058 13 7.90652 13 7.90724C13 7.90797 13 7.9087 13 7.90944C13 7.91017 13 7.91091 13 7.91166C13 7.91241 13 7.91316 13 7.91392C13 7.91468 13 7.91544 13 7.91621C13 7.91698 13 7.91775 13 7.91853C13 7.91931 13 7.9201 13 7.92089C13 7.92168 13 7.92248 13 7.92328C13 7.92408 13 7.92489 13 7.9257C13 7.92651 13 7.92733 13 7.92816C13 7.92898 13 7.92981 13 7.93065C13 7.93148 13 7.93233 13 7.93317C13 7.93402 13 7.93487 13 7.93573C13 7.93659 13 7.93746 13 7.93833C13 7.9392 13 7.94007 13 7.94095C13 7.94184 13 7.94272 13 7.94362C13 7.94451 13 7.94541 13 7.94631C13 7.94722 13 7.94813 13 7.94905C13 7.94996 13 7.95088 13 7.95181C13 7.95274 13 7.95368 13 7.95462C13 7.95556 13 7.9565 13 7.95745C13 7.95841 13 7.95936 13 7.96033C13 7.96129 13 7.96226 13 7.96324C13 7.96421 13 7.96519 13 7.96618C13 7.96717 13 7.96816 13 7.96916C13 7.97016 13 7.97117 13 7.97218C13 7.97319 13 7.97421 13 7.97523C13 7.97626 13 7.97729 13 7.97832C13 7.97936 13 7.9804 13 7.98145C13 7.9825 13 7.98355 13 7.98462C13 7.98568 13 7.98674 13 7.98782C13 7.98889 13 7.98997 13 7.99105C13 7.99214 13 7.99323 13 7.99433C13 7.99543 13 7.99653 13 7.99764C13 7.99875 13 7.99987 13 8.00099C13 8.00212 13 8.00325 13 8.00438C13 8.00552 13 8.00666 13 8.00781C13 8.00896 13 8.01011 13 8.01127C13 8.01243 13 8.0136 13 8.01478C13 8.01595 13 8.01713 13 8.01832C13 8.0195 13 8.0207 13 8.0219C13 8.0231 13 8.0243 13 8.02552C13 8.02673 13 8.02795 13 8.02917C13 8.0304 13 8.03163 13 8.03287C13 8.03411 13 8.03535 13 8.03661C13 8.03786 13 8.03912 13 8.04038C13 8.04165 13 8.04292 13 8.0442C13 8.04547 13 8.04676 13 8.04805C13 8.04934 13 8.05064 13 8.05194C13 8.05325 13 8.05456 13 8.05588C13 8.0572 13 8.05852 13 8.05985C13 8.06119 13 8.06252 13 8.06387C13 8.06521 13 8.06657 13 8.06792C13 8.06928 13 8.07065 13 8.07202C13 8.07339 13 8.07477 13 8.07616C13 8.07754 13 8.07894 13 8.08034C13 8.08174 13 8.08314 13 8.08456C13 8.08597 13 8.08739 13 8.08882C13 8.09024 13 8.09168 13 8.09312C13 8.09456 13 8.09601 13 8.09746C13 8.09892 13 8.10038 13 8.10185C13 8.10332 13 8.10479 13 8.10627C13 8.10776 13 8.10925 13 8.11074C13 8.11224 13 8.11375 13 8.11526C13 8.11677 13 8.11829 13 8.11981C13 8.12134 13 8.12287 13 8.12441C13 8.12595 13 8.12749 13 8.12905C13 8.1306 13 8.13216 13 8.13373C13 8.1353 13 8.13687 13 8.13845C13 8.14004 13 8.14163 13 8.14322C13 8.14482 13 8.14642 13 8.14804C13 8.14965 13 8.15127 13 8.15289C13 8.15452 13 8.15615 13 8.15779C13 8.15943 13 8.16108 13 8.16273C13 8.16439 13 8.16605 13 8.16772C13 8.16939 13 8.17107 13 8.17275C13 8.17444 13 8.17613 13 8.17783C13 8.17953 13 8.18124 13 8.18295C13 8.18466 13 8.18639 13 8.18811C13 8.18984 13 8.19158 13 8.19332C13 8.19507 13 8.19682 13 8.19858C13 8.20034 13 8.2021 13 8.20388C13 8.20565 13 8.20743 13 8.20922C13 8.21101 13 8.21281 13 8.21461C13 8.21642 13 8.21823 13 8.22005C13 8.22187 13 8.2237 13 8.22553C13 8.22737 13 8.22921 13 8.23106C13 8.23291 13 8.23477 13 8.23664C13 8.2385 13 8.24037 13 8.24226C13 8.24414 13 8.24603 13 8.24792C13 8.24982 13 8.25172 13 8.25364C13 8.25555 13 8.25747 13 8.2594C13 8.26132 13 8.26326 13 8.2652C13 8.26715 13 8.2691 13 8.27106C13 8.27302 13 8.27498 13 8.27696C13 8.27893 13 8.28092 13 8.28291C13 8.2849 13 8.2869 13 8.2889C13 8.29091 13 8.29292 13 8.29495C13 8.29697 13 8.299 13 8.30104C13 8.30308 13 8.30512 13 8.30718C13 8.30923 13 8.3113 13 8.31337C13 8.31544 13 8.31752 13 8.3196C13 8.32169 13 8.32378 13 8.32589C13 8.32799 13 8.3301 13 8.33222C13 8.33434 13 8.33647 13 8.3386C13 8.34074 13 8.34288 13 8.34503C13 8.34719 13 8.34935 13 8.35151C13 8.35368 13 8.35586 13 8.35804C13 8.36023 13 8.36242 13 8.36462C13 8.36682 13 8.36903 13 8.37125C13 8.37347 13 8.37569 13 8.37793C13 8.38016 13 8.38241 13 8.38466C13 8.38691 13 8.38917 13 8.39143C13 8.3937 13 8.39598 13 8.39826C13 8.40055 13 8.40284 13 8.40514C13 8.40744 13 8.40975 13 8.41207C13 8.41439 13 8.41672 13 8.41905C13 8.42139 13 8.42373 13 8.42608C13 8.42843 13 8.4308 13 8.43316C13 8.43553 13 8.43791 13 8.4403C13 8.44268 13 8.44508 13 8.44748C13 8.44989 13 8.4523 13 8.45472C13 8.45714 13 8.45957 13 8.46201C13 8.46444 13 8.46689 13 8.46935C13 8.4718 13 8.47426 13 8.47674C13 8.47921 13 8.48169 13 8.48418C13 8.48667 13 8.48917 13 8.49168C13 8.49418 13 8.4967 13 8.49923C13 8.50175 13 8.50428 13 8.50683C13 8.50937 13 8.51192 13 8.51448C13 8.51704 13 8.51961 13 8.52219C13 8.52476 13 8.52735 13 8.52995C13 8.53254 13 8.53515 13 8.53776C13 8.54037 13 8.543 13 8.54563C13 8.54826 13 8.5509 13 8.55355C13 8.5562 13 8.55885 13 8.56152C13 8.56419 13 8.56686 13 8.56955C13 8.57223 13 8.57493 13 8.57763C13 8.58033 13 8.58305 13 8.58577C13 8.58849 13 8.59122 13 8.59396C13 8.5967 13 8.59944 13 8.6022C13 8.60496 13 8.60773 13 8.6105C13 8.61328 13 8.61606 13 8.61886C13 8.62165 13 8.62445 13 8.62727C13 8.63008 13 8.6329 13 8.63573C13 8.63856 13 8.6414 13 8.64425C13 8.6471 13 8.64996 13 8.65283C13 8.65569 13 8.65857 13 8.66146C13 8.66434 13 8.66724 13 8.67014C13 8.67305 13 8.67596 13 8.67889C13 8.68181 13 8.68474 13 8.68769C13 8.69063 13 8.69358 13 8.69654C13 8.6995 13 8.70247 13 8.70545C13 8.70843 13 8.71142 13 8.71442C13 8.71742 13 8.72043 13 8.72345C13 8.72646 13 8.72949 13 8.73253C13 8.73557 13 8.73861 13 8.74167C13 8.74472 13 8.74779 13 8.75086C13 8.75394 13 8.75702 13 8.76012C13 8.76321 13 8.76632 13 8.76943C13 8.77254 13 8.77567 13 8.7788C13 8.78193 13 8.78507 13 8.78823C13 8.79138 13 8.79454 13 8.79771C13 8.80088 13 8.80406 13 8.80725C13 8.81044 13 8.81365 13 8.81686C13 8.82007 13 8.82329 13 8.82652C13 8.82975 13 8.83298 13 8.83623C13 8.83948 13 8.84274 13 8.84601C13 8.84928 13 8.85256 13 8.85585C13 8.85914 13 8.86244 13 8.86574C13 8.86905 13 8.87237 13 8.8757C13 8.87903 13 8.88237 13 8.88571C13 8.88906 13 8.89242 13 8.89579C13 8.89916 13 8.90253 13 8.90592C13 8.90931 13 8.91271 13 8.91612C13 8.91952 13 8.92294 13 8.92637C13 8.9298 13 8.93324 13 8.93668C13 8.94013 13 8.94359 13 8.94706C13 8.95053 13 8.95401 13 8.95749C13 8.96098 13 8.96448 13 8.96799C13 8.9715 13 8.97502 13 8.97855C13 8.98208 13 8.98562 13 8.98917C13 8.99271 13 8.99627 13 8.99984C13 9.00341 13 9.00699 13 9.01059C13 9.01418 13 9.01778 13 9.02139C13 9.025 13 9.02862 13 9.03225C13 9.03588 13 9.03952 13 9.04318C13 9.04683 13 9.05049 13 9.05416C13 9.05784 13 9.06152 13 9.06521C13 9.06891 13 9.07261 13 9.07633C13 9.08004 13 9.08377 13 9.0875H15ZM15 8C15 6.09128 14.2996 4.42914 12.9349 3.06439L11.5206 4.47861C12.5189 5.47686 13 6.63372 13 8H15ZM12.9349 3.06439C11.5705 1.70005 9.90859 1 8 1V3C9.36641 3 10.523 3.48095 11.5206 4.47861L12.9349 3.06439ZM8 1C6.09142 1 4.42932 1.70004 3.06454 3.06424L4.47846 4.47876C5.47668 3.48096 6.63358 3 8 3V1ZM3.06424 3.06454C1.70004 4.42933 1 6.09142 1 8H3C3 6.63358 3.48096 5.47668 4.47876 4.47846L3.06424 3.06454ZM1 8C1 9.9086 1.70005 11.5705 3.06439 12.9349L4.47861 11.5206C3.48095 10.523 3 9.36641 3 8H1ZM3.06439 12.9349C4.42914 14.2996 6.09128 15 8 15V13C6.63372 13 5.47686 12.5189 4.47861 11.5206L3.06439 12.9349ZM8 15H11V13H8V15ZM13 9.0875C13 9.3812 12.9267 9.53586 12.8672 9.62126C12.8017 9.71518 12.7036 9.79421 12.5686 9.85876C12.4308 9.92468 12.2801 9.96265 12.1551 9.98258C12.095 9.99215 12.0471 9.99659 12.0178 9.99859C12.0033 9.99958 11.994 9.99993 11.9906 10C11.9889 10.0001 11.9888 10.0001 11.9903 10.0001C11.9911 10 11.9923 10 11.9939 10C11.9947 10 11.9956 10 11.9966 10C11.9971 10 11.9977 10 11.9982 10C11.9985 10 11.9989 10 11.9991 10C11.9995 10 12 10 12 11C12 12 12.0005 12 12.001 12C12.0011 12 12.0016 12 12.002 12C12.0027 12 12.0034 12 12.0041 12C12.0056 12 12.0073 12 12.009 12C12.0126 11.9999 12.0166 11.9999 12.0212 11.9998C12.0302 11.9997 12.0413 11.9994 12.0543 11.999C12.0802 11.9982 12.1139 11.9967 12.1541 11.9939C12.2342 11.9885 12.3425 11.978 12.4699 11.9577C12.7199 11.9178 13.0692 11.8363 13.4314 11.6631C13.7964 11.4886 14.1983 11.209 14.5078 10.7651C14.8233 10.3126 15 9.75005 15 9.0875H13ZM12 11C12 10 12.0005 10 12.0009 10C12.0011 10 12.0015 10 12.0018 10C12.0023 10 12.0029 10 12.0034 10C12.0044 10 12.0053 10 12.0061 10C12.0077 10 12.0089 10 12.0097 10.0001C12.0112 10.0001 12.0111 10.0001 12.0094 10C12.006 9.99993 11.9967 9.99958 11.9822 9.99859C11.9529 9.99659 11.905 9.99215 11.8449 9.98258C11.7199 9.96265 11.5692 9.92468 11.4314 9.85876C11.2964 9.79421 11.1983 9.71518 11.1328 9.62126C11.0733 9.53586 11 9.3812 11 9.0875H9C9 9.75005 9.17672 10.3126 9.49218 10.7651C9.8017 11.209 10.2036 11.4886 10.5686 11.6631C10.9308 11.8363 11.2801 11.9178 11.5301 11.9577C11.6575 11.978 11.7658 11.9885 11.8459 11.9939C11.8861 11.9967 11.9198 11.9982 11.9457 11.999C11.9587 11.9994 11.9698 11.9997 11.9788 11.9998C11.9834 11.9999 11.9874 11.9999 11.991 12C11.9927 12 11.9944 12 11.9959 12C11.9966 12 11.9973 12 11.998 12C11.9984 12 11.9989 12 11.999 12C11.9995 12 12 12 12 11ZM11 9.0875C11 9.08424 11 9.08099 11 9.07774C11 9.0745 11 9.07126 11 9.06803C11 9.06481 11 9.06159 11 9.05838C11 9.05517 11 9.05197 11 9.04877C11 9.04558 11 9.04239 11 9.03922C11 9.03604 11 9.03287 11 9.02971C11 9.02656 11 9.0234 11 9.02026C11 9.01712 11 9.01399 11 9.01086C11 9.00774 11 9.00462 11 9.00151C11 8.9984 11 8.9953 11 8.99221C11 8.98912 11 8.98604 11 8.98296C11 8.97989 11 8.97682 11 8.97376C11 8.9707 11 8.96765 11 8.96461C11 8.96157 11 8.95854 11 8.95551C11 8.95249 11 8.94947 11 8.94647C11 8.94346 11 8.94046 11 8.93747C11 8.93448 11 8.93149 11 8.92852C11 8.92554 11 8.92258 11 8.91962C11 8.91666 11 8.91371 11 8.91077C11 8.90783 11 8.9049 11 8.90197C11 8.89905 11 8.89613 11 8.89322C11 8.89031 11 8.88741 11 8.88452C11 8.88163 11 8.87874 11 8.87587C11 8.87299 11 8.87012 11 8.86727C11 8.86441 11 8.86155 11 8.85871C11 8.85587 11 8.85303 11 8.85021C11 8.84738 11 8.84456 11 8.84175C11 8.83894 11 8.83614 11 8.83334C11 8.83055 11 8.82776 11 8.82499C11 8.82221 11 8.81944 11 8.81668C11 8.81392 11 8.81116 11 8.80842C11 8.80567 11 8.80293 11 8.8002C11 8.79747 11 8.79475 11 8.79204C11 8.78932 11 8.78662 11 8.78392C11 8.78122 11 8.77853 11 8.77585C11 8.77317 11 8.7705 11 8.76783C11 8.76517 11 8.76251 11 8.75986C11 8.75721 11 8.75457 11 8.75193C11 8.7493 11 8.74667 11 8.74406C11 8.74144 11 8.73883 11 8.73623C11 8.73362 11 8.73103 11 8.72844C11 8.72586 11 8.72328 11 8.72071C11 8.71814 11 8.71557 11 8.71302C11 8.71046 11 8.70792 11 8.70538C11 8.70284 11 8.70031 11 8.69778C11 8.69526 11 8.69274 11 8.69024C11 8.68773 11 8.68523 11 8.68274C11 8.68024 11 8.67776 11 8.67528C11 8.6728 11 8.67034 11 8.66787C11 8.66541 11 8.66296 11 8.66051C11 8.65807 11 8.65563 11 8.6532C11 8.65077 11 8.64834 11 8.64593C11 8.64352 11 8.64111 11 8.63871C11 8.63631 11 8.63392 11 8.63153C11 8.62915 11 8.62677 11 8.6244C11 8.62203 11 8.61967 11 8.61732C11 8.61496 11 8.61262 11 8.61028C11 8.60794 11 8.60561 11 8.60328C11 8.60096 11 8.59864 11 8.59634C11 8.59403 11 8.59173 11 8.58943C11 8.58714 11 8.58486 11 8.58258C11 8.5803 11 8.57803 11 8.57577C11 8.5735 11 8.57125 11 8.569C11 8.56675 11 8.56451 11 8.56228C11 8.56004 11 8.55782 11 8.5556C11 8.55338 11 8.55117 11 8.54897C11 8.54676 11 8.54457 11 8.54238C11 8.54019 11 8.53801 11 8.53584C11 8.53366 11 8.5315 11 8.52934C11 8.52718 11 8.52503 11 8.52288C11 8.52074 11 8.5186 11 8.51647C11 8.51435 11 8.51222 11 8.51011C11 8.50799 11 8.50589 11 8.50379C11 8.50169 11 8.49959 11 8.49751C11 8.49542 11 8.49335 11 8.49128C11 8.4892 11 8.48714 11 8.48509C11 8.48303 11 8.48098 11 8.47894C11 8.4769 11 8.47486 11 8.47284C11 8.47081 11 8.46879 11 8.46678C11 8.46476 11 8.46276 11 8.46076C11 8.45876 11 8.45677 11 8.45479C11 8.4528 11 8.45083 11 8.44886C11 8.44689 11 8.44492 11 8.44297C11 8.44101 11 8.43907 11 8.43712C11 8.43518 11 8.43325 11 8.43132C11 8.4294 11 8.42748 11 8.42556C11 8.42365 11 8.42175 11 8.41985C11 8.41795 11 8.41606 11 8.41418C11 8.41229 11 8.41041 11 8.40854C11 8.40667 11 8.40481 11 8.40295C11 8.4011 11 8.39925 11 8.39741C11 8.39557 11 8.39373 11 8.3919C11 8.39008 11 8.38825 11 8.38644C11 8.38463 11 8.38282 11 8.38102C11 8.37922 11 8.37743 11 8.37564C11 8.37385 11 8.37207 11 8.3703C11 8.36853 11 8.36677 11 8.36501C11 8.36325 11 8.3615 11 8.35975C11 8.35801 11 8.35627 11 8.35454C11 8.35281 11 8.35108 11 8.34937C11 8.34765 11 8.34594 11 8.34424C11 8.34253 11 8.34084 11 8.33915C11 8.33746 11 8.33577 11 8.3341C11 8.33242 11 8.33075 11 8.32909C11 8.32743 11 8.32577 11 8.32412C11 8.32247 11 8.32083 11 8.31919C11 8.31756 11 8.31593 11 8.31431C11 8.31269 11 8.31107 11 8.30946C11 8.30785 11 8.30625 11 8.30466C11 8.30306 11 8.30147 11 8.29989C11 8.29831 11 8.29673 11 8.29516C11 8.2936 11 8.29203 11 8.29048C11 8.28892 11 8.28737 11 8.28583C11 8.28429 11 8.28276 11 8.28123C11 8.2797 11 8.27818 11 8.27666C11 8.27515 11 8.27364 11 8.27213C11 8.27063 11 8.26914 11 8.26765C11 8.26616 11 8.26467 11 8.2632C11 8.26172 11 8.26025 11 8.25879C11 8.25733 11 8.25587 11 8.25442C11 8.25297 11 8.25153 11 8.25009C11 8.24865 11 8.24722 11 8.2458C11 8.24437 11 8.24296 11 8.24155C11 8.24013 11 8.23873 11 8.23733C11 8.23593 11 8.23454 11 8.23316C11 8.23177 11 8.23039 11 8.22902C11 8.22765 11 8.22628 11 8.22492C11 8.22356 11 8.22221 11 8.22086C11 8.21951 11 8.21817 11 8.21684C11 8.2155 11 8.21418 11 8.21285C11 8.21153 11 8.21022 11 8.20891C11 8.2076 11 8.2063 11 8.205C11 8.2037 11 8.20241 11 8.20113C11 8.19985 11 8.19857 11 8.1973C11 8.19603 11 8.19476 11 8.1935C11 8.19224 11 8.19099 11 8.18974C11 8.1885 11 8.18726 11 8.18602C11 8.18479 11 8.18356 11 8.18234C11 8.18112 11 8.1799 11 8.1787C11 8.17749 11 8.17628 11 8.17509C11 8.17389 11 8.1727 11 8.17151C11 8.17033 11 8.16915 11 8.16798C11 8.16681 11 8.16564 11 8.16448C11 8.16332 11 8.16217 11 8.16102C11 8.15987 11 8.15873 11 8.15759C11 8.15646 11 8.15533 11 8.15421C11 8.15308 11 8.15196 11 8.15085C11 8.14974 11 8.14864 11 8.14754C11 8.14644 11 8.14534 11 8.14426C11 8.14317 11 8.14209 11 8.14101C11 8.13994 11 8.13887 11 8.1378C11 8.13674 11 8.13568 11 8.13463C11 8.13358 11 8.13253 11 8.1315C11 8.13046 11 8.12942 11 8.12839C11 8.12737 11 8.12634 11 8.12533C11 8.12431 11 8.1233 11 8.1223C11 8.12129 11 8.1203 11 8.1193C11 8.11831 11 8.11732 11 8.11634C11 8.11536 11 8.11439 11 8.11342C11 8.11245 11 8.11149 11 8.11053C11 8.10957 11 8.10862 11 8.10767C11 8.10673 11 8.10579 11 8.10485C11 8.10392 11 8.10299 11 8.10207C11 8.10115 11 8.10023 11 8.09932C11 8.09841 11 8.0975 11 8.0966C11 8.0957 11 8.09481 11 8.09392C11 8.09303 11 8.09215 11 8.09127C11 8.09039 11 8.08952 11 8.08866C11 8.08779 11 8.08693 11 8.08608C11 8.08522 11 8.08437 11 8.08353C11 8.08269 11 8.08185 11 8.08102C11 8.08019 11 8.07936 11 8.07854C11 8.07772 11 8.0769 11 8.0761C11 8.07529 11 8.07448 11 8.07368C11 8.07289 11 8.07209 11 8.07131C11 8.07052 11 8.06974 11 8.06896C11 8.06819 11 8.06742 11 8.06665C11 8.06589 11 8.06513 11 8.06437C11 8.06362 11 8.06287 11 8.06213C11 8.06138 11 8.06065 11 8.05991C11 8.05918 11 8.05845 11 8.05773C11 8.05701 11 8.0563 11 8.05559C11 8.05488 11 8.05417 11 8.05347C11 8.05277 11 8.05208 11 8.05139C11 8.0507 11 8.05002 11 8.04934C11 8.04866 11 8.04799 11 8.04732C11 8.04666 11 8.04599 11 8.04534C11 8.04468 11 8.04403 11 8.04338C11 8.04274 11 8.0421 11 8.04146C11 8.04083 11 8.0402 11 8.03957C11 8.03895 11 8.03833 11 8.03772C11 8.0371 11 8.03649 11 8.03589C11 8.03529 11 8.03469 11 8.03409C11 8.0335 11 8.03291 11 8.03233C11 8.03175 11 8.03117 11 8.0306C11 8.03003 11 8.02946 11 8.0289C11 8.02834 11 8.02778 11 8.02723C11 8.02668 11 8.02613 11 8.02559C11 8.02505 11 8.02451 11 8.02398C11 8.02345 11 8.02293 11 8.02241C11 8.02188 11 8.02137 11 8.02086C11 8.02035 11 8.01984 11 8.01934C11 8.01884 11 8.01835 11 8.01786C11 8.01737 11 8.01688 11 8.0164C11 8.01592 11 8.01545 11 8.01498C11 8.01451 11 8.01404 11 8.01358C11 8.01312 11 8.01267 11 8.01222C11 8.01177 11 8.01132 11 8.01088C11 8.01044 11 8.01001 11 8.00958C11 8.00915 11 8.00872 11 8.0083C11 8.00788 11 8.00747 11 8.00706C11 8.00665 11 8.00624 11 8.00584C11 8.00544 11 8.00505 11 8.00466C11 8.00427 11 8.00388 11 8.0035C11 8.00312 11 8.00274 11 8.00237C11 8.002 11 8.00164 11 8.00127C11 8.00091 11 8.00056 11 8.0002C11 7.99985 11 7.99951 11 7.99916C11 7.99882 11 7.99848 11 7.99815C11 7.99782 11 7.99749 11 7.99717C11 7.99684 11 7.99653 11 7.99621C11 7.9959 11 7.99559 11 7.99529C11 7.99498 11 7.99468 11 7.99439C11 7.99409 11 7.9938 11 7.99352C11 7.99323 11 7.99295 11 7.99268C11 7.9924 11 7.99213 11 7.99187C11 7.9916 11 7.99134 11 7.99108C11 7.99082 11 7.99057 11 7.99032C11 7.99007 11 7.98983 11 7.98959C11 7.98935 11 7.98912 11 7.98889C11 7.98866 11 7.98844 11 7.98822C11 7.988 11 7.98778 11 7.98757C11 7.98736 11 7.98715 11 7.98695C11 7.98675 11 7.98655 11 7.98636C11 7.98616 11 7.98598 11 7.98579C11 7.98561 11 7.98543 11 7.98525C11 7.98508 11 7.98491 11 7.98474C11 7.98458 11 7.98441 11 7.98426C11 7.9841 11 7.98395 11 7.9838C11 7.98365 11 7.98351 11 7.98337C11 7.98323 11 7.98309 11 7.98296C11 7.98283 11 7.98271 11 7.98258C11 7.98246 11 7.98235 11 7.98223C11 7.98212 11 7.98201 11 7.98191C11 7.9818 11 7.9817 11 7.98161C11 7.98151 11 7.98142 11 7.98133C11 7.98125 11 7.98116 11 7.98108C11 7.98101 11 7.98093 11 7.98086C11 7.98079 11 7.98073 11 7.98067C11 7.9806 11 7.98055 11 7.98049C11 7.98044 11 7.98039 11 7.98035C11 7.98031 11 7.98027 11 7.98023C11 7.98019 11 7.98016 11 7.98013C11 7.98011 11 7.98008 11 7.98006C11 7.98005 11 7.98003 11 7.98002C11 7.98001 11 7.98 11 7.98C10 7.98 9 7.98 9 7.98001C9 7.98001 9 7.98002 9 7.98004C9 7.98005 9 7.98007 9 7.98009C9 7.98011 9 7.98014 9 7.98017C9 7.9802 9 7.98023 9 7.98027C9 7.98031 9 7.98035 9 7.9804C9 7.98045 9 7.9805 9 7.98055C9 7.98061 9 7.98066 9 7.98073C9 7.98079 9 7.98086 9 7.98093C9 7.981 9 7.98107 9 7.98115C9 7.98123 9 7.98131 9 7.9814C9 7.98149 9 7.98158 9 7.98167C9 7.98176 9 7.98186 9 7.98197C9 7.98207 9 7.98217 9 7.98228C9 7.98239 9 7.98251 9 7.98263C9 7.98274 9 7.98286 9 7.98299C9 7.98312 9 7.98325 9 7.98338C9 7.98351 9 7.98365 9 7.98379C9 7.98393 9 7.98408 9 7.98422C9 7.98437 9 7.98453 9 7.98468C9 7.98484 9 7.985 9 7.98516C9 7.98532 9 7.98549 9 7.98566C9 7.98584 9 7.98601 9 7.98619C9 7.98637 9 7.98655 9 7.98674C9 7.98692 9 7.98711 9 7.98731C9 7.9875 9 7.9877 9 7.9879C9 7.9881 9 7.9883 9 7.98851C9 7.98872 9 7.98893 9 7.98915C9 7.98936 9 7.98958 9 7.98981C9 7.99003 9 7.99026 9 7.99049C9 7.99072 9 7.99095 9 7.99119C9 7.99143 9 7.99167 9 7.99191C9 7.99216 9 7.9924 9 7.99266C9 7.99291 9 7.99316 9 7.99342C9 7.99368 9 7.99394 9 7.99421C9 7.99447 9 7.99474 9 7.99502C9 7.99529 9 7.99557 9 7.99585C9 7.99613 9 7.99641 9 7.9967C9 7.99698 9 7.99727 9 7.99757C9 7.99786 9 7.99816 9 7.99846C9 7.99876 9 7.99907 9 7.99937C9 7.99968 9 7.99999 9 8.00031C9 8.00062 9 8.00094 9 8.00126C9 8.00158 9 8.00191 9 8.00223C9 8.00256 9 8.00289 9 8.00323C9 8.00356 9 8.0039 9 8.00424C9 8.00459 9 8.00493 9 8.00528C9 8.00563 9 8.00598 9 8.00633C9 8.00669 9 8.00705 9 8.00741C9 8.00777 9 8.00813 9 8.0085C9 8.00887 9 8.00924 9 8.00961C9 8.00999 9 8.01037 9 8.01075C9 8.01113 9 8.01151 9 8.0119C9 8.01229 9 8.01268 9 8.01307C9 8.01347 9 8.01386 9 8.01426C9 8.01466 9 8.01507 9 8.01547C9 8.01588 9 8.01629 9 8.0167C9 8.01712 9 8.01753 9 8.01795C9 8.01837 9 8.01879 9 8.01922C9 8.01964 9 8.02007 9 8.0205C9 8.02094 9 8.02137 9 8.02181C9 8.02225 9 8.02269 9 8.02313C9 8.02357 9 8.02402 9 8.02447C9 8.02492 9 8.02537 9 8.02583C9 8.02629 9 8.02675 9 8.02721C9 8.02767 9 8.02813 9 8.0286C9 8.02907 9 8.02954 9 8.03002C9 8.03049 9 8.03097 9 8.03145C9 8.03193 9 8.03241 9 8.0329C9 8.03338 9 8.03387 9 8.03436C9 8.03485 9 8.03535 9 8.03585C9 8.03634 9 8.03684 9 8.03735C9 8.03785 9 8.03836 9 8.03887C9 8.03938 9 8.03989 9 8.0404C9 8.04092 9 8.04144 9 8.04196C9 8.04248 9 8.043 9 8.04353C9 8.04405 9 8.04458 9 8.04511C9 8.04565 9 8.04618 9 8.04672C9 8.04725 9 8.04779 9 8.04834C9 8.04888 9 8.04943 9 8.04997C9 8.05052 9 8.05107 9 8.05163C9 8.05218 9 8.05274 9 8.0533C9 8.05386 9 8.05442 9 8.05498C9 8.05555 9 8.05612 9 8.05669C9 8.05726 9 8.05783 9 8.05841C9 8.05898 9 8.05956 9 8.06014C9 8.06072 9 8.0613 9 8.06189C9 8.06248 9 8.06306 9 8.06366C9 8.06425 9 8.06484 9 8.06544C9 8.06603 9 8.06663 9 8.06723C9 8.06784 9 8.06844 9 8.06905C9 8.06965 9 8.07026 9 8.07088C9 8.07149 9 8.0721 9 8.07272C9 8.07334 9 8.07396 9 8.07458C9 8.0752 9 8.07582 9 8.07645C9 8.07708 9 8.07771 9 8.07834C9 8.07897 9 8.07961 9 8.08024C9 8.08088 9 8.08152 9 8.08216C9 8.0828 9 8.08345 9 8.08409C9 8.08474 9 8.08539 9 8.08604C9 8.08669 9 8.08734 9 8.088C9 8.08866 9 8.08931 9 8.08998C9 8.09064 9 8.0913 9 8.09197C9 8.09263 9 8.0933 9 8.09397C9 8.09464 9 8.09531 9 8.09599C9 8.09666 9 8.09734 9 8.09802C9 8.0987 9 8.09938 9 8.10006C9 8.10075 9 8.10144 9 8.10212C9 8.10281 9 8.1035 9 8.1042C9 8.10489 9 8.10559 9 8.10628C9 8.10698 9 8.10768 9 8.10838C9 8.10908 9 8.10979 9 8.1105C9 8.1112 9 8.11191 9 8.11262C9 8.11333 9 8.11404 9 8.11476C9 8.11547 9 8.11619 9 8.11691C9 8.11763 9 8.11835 9 8.11908C9 8.1198 9 8.12053 9 8.12125C9 8.12198 9 8.12271 9 8.12344C9 8.12418 9 8.12491 9 8.12565C9 8.12638 9 8.12712 9 8.12786C9 8.1286 9 8.12934 9 8.13009C9 8.13083 9 8.13158 9 8.13233C9 8.13308 9 8.13383 9 8.13458C9 8.13533 9 8.13609 9 8.13684C9 8.1376 9 8.13836 9 8.13912C9 8.13988 9 8.14064 9 8.14141C9 8.14217 9 8.14294 9 8.14371C9 8.14447 9 8.14524 9 8.14602C9 8.14679 9 8.14756 9 8.14834C9 8.14911 9 8.14989 9 8.15067C9 8.15145 9 8.15223 9 8.15302C9 8.1538 9 8.15458 9 8.15537C9 8.15616 9 8.15695 9 8.15774C9 8.15853 9 8.15932 9 8.16012C9 8.16091 9 8.16171 9 8.1625C9 8.1633 9 8.1641 9 8.1649C9 8.16571 9 8.16651 9 8.16731C9 8.16812 9 8.16893 9 8.16973C9 8.17054 9 8.17135 9 8.17217C9 8.17298 9 8.17379 9 8.17461C9 8.17542 9 8.17624 9 8.17706C9 8.17788 9 8.1787 9 8.17952C9 8.18034 9 8.18117 9 8.18199C9 8.18282 9 8.18364 9 8.18447C9 8.1853 9 8.18613 9 8.18696C9 8.1878 9 8.18863 9 8.18947C9 8.1903 9 8.19114 9 8.19198C9 8.19281 9 8.19366 9 8.1945C9 8.19534 9 8.19618 9 8.19703C9 8.19787 9 8.19872 9 8.19956C9 8.20041 9 8.20126 9 8.20211C9 8.20296 9 8.20382 9 8.20467C9 8.20552 9 8.20638 9 8.20724C9 8.20809 9 8.20895 9 8.20981C9 8.21067 9 8.21153 9 8.21239C9 8.21326 9 8.21412 9 8.21499C9 8.21585 9 8.21672 9 8.21759C9 8.21846 9 8.21933 9 8.2202C9 8.22107 9 8.22194 9 8.22282C9 8.22369 9 8.22456 9 8.22544C9 8.22632 9 8.2272 9 8.22807C9 8.22895 9 8.22983 9 8.23072C9 8.2316 9 8.23248 9 8.23337C9 8.23425 9 8.23514 9 8.23602C9 8.23691 9 8.2378 9 8.23869C9 8.23958 9 8.24047 9 8.24136C9 8.24226 9 8.24315 9 8.24404C9 8.24494 9 8.24583 9 8.24673C9 8.24763 9 8.24853 9 8.24943C9 8.25033 9 8.25123 9 8.25213C9 8.25303 9 8.25393 9 8.25484C9 8.25574 9 8.25665 9 8.25756C9 8.25846 9 8.25937 9 8.26028C9 8.26119 9 8.2621 9 8.26301C9 8.26392 9 8.26483 9 8.26575C9 8.26666 9 8.26757 9 8.26849C9 8.26941 9 8.27032 9 8.27124C9 8.27216 9 8.27308 9 8.274C9 8.27492 9 8.27584 9 8.27676C9 8.27768 9 8.2786 9 8.27953C9 8.28045 9 8.28138 9 8.2823C9 8.28323 9 8.28415 9 8.28508C9 8.28601 9 8.28694 9 8.28787C9 8.2888 9 8.28973 9 8.29066C9 8.29159 9 8.29253 9 8.29346C9 8.29439 9 8.29533 9 8.29626C9 8.2972 9 8.29813 9 8.29907C9 8.30001 9 8.30095 9 8.30189C9 8.30282 9 8.30376 9 8.30471C9 8.30565 9 8.30659 9 8.30753C9 8.30847 9 8.30941 9 8.31036C9 8.3113 9 8.31225 9 8.31319C9 8.31414 9 8.31509 9 8.31603C9 8.31698 9 8.31793 9 8.31888C9 8.31983 9 8.32077 9 8.32172C9 8.32267 9 8.32363 9 8.32458C9 8.32553 9 8.32648 9 8.32744C9 8.32839 9 8.32934 9 8.3303C9 8.33125 9 8.33221 9 8.33316C9 8.33412 9 8.33507 9 8.33603C9 8.33699 9 8.33795 9 8.33891C9 8.33986 9 8.34082 9 8.34178C9 8.34274 9 8.3437 9 8.34466C9 8.34563 9 8.34659 9 8.34755C9 8.34851 9 8.34947 9 8.35044C9 8.3514 9 8.35237 9 8.35333C9 8.35429 9 8.35526 9 8.35623C9 8.35719 9 8.35816 9 8.35912C9 8.36009 9 8.36106 9 8.36203C9 8.36299 9 8.36396 9 8.36493C9 8.3659 9 8.36687 9 8.36784C9 8.36881 9 8.36978 9 8.37075C9 8.37172 9 8.37269 9 8.37366C9 8.37463 9 8.3756 9 8.37658C9 8.37755 9 8.37852 9 8.37949C9 8.38047 9 8.38144 9 8.38242C9 8.38339 9 8.38436 9 8.38534C9 8.38631 9 8.38729 9 8.38826C9 8.38924 9 8.39021 9 8.39119C9 8.39217 9 8.39314 9 8.39412C9 8.3951 9 8.39607 9 8.39705C9 8.39803 9 8.399 9 8.39998C9 8.40096 9 8.40194 9 8.40292C9 8.4039 9 8.40487 9 8.40585C9 8.40683 9 8.40781 9 8.40879C9 8.40977 9 8.41075 9 8.41173C9 8.41271 9 8.41369 9 8.41467C9 8.41565 9 8.41663 9 8.41761C9 8.41859 9 8.41957 9 8.42055C9 8.42153 9 8.42251 9 8.4235C9 8.42448 9 8.42546 9 8.42644C9 8.42742 9 8.4284 9 8.42938C9 8.43037 9 8.43135 9 8.43233C9 8.43331 9 8.43429 9 8.43528C9 8.43626 9 8.43724 9 8.43822C9 8.4392 9 8.44019 9 8.44117C9 8.44215 9 8.44313 9 8.44411C9 8.4451 9 8.44608 9 8.44706C9 8.44804 9 8.44903 9 8.45001C9 8.45099 9 8.45197 9 8.45295C9 8.45394 9 8.45492 9 8.4559C9 8.45688 9 8.45787 9 8.45885C9 8.45983 9 8.46081 9 8.46179C9 8.46277 9 8.46376 9 8.46474C9 8.46572 9 8.4667 9 8.46768C9 8.46866 9 8.46965 9 8.47063C9 8.47161 9 8.47259 9 8.47357C9 8.47455 9 8.47553 9 8.47651C9 8.47749 9 8.47847 9 8.47945C9 8.48043 9 8.48141 9 8.48239C9 8.48337 9 8.48435 9 8.48533C9 8.48631 9 8.48729 9 8.48827C9 8.48925 9 8.49022 9 8.4912C9 8.49218 9 8.49316 9 8.49414C9 8.49511 9 8.49609 9 8.49707C9 8.49805 9 8.49902 9 8.5H11C11 8.49902 11 8.49805 11 8.49707C11 8.49609 11 8.49511 11 8.49414C11 8.49316 11 8.49218 11 8.4912C11 8.49022 11 8.48925 11 8.48827C11 8.48729 11 8.48631 11 8.48533C11 8.48435 11 8.48337 11 8.48239C11 8.48141 11 8.48043 11 8.47945C11 8.47847 11 8.47749 11 8.47651C11 8.47553 11 8.47455 11 8.47357C11 8.47259 11 8.47161 11 8.47063C11 8.46965 11 8.46866 11 8.46768C11 8.4667 11 8.46572 11 8.46474C11 8.46376 11 8.46277 11 8.46179C11 8.46081 11 8.45983 11 8.45885C11 8.45787 11 8.45688 11 8.4559C11 8.45492 11 8.45394 11 8.45295C11 8.45197 11 8.45099 11 8.45001C11 8.44903 11 8.44804 11 8.44706C11 8.44608 11 8.4451 11 8.44411C11 8.44313 11 8.44215 11 8.44117C11 8.44019 11 8.4392 11 8.43822C11 8.43724 11 8.43626 11 8.43528C11 8.43429 11 8.43331 11 8.43233C11 8.43135 11 8.43037 11 8.42938C11 8.4284 11 8.42742 11 8.42644C11 8.42546 11 8.42448 11 8.4235C11 8.42251 11 8.42153 11 8.42055C11 8.41957 11 8.41859 11 8.41761C11 8.41663 11 8.41565 11 8.41467C11 8.41369 11 8.41271 11 8.41173C11 8.41075 11 8.40977 11 8.40879C11 8.40781 11 8.40683 11 8.40585C11 8.40487 11 8.4039 11 8.40292C11 8.40194 11 8.40096 11 8.39998C11 8.399 11 8.39803 11 8.39705C11 8.39607 11 8.3951 11 8.39412C11 8.39314 11 8.39217 11 8.39119C11 8.39021 11 8.38924 11 8.38826C11 8.38729 11 8.38631 11 8.38534C11 8.38436 11 8.38339 11 8.38242C11 8.38144 11 8.38047 11 8.37949C11 8.37852 11 8.37755 11 8.37658C11 8.3756 11 8.37463 11 8.37366C11 8.37269 11 8.37172 11 8.37075C11 8.36978 11 8.36881 11 8.36784C11 8.36687 11 8.3659 11 8.36493C11 8.36396 11 8.36299 11 8.36203C11 8.36106 11 8.36009 11 8.35912C11 8.35816 11 8.35719 11 8.35623C11 8.35526 11 8.35429 11 8.35333C11 8.35237 11 8.3514 11 8.35044C11 8.34947 11 8.34851 11 8.34755C11 8.34659 11 8.34563 11 8.34466C11 8.3437 11 8.34274 11 8.34178C11 8.34082 11 8.33986 11 8.33891C11 8.33795 11 8.33699 11 8.33603C11 8.33507 11 8.33412 11 8.33316C11 8.33221 11 8.33125 11 8.3303C11 8.32934 11 8.32839 11 8.32744C11 8.32648 11 8.32553 11 8.32458C11 8.32363 11 8.32267 11 8.32172C11 8.32077 11 8.31983 11 8.31888C11 8.31793 11 8.31698 11 8.31603C11 8.31509 11 8.31414 11 8.31319C11 8.31225 11 8.3113 11 8.31036C11 8.30941 11 8.30847 11 8.30753C11 8.30659 11 8.30565 11 8.30471C11 8.30376 11 8.30282 11 8.30189C11 8.30095 11 8.30001 11 8.29907C11 8.29813 11 8.2972 11 8.29626C11 8.29533 11 8.29439 11 8.29346C11 8.29253 11 8.29159 11 8.29066C11 8.28973 11 8.2888 11 8.28787C11 8.28694 11 8.28601 11 8.28508C11 8.28415 11 8.28323 11 8.2823C11 8.28138 11 8.28045 11 8.27953C11 8.2786 11 8.27768 11 8.27676C11 8.27584 11 8.27492 11 8.274C11 8.27308 11 8.27216 11 8.27124C11 8.27032 11 8.26941 11 8.26849C11 8.26757 11 8.26666 11 8.26575C11 8.26483 11 8.26392 11 8.26301C11 8.2621 11 8.26119 11 8.26028C11 8.25937 11 8.25846 11 8.25756C11 8.25665 11 8.25574 11 8.25484C11 8.25393 11 8.25303 11 8.25213C11 8.25123 11 8.25033 11 8.24943C11 8.24853 11 8.24763 11 8.24673C11 8.24583 11 8.24494 11 8.24404C11 8.24315 11 8.24226 11 8.24136C11 8.24047 11 8.23958 11 8.23869C11 8.2378 11 8.23691 11 8.23602C11 8.23514 11 8.23425 11 8.23337C11 8.23248 11 8.2316 11 8.23072C11 8.22983 11 8.22895 11 8.22807C11 8.2272 11 8.22632 11 8.22544C11 8.22456 11 8.22369 11 8.22282C11 8.22194 11 8.22107 11 8.2202C11 8.21933 11 8.21846 11 8.21759C11 8.21672 11 8.21585 11 8.21499C11 8.21412 11 8.21326 11 8.21239C11 8.21153 11 8.21067 11 8.20981C11 8.20895 11 8.20809 11 8.20724C11 8.20638 11 8.20552 11 8.20467C11 8.20382 11 8.20296 11 8.20211C11 8.20126 11 8.20041 11 8.19956C11 8.19872 11 8.19787 11 8.19703C11 8.19618 11 8.19534 11 8.1945C11 8.19366 11 8.19281 11 8.19198C11 8.19114 11 8.1903 11 8.18947C11 8.18863 11 8.1878 11 8.18696C11 8.18613 11 8.1853 11 8.18447C11 8.18364 11 8.18282 11 8.18199C11 8.18117 11 8.18034 11 8.17952C11 8.1787 11 8.17788 11 8.17706C11 8.17624 11 8.17542 11 8.17461C11 8.17379 11 8.17298 11 8.17217C11 8.17135 11 8.17054 11 8.16973C11 8.16893 11 8.16812 11 8.16731C11 8.16651 11 8.16571 11 8.1649C11 8.1641 11 8.1633 11 8.1625C11 8.16171 11 8.16091 11 8.16012C11 8.15932 11 8.15853 11 8.15774C11 8.15695 11 8.15616 11 8.15537C11 8.15458 11 8.1538 11 8.15302C11 8.15223 11 8.15145 11 8.15067C11 8.14989 11 8.14911 11 8.14834C11 8.14756 11 8.14679 11 8.14602C11 8.14524 11 8.14447 11 8.14371C11 8.14294 11 8.14217 11 8.14141C11 8.14064 11 8.13988 11 8.13912C11 8.13836 11 8.1376 11 8.13684C11 8.13609 11 8.13533 11 8.13458C11 8.13383 11 8.13308 11 8.13233C11 8.13158 11 8.13083 11 8.13009C11 8.12934 11 8.1286 11 8.12786C11 8.12712 11 8.12638 11 8.12565C11 8.12491 11 8.12418 11 8.12344C11 8.12271 11 8.12198 11 8.12125C11 8.12053 11 8.1198 11 8.11908C11 8.11835 11 8.11763 11 8.11691C11 8.11619 11 8.11547 11 8.11476C11 8.11404 11 8.11333 11 8.11262C11 8.11191 11 8.1112 11 8.1105C11 8.10979 11 8.10908 11 8.10838C11 8.10768 11 8.10698 11 8.10628C11 8.10559 11 8.10489 11 8.1042C11 8.1035 11 8.10281 11 8.10212C11 8.10144 11 8.10075 11 8.10006C11 8.09938 11 8.0987 11 8.09802C11 8.09734 11 8.09666 11 8.09599C11 8.09531 11 8.09464 11 8.09397C11 8.0933 11 8.09263 11 8.09197C11 8.0913 11 8.09064 11 8.08998C11 8.08931 11 8.08866 11 8.088C11 8.08734 11 8.08669 11 8.08604C11 8.08539 11 8.08474 11 8.08409C11 8.08345 11 8.0828 11 8.08216C11 8.08152 11 8.08088 11 8.08024C11 8.07961 11 8.07897 11 8.07834C11 8.07771 11 8.07708 11 8.07645C11 8.07582 11 8.0752 11 8.07458C11 8.07396 11 8.07334 11 8.07272C11 8.0721 11 8.07149 11 8.07088C11 8.07026 11 8.06965 11 8.06905C11 8.06844 11 8.06784 11 8.06723C11 8.06663 11 8.06603 11 8.06544C11 8.06484 11 8.06425 11 8.06366C11 8.06306 11 8.06248 11 8.06189C11 8.0613 11 8.06072 11 8.06014C11 8.05956 11 8.05898 11 8.05841C11 8.05783 11 8.05726 11 8.05669C11 8.05612 11 8.05555 11 8.05498C11 8.05442 11 8.05386 11 8.0533C11 8.05274 11 8.05218 11 8.05163C11 8.05107 11 8.05052 11 8.04997C11 8.04943 11 8.04888 11 8.04834C11 8.04779 11 8.04725 11 8.04672C11 8.04618 11 8.04565 11 8.04511C11 8.04458 11 8.04405 11 8.04353C11 8.043 11 8.04248 11 8.04196C11 8.04144 11 8.04092 11 8.0404C11 8.03989 11 8.03938 11 8.03887C11 8.03836 11 8.03785 11 8.03735C11 8.03684 11 8.03634 11 8.03585C11 8.03535 11 8.03485 11 8.03436C11 8.03387 11 8.03338 11 8.0329C11 8.03241 11 8.03193 11 8.03145C11 8.03097 11 8.03049 11 8.03002C11 8.02954 11 8.02907 11 8.0286C11 8.02813 11 8.02767 11 8.02721C11 8.02675 11 8.02629 11 8.02583C11 8.02537 11 8.02492 11 8.02447C11 8.02402 11 8.02357 11 8.02313C11 8.02269 11 8.02225 11 8.02181C11 8.02137 11 8.02094 11 8.0205C11 8.02007 11 8.01964 11 8.01922C11 8.01879 11 8.01837 11 8.01795C11 8.01753 11 8.01712 11 8.0167C11 8.01629 11 8.01588 11 8.01547C11 8.01507 11 8.01466 11 8.01426C11 8.01386 11 8.01347 11 8.01307C11 8.01268 11 8.01229 11 8.0119C11 8.01151 11 8.01113 11 8.01075C11 8.01037 11 8.00999 11 8.00961C11 8.00924 11 8.00887 11 8.0085C11 8.00813 11 8.00777 11 8.00741C11 8.00705 11 8.00669 11 8.00633C11 8.00598 11 8.00563 11 8.00528C11 8.00493 11 8.00459 11 8.00424C11 8.0039 11 8.00356 11 8.00323C11 8.00289 11 8.00256 11 8.00223C11 8.00191 11 8.00158 11 8.00126C11 8.00094 11 8.00062 11 8.00031C11 7.99999 11 7.99968 11 7.99937C11 7.99907 11 7.99876 11 7.99846C11 7.99816 11 7.99786 11 7.99757C11 7.99727 11 7.99698 11 7.9967C11 7.99641 11 7.99613 11 7.99585C11 7.99557 11 7.99529 11 7.99502C11 7.99474 11 7.99447 11 7.99421C11 7.99394 11 7.99368 11 7.99342C11 7.99316 11 7.99291 11 7.99266C11 7.9924 11 7.99216 11 7.99191C11 7.99167 11 7.99143 11 7.99119C11 7.99095 11 7.99072 11 7.99049C11 7.99026 11 7.99003 11 7.98981C11 7.98958 11 7.98936 11 7.98915C11 7.98893 11 7.98872 11 7.98851C11 7.9883 11 7.9881 11 7.9879C11 7.9877 11 7.9875 11 7.98731C11 7.98711 11 7.98692 11 7.98674C11 7.98655 11 7.98637 11 7.98619C11 7.98601 11 7.98584 11 7.98566C11 7.98549 11 7.98532 11 7.98516C11 7.985 11 7.98484 11 7.98468C11 7.98453 11 7.98437 11 7.98422C11 7.98408 11 7.98393 11 7.98379C11 7.98365 11 7.98351 11 7.98338C11 7.98325 11 7.98312 11 7.98299C11 7.98286 11 7.98274 11 7.98263C11 7.98251 11 7.98239 11 7.98228C11 7.98217 11 7.98207 11 7.98197C11 7.98186 11 7.98176 11 7.98167C11 7.98158 11 7.98149 11 7.9814C11 7.98131 11 7.98123 11 7.98115C11 7.98107 11 7.981 11 7.98093C11 7.98086 11 7.98079 11 7.98073C11 7.98066 11 7.98061 11 7.98055C11 7.9805 11 7.98045 11 7.9804C11 7.98035 11 7.98031 11 7.98027C11 7.98023 11 7.9802 11 7.98017C11 7.98014 11 7.98011 11 7.98009C11 7.98007 11 7.98005 11 7.98004C11 7.98002 11 7.98001 11 7.98001C11 7.98 10 7.98 9 7.98C9 7.98 9 7.98001 9 7.98002C9 7.98003 9 7.98005 9 7.98006C9 7.98008 9 7.98011 9 7.98013C9 7.98016 9 7.98019 9 7.98023C9 7.98027 9 7.98031 9 7.98035C9 7.98039 9 7.98044 9 7.98049C9 7.98055 9 7.9806 9 7.98067C9 7.98073 9 7.98079 9 7.98086C9 7.98093 9 7.98101 9 7.98108C9 7.98116 9 7.98125 9 7.98133C9 7.98142 9 7.98151 9 7.98161C9 7.9817 9 7.9818 9 7.98191C9 7.98201 9 7.98212 9 7.98223C9 7.98235 9 7.98246 9 7.98258C9 7.98271 9 7.98283 9 7.98296C9 7.98309 9 7.98323 9 7.98337C9 7.98351 9 7.98365 9 7.9838C9 7.98395 9 7.9841 9 7.98426C9 7.98441 9 7.98458 9 7.98474C9 7.98491 9 7.98508 9 7.98525C9 7.98543 9 7.98561 9 7.98579C9 7.98598 9 7.98616 9 7.98636C9 7.98655 9 7.98675 9 7.98695C9 7.98715 9 7.98736 9 7.98757C9 7.98778 9 7.988 9 7.98822C9 7.98844 9 7.98866 9 7.98889C9 7.98912 9 7.98935 9 7.98959C9 7.98983 9 7.99007 9 7.99032C9 7.99057 9 7.99082 9 7.99108C9 7.99134 9 7.9916 9 7.99187C9 7.99213 9 7.9924 9 7.99268C9 7.99295 9 7.99323 9 7.99352C9 7.9938 9 7.99409 9 7.99439C9 7.99468 9 7.99498 9 7.99529C9 7.99559 9 7.9959 9 7.99621C9 7.99653 9 7.99684 9 7.99717C9 7.99749 9 7.99782 9 7.99815C9 7.99848 9 7.99882 9 7.99916C9 7.99951 9 7.99985 9 8.0002C9 8.00056 9 8.00091 9 8.00127C9 8.00164 9 8.002 9 8.00237C9 8.00274 9 8.00312 9 8.0035C9 8.00388 9 8.00427 9 8.00466C9 8.00505 9 8.00544 9 8.00584C9 8.00624 9 8.00665 9 8.00706C9 8.00747 9 8.00788 9 8.0083C9 8.00872 9 8.00915 9 8.00958C9 8.01001 9 8.01044 9 8.01088C9 8.01132 9 8.01177 9 8.01222C9 8.01267 9 8.01312 9 8.01358C9 8.01404 9 8.01451 9 8.01498C9 8.01545 9 8.01592 9 8.0164C9 8.01688 9 8.01737 9 8.01786C9 8.01835 9 8.01884 9 8.01934C9 8.01984 9 8.02035 9 8.02086C9 8.02137 9 8.02188 9 8.02241C9 8.02293 9 8.02345 9 8.02398C9 8.02451 9 8.02505 9 8.02559C9 8.02613 9 8.02668 9 8.02723C9 8.02778 9 8.02834 9 8.0289C9 8.02946 9 8.03003 9 8.0306C9 8.03117 9 8.03175 9 8.03233C9 8.03291 9 8.0335 9 8.03409C9 8.03469 9 8.03529 9 8.03589C9 8.03649 9 8.0371 9 8.03772C9 8.03833 9 8.03895 9 8.03957C9 8.0402 9 8.04083 9 8.04146C9 8.0421 9 8.04274 9 8.04338C9 8.04403 9 8.04468 9 8.04534C9 8.04599 9 8.04666 9 8.04732C9 8.04799 9 8.04866 9 8.04934C9 8.05002 9 8.0507 9 8.05139C9 8.05208 9 8.05277 9 8.05347C9 8.05417 9 8.05488 9 8.05559C9 8.0563 9 8.05701 9 8.05773C9 8.05845 9 8.05918 9 8.05991C9 8.06065 9 8.06138 9 8.06213C9 8.06287 9 8.06362 9 8.06437C9 8.06513 9 8.06589 9 8.06665C9 8.06742 9 8.06819 9 8.06896C9 8.06974 9 8.07052 9 8.07131C9 8.07209 9 8.07289 9 8.07368C9 8.07448 9 8.07529 9 8.0761C9 8.0769 9 8.07772 9 8.07854C9 8.07936 9 8.08019 9 8.08102C9 8.08185 9 8.08269 9 8.08353C9 8.08437 9 8.08522 9 8.08608C9 8.08693 9 8.08779 9 8.08866C9 8.08952 9 8.09039 9 8.09127C9 8.09215 9 8.09303 9 8.09392C9 8.09481 9 8.0957 9 8.0966C9 8.0975 9 8.09841 9 8.09932C9 8.10023 9 8.10115 9 8.10207C9 8.10299 9 8.10392 9 8.10485C9 8.10579 9 8.10673 9 8.10767C9 8.10862 9 8.10957 9 8.11053C9 8.11149 9 8.11245 9 8.11342C9 8.11439 9 8.11536 9 8.11634C9 8.11732 9 8.11831 9 8.1193C9 8.1203 9 8.12129 9 8.1223C9 8.1233 9 8.12431 9 8.12533C9 8.12634 9 8.12737 9 8.12839C9 8.12942 9 8.13046 9 8.1315C9 8.13253 9 8.13358 9 8.13463C9 8.13568 9 8.13674 9 8.1378C9 8.13887 9 8.13994 9 8.14101C9 8.14209 9 8.14317 9 8.14426C9 8.14534 9 8.14644 9 8.14754C9 8.14864 9 8.14974 9 8.15085C9 8.15196 9 8.15308 9 8.15421C9 8.15533 9 8.15646 9 8.15759C9 8.15873 9 8.15987 9 8.16102C9 8.16217 9 8.16332 9 8.16448C9 8.16564 9 8.16681 9 8.16798C9 8.16915 9 8.17033 9 8.17151C9 8.1727 9 8.17389 9 8.17509C9 8.17628 9 8.17749 9 8.1787C9 8.1799 9 8.18112 9 8.18234C9 8.18356 9 8.18479 9 8.18602C9 8.18726 9 8.1885 9 8.18974C9 8.19099 9 8.19224 9 8.1935C9 8.19476 9 8.19603 9 8.1973C9 8.19857 9 8.19985 9 8.20113C9 8.20241 9 8.2037 9 8.205C9 8.2063 9 8.2076 9 8.20891C9 8.21022 9 8.21153 9 8.21285C9 8.21418 9 8.2155 9 8.21684C9 8.21817 9 8.21951 9 8.22086C9 8.22221 9 8.22356 9 8.22492C9 8.22628 9 8.22765 9 8.22902C9 8.23039 9 8.23177 9 8.23316C9 8.23454 9 8.23593 9 8.23733C9 8.23873 9 8.24013 9 8.24155C9 8.24296 9 8.24437 9 8.2458C9 8.24722 9 8.24865 9 8.25009C9 8.25153 9 8.25297 9 8.25442C9 8.25587 9 8.25733 9 8.25879C9 8.26025 9 8.26172 9 8.2632C9 8.26467 9 8.26616 9 8.26765C9 8.26914 9 8.27063 9 8.27213C9 8.27364 9 8.27515 9 8.27666C9 8.27818 9 8.2797 9 8.28123C9 8.28276 9 8.28429 9 8.28583C9 8.28737 9 8.28892 9 8.29048C9 8.29203 9 8.2936 9 8.29516C9 8.29673 9 8.29831 9 8.29989C9 8.30147 9 8.30306 9 8.30466C9 8.30625 9 8.30785 9 8.30946C9 8.31107 9 8.31269 9 8.31431C9 8.31593 9 8.31756 9 8.31919C9 8.32083 9 8.32247 9 8.32412C9 8.32577 9 8.32743 9 8.32909C9 8.33075 9 8.33242 9 8.3341C9 8.33577 9 8.33746 9 8.33915C9 8.34084 9 8.34253 9 8.34424C9 8.34594 9 8.34765 9 8.34937C9 8.35108 9 8.35281 9 8.35454C9 8.35627 9 8.35801 9 8.35975C9 8.3615 9 8.36325 9 8.36501C9 8.36677 9 8.36853 9 8.3703C9 8.37207 9 8.37385 9 8.37564C9 8.37743 9 8.37922 9 8.38102C9 8.38282 9 8.38463 9 8.38644C9 8.38825 9 8.39008 9 8.3919C9 8.39373 9 8.39557 9 8.39741C9 8.39925 9 8.4011 9 8.40295C9 8.40481 9 8.40667 9 8.40854C9 8.41041 9 8.41229 9 8.41418C9 8.41606 9 8.41795 9 8.41985C9 8.42175 9 8.42365 9 8.42556C9 8.42748 9 8.4294 9 8.43132C9 8.43325 9 8.43518 9 8.43712C9 8.43907 9 8.44101 9 8.44297C9 8.44492 9 8.44689 9 8.44886C9 8.45083 9 8.4528 9 8.45479C9 8.45677 9 8.45876 9 8.46076C9 8.46276 9 8.46476 9 8.46678C9 8.46879 9 8.47081 9 8.47284C9 8.47486 9 8.4769 9 8.47894C9 8.48098 9 8.48303 9 8.48509C9 8.48714 9 8.4892 9 8.49128C9 8.49335 9 8.49542 9 8.49751C9 8.49959 9 8.50169 9 8.50379C9 8.50589 9 8.50799 9 8.51011C9 8.51222 9 8.51435 9 8.51647C9 8.5186 9 8.52074 9 8.52288C9 8.52503 9 8.52718 9 8.52934C9 8.5315 9 8.53366 9 8.53584C9 8.53801 9 8.54019 9 8.54238C9 8.54457 9 8.54676 9 8.54897C9 8.55117 9 8.55338 9 8.5556C9 8.55782 9 8.56004 9 8.56228C9 8.56451 9 8.56675 9 8.569C9 8.57125 9 8.5735 9 8.57577C9 8.57803 9 8.5803 9 8.58258C9 8.58486 9 8.58714 9 8.58943C9 8.59173 9 8.59403 9 8.59634C9 8.59864 9 8.60096 9 8.60328C9 8.60561 9 8.60794 9 8.61028C9 8.61262 9 8.61496 9 8.61732C9 8.61967 9 8.62203 9 8.6244C9 8.62677 9 8.62915 9 8.63153C9 8.63392 9 8.63631 9 8.63871C9 8.64111 9 8.64352 9 8.64593C9 8.64834 9 8.65077 9 8.6532C9 8.65563 9 8.65807 9 8.66051C9 8.66296 9 8.66541 9 8.66787C9 8.67034 9 8.6728 9 8.67528C9 8.67776 9 8.68024 9 8.68274C9 8.68523 9 8.68773 9 8.69024C9 8.69274 9 8.69526 9 8.69778C9 8.70031 9 8.70284 9 8.70538C9 8.70792 9 8.71046 9 8.71302C9 8.71557 9 8.71814 9 8.72071C9 8.72328 9 8.72586 9 8.72844C9 8.73103 9 8.73362 9 8.73623C9 8.73883 9 8.74144 9 8.74406C9 8.74667 9 8.7493 9 8.75193C9 8.75457 9 8.75721 9 8.75986C9 8.76251 9 8.76517 9 8.76783C9 8.7705 9 8.77317 9 8.77585C9 8.77853 9 8.78122 9 8.78392C9 8.78662 9 8.78932 9 8.79204C9 8.79475 9 8.79747 9 8.8002C9 8.80293 9 8.80567 9 8.80842C9 8.81116 9 8.81392 9 8.81668C9 8.81944 9 8.82221 9 8.82499C9 8.82776 9 8.83055 9 8.83334C9 8.83614 9 8.83894 9 8.84175C9 8.84456 9 8.84738 9 8.85021C9 8.85303 9 8.85587 9 8.85871C9 8.86155 9 8.86441 9 8.86727C9 8.87012 9 8.87299 9 8.87587C9 8.87874 9 8.88163 9 8.88452C9 8.88741 9 8.89031 9 8.89322C9 8.89613 9 8.89905 9 8.90197C9 8.9049 9 8.90783 9 8.91077C9 8.91371 9 8.91666 9 8.91962C9 8.92258 9 8.92554 9 8.92852C9 8.93149 9 8.93448 9 8.93747C9 8.94046 9 8.94346 9 8.94647C9 8.94947 9 8.95249 9 8.95551C9 8.95854 9 8.96157 9 8.96461C9 8.96765 9 8.9707 9 8.97376C9 8.97682 9 8.97989 9 8.98296C9 8.98604 9 8.98912 9 8.99221C9 8.9953 9 8.9984 9 9.00151C9 9.00462 9 9.00774 9 9.01086C9 9.01399 9 9.01712 9 9.02026C9 9.0234 9 9.02656 9 9.02971C9 9.03287 9 9.03604 9 9.03922C9 9.04239 9 9.04558 9 9.04877C9 9.05197 9 9.05517 9 9.05838C9 9.06159 9 9.06481 9 9.06803C9 9.07126 9 9.0745 9 9.07774C9 9.08099 9 9.08424 9 9.0875H11Z" fill="#FAA61A"/>
<circle cx="8" cy="8" r="2" stroke="#FAA61A" stroke-width="2"/>
</svg>
