<svg width="104" height="84" viewBox="0 0 104 84" fill="none" xmlns="http://www.w3.org/2000/svg">
<path d="M10.9144 71.5216V70.8482C11.5292 71.1477 11.367 70.5262 11.4233 70.3438C12.6597 66.3217 13.8667 62.2906 15.0738 58.2617C17.3258 50.7378 19.5824 43.2161 21.8186 35.6853C22.3636 33.8499 24.0143 32.7352 25.8294 32.7397C42.6745 32.778 59.5195 32.7622 76.3645 32.7622C79.8462 32.7622 83.3278 32.7532 86.8071 32.7487C88.8294 32.7442 90.8562 32.841 92.8695 32.7149C95.8534 32.528 97.8825 35.3655 96.9367 38.149C95.7093 41.759 94.6734 45.4343 93.5541 49.0803C91.3066 56.3993 88.9713 63.6958 86.8544 71.0532C86.1428 73.5281 84.5866 75.1946 81.5442 75.1924C59.7289 75.1788 37.9137 75.1856 16.0985 75.1833C15.4522 75.1833 14.8103 75.1293 14.1865 74.9514C12.4277 74.4492 11.4751 73.1723 10.9121 71.5238L10.9144 71.5216Z" fill="#F5B763"/>
<path d="M10.9143 15.0682C11.2859 14.19 11.671 13.3229 12.493 12.7464C13.1551 12.2825 13.8734 12.0055 14.6887 12.0055C21.3726 12.0055 28.0566 11.9965 34.7383 12.01C36.3215 12.0123 37.4317 12.8387 38.2019 14.1764C39.5621 16.5343 40.9426 18.8809 42.269 21.259C42.6001 21.8535 42.9784 22.0585 43.654 22.0562C56.5445 22.036 69.435 22.0405 82.3233 22.0427C84.6564 22.0427 86.1585 23.0786 86.6607 25.0064C86.7845 25.477 86.7598 25.9545 86.7643 26.4296C86.7823 28.5353 86.7935 30.6409 86.8071 32.7465C83.3254 32.751 79.8438 32.76 76.3645 32.76C59.5194 32.76 42.6744 32.7758 25.8294 32.7375C24.0142 32.733 22.3635 33.8478 21.8185 35.6831C19.5823 43.2116 17.3258 50.7356 15.0738 58.2595C13.8667 62.2906 12.6574 66.3195 11.4233 70.3416C11.367 70.524 11.5291 71.1455 10.9143 70.846V15.0682Z" fill="#E9A14E"/>
</svg>
