<svg width="24" height="24" viewBox="0 0 24 24" fill="none" xmlns="http://www.w3.org/2000/svg">
<path d="M9 20H5C4.44772 20 4 19.5523 4 19V11.4538C4 11.1654 4.12448 10.8911 4.34149 10.7012L11.3415 4.57619C11.7185 4.24629 12.2815 4.24629 12.6585 4.57619L19.6585 10.7012C19.8755 10.8911 20 11.1654 20 11.4538V19C20 19.5523 19.5523 20 19 20H15C14.4477 20 14 19.5523 14 19V16C14 15.4477 13.5523 15 13 15H11C10.4477 15 10 15.4477 10 16V19C10 19.5523 9.55228 20 9 20Z" stroke="#FAAD2D" stroke-width="2"/>
</svg>
