<svg width="17" height="16" viewBox="0 0 17 16" fill="none" xmlns="http://www.w3.org/2000/svg">
<g clip-path="url(#clip0_409_1014)">
<path d="M5.88551 2.74665C5.78211 2.68573 5.6643 2.65357 5.54429 2.6535L3.41802 3C2.54875 3 1.92103 3.80736 2.1989 4.63086C2.76977 6.32228 3.85635 8.94787 5.52054 10.612C7.18472 12.2759 9.81035 13.3628 11.5018 13.9333C12.325 14.2115 13.1323 13.5835 13.1323 12.7145L13.3342 10.6018C13.3342 10.4819 13.3022 10.3642 13.2415 10.2608C13.1807 10.1574 13.0934 10.0721 12.9887 10.0138L11.5018 9.18724C11.4062 9.13408 11.299 9.10503 11.1896 9.10263C11.0802 9.10023 10.9719 9.12454 10.8741 9.17345L9.77117 9.68748C9.77117 9.68748 8.59376 9.46142 7.63232 8.5C6.67055 7.53857 6.44079 6.35713 6.44079 6.35713L6.96896 5.10989C7.01792 5.01205 7.04229 4.90375 7.03994 4.79436C7.0376 4.68498 7.00861 4.57782 6.9555 4.48217L6.13232 2.99999C6.07412 2.89505 5.9889 2.80757 5.88551 2.74665Z" stroke="#FAA61A" stroke-width="2" stroke-linejoin="round"/>
<path d="M10.1323 6L14.1323 2M10.1323 6H14.1323M10.1323 6V2" stroke="#FAA61A" stroke-width="2" stroke-linecap="round" stroke-linejoin="round"/>
</g>
<defs>
<clipPath id="clip0_409_1014">
<rect width="16" height="16" fill="white" transform="translate(0.132324)"/>
</clipPath>
</defs>
</svg>
