<svg width="17" height="16" viewBox="0 0 17 16" fill="none" xmlns="http://www.w3.org/2000/svg">
<path fill-rule="evenodd" clip-rule="evenodd" d="M12.1195 10.492L14.8709 13.227C15.1988 13.5529 15.1989 14.0833 14.8712 14.4093C14.5461 14.7328 14.0208 14.7329 13.6955 14.4096L10.9255 11.657C9.77805 12.4935 8.37026 12.8942 6.95426 12.7874C5.53825 12.6806 4.20652 12.0732 3.19753 11.074C2.64586 10.5269 2.20781 9.87613 1.90857 9.15912C1.60932 8.44212 1.45479 7.67302 1.45386 6.89608C1.45293 6.11913 1.60562 5.34967 1.90315 4.63195C2.20068 3.91423 2.63717 3.26241 3.18753 2.714C4.30805 1.60788 5.81978 0.988577 7.39429 0.990636C8.9688 0.992696 10.4789 1.61595 11.5965 2.725C12.6132 3.73466 13.2271 5.08021 13.3234 6.50982C13.4197 7.93944 12.9917 9.35514 12.1195 10.492ZM4.34853 3.869C3.95009 4.26609 3.63408 4.73803 3.41868 5.25768C3.20327 5.77732 3.09271 6.33443 3.09336 6.89695C3.09401 7.45948 3.20586 8.01632 3.42247 8.53547C3.63907 9.05462 3.95617 9.52583 4.35553 9.922C5.16494 10.7249 6.25848 11.1761 7.39859 11.1774C8.53869 11.1787 9.63327 10.7301 10.4445 9.929C10.8431 9.53197 11.1592 9.06005 11.3747 8.5404C11.5902 8.02074 11.7008 7.4636 11.7001 6.90104C11.6995 6.33848 11.5876 5.7816 11.3709 5.26244C11.1542 4.74328 10.837 4.2721 10.4375 3.876C9.62799 3.0733 8.53449 2.62235 7.39446 2.62104C6.25444 2.61973 5.15991 3.06817 4.34853 3.869Z" fill="white"/>
</svg>
