<svg width="92" height="92" viewBox="0 0 92 92" fill="none" xmlns="http://www.w3.org/2000/svg">
<path d="M39.9765 28.669L36.1801 24.8798L40.2439 20.4187H56.2852L61.1778 25.7935H69.6529C72.5938 25.7935 75 28.2122 75 31.1683V63.4173C75 63.5516 74.9733 63.686 74.9465 63.8472L69.6529 58.4993V31.1683H58.825L53.9325 25.7935H42.5966L39.9765 28.669ZM70.9629 75L64.7603 68.7921H26.8762C23.9353 68.7921 21.5291 66.3734 21.5291 63.4173V31.1683C21.5291 29.5827 22.2509 28.1584 23.3471 27.1641L18 21.7893L21.7964 18L74.7326 71.2108L70.9629 75V75ZM40.7519 44.6591C40.4578 45.4922 40.2439 46.3522 40.2439 47.2928C40.2439 51.7539 43.8265 55.355 48.2645 55.355C49.2003 55.355 50.0558 55.14 50.8846 54.8444L40.7519 44.6591V44.6591ZM59.4132 63.4173L54.9217 58.9024C52.97 60.058 50.6975 60.7298 48.2645 60.7298C40.8856 60.7298 34.8968 54.71 34.8968 47.2928C34.8968 44.8472 35.5652 42.5629 36.7148 40.6011L27.3307 31.1683H26.8762V63.4173H59.4132ZM55.7772 44.5516L61.3114 50.1146C61.5253 49.2009 61.6323 48.2603 61.6323 47.2928C61.6323 39.8755 55.6435 33.8557 48.2645 33.8557C47.3021 33.8557 46.3663 33.9632 45.4306 34.1782L50.9648 39.7412C53.2106 40.5474 54.9751 42.3211 55.7772 44.5516V44.5516Z" fill="#E8E8E8"/>
</svg>
