<svg width="50" height="55" viewBox="0 0 50 55" fill="none" xmlns="http://www.w3.org/2000/svg">
<path d="M8.41005 50.3399C8.25005 50.2699 8.08005 50.1999 7.92005 50.1199C7.20005 49.7799 6.80005 49.2699 6.80005 48.4299C6.80005 34.4899 6.80005 20.5599 6.81005 6.61989C6.81005 6.21989 6.86005 5.79989 6.96005 5.41989C7.20005 4.53989 7.91005 3.99989 8.83005 3.99989C16.52 3.99989 24.22 3.98989 31.91 4.01989C32.3 4.01989 32.79 4.22989 33.07 4.50989C36.14 7.53989 39.1901 10.5899 42.2201 13.6599C42.48 13.9299 42.6101 14.3499 42.7201 14.7299C42.8001 15.0099 42.7701 15.3299 42.7701 15.6299C42.7701 26.4599 42.7701 37.2899 42.7701 48.1199C42.7701 49.3999 42.51 49.7799 41.32 50.2599C41.2701 50.2799 41.2201 50.3199 41.16 50.3399H8.41005ZM8.41005 35.1199H41.1501V15.1599H31.59V5.59989C31.3801 5.59989 31.2001 5.59989 31.0201 5.59989C23.76 5.59989 16.5 5.59989 9.25005 5.59989C8.52005 5.59989 8.43005 5.68989 8.41005 6.41989C8.41005 6.50989 8.41005 6.59989 8.41005 6.68989C8.41005 15.9999 8.41005 25.3099 8.41005 34.6099V35.1099V35.1199ZM8.41005 36.7799C8.41005 36.9499 8.41005 37.0899 8.41005 37.2399C8.41005 40.8299 8.41005 44.4199 8.41005 48.0099C8.41005 48.6799 8.47005 48.7299 9.13005 48.7299C19.57 48.7299 30.01 48.7299 40.44 48.7299C41.12 48.7299 41.17 48.6699 41.17 48.0199C41.17 44.4199 41.17 40.8099 41.17 37.2099C41.17 37.0699 41.17 36.9199 41.17 36.7799H8.41005ZM33.2201 13.5499H39.69C37.55 11.4099 35.3701 9.22989 33.2201 7.07989V13.5499Z" fill="#B50000"/>
<path d="M8.40991 36.78H41.1799C41.1799 36.92 41.1799 37.06 41.1799 37.21C41.1799 40.81 41.1799 44.42 41.1799 48.02C41.1799 48.68 41.1199 48.73 40.4499 48.73C30.0099 48.73 19.5699 48.73 9.13991 48.73C8.46991 48.73 8.41991 48.67 8.41991 48.01C8.41991 44.42 8.41991 40.83 8.41991 37.24C8.41991 37.09 8.41991 36.95 8.41991 36.78H8.40991ZM21.6899 47.14C22.7799 47.14 23.7999 47.18 24.8199 47.13C25.8899 47.08 26.8199 46.67 27.4199 45.73C28.1299 44.61 28.2999 43.37 28.0599 42.08C27.8399 40.91 27.1699 40.06 26.0999 39.53C24.6799 38.83 23.1799 39.2 21.6899 39.09V47.14ZM16.3099 47.13V44.28C16.8499 44.25 17.3299 44.24 17.8099 44.19C19.0099 44.07 19.9299 43.21 20.0899 42.09C20.2699 40.83 19.6999 39.81 18.5299 39.34C17.3999 38.89 16.2199 39.18 15.0599 39.1V47.13H16.3199H16.3099ZM30.0999 39.12V47.12H31.4199V43.51H34.7299V42.61H31.4299V40.08H35.0699V39.11H30.0799L30.0999 39.12Z" fill="#B50000"/>
<path d="M26.31 12.6201C26.1 13.8201 25.87 15.0201 25.67 16.2201C25.64 16.4301 25.64 16.6801 25.74 16.8601C26.74 18.8501 27.94 20.7001 29.42 22.3701C29.59 22.5601 29.73 22.6101 30 22.5901C30.91 22.4901 31.83 22.4201 32.74 22.3901C33.08 22.3801 33.43 22.4701 33.76 22.5601C34.61 22.8001 34.97 23.5301 34.66 24.3601C34.2 25.6201 32.96 26.2601 31.7 25.7301C30.92 25.4101 30.24 24.8601 29.54 24.3701C29.29 24.1901 29.09 24.1001 28.78 24.1801C26.62 24.6901 24.51 25.3501 22.47 26.2201C22.27 26.3001 22.09 26.5001 21.97 26.6901C21.26 27.8601 20.57 29.0401 19.85 30.2001C19.68 30.4801 19.42 30.7101 19.17 30.9201C18.69 31.3101 18.15 31.6101 17.51 31.3101C16.84 30.9901 16.42 30.4601 16.36 29.7001C16.3 28.9101 16.72 28.3201 17.24 27.7901C18.17 26.8601 19.29 26.2101 20.47 25.6601C20.94 25.4401 21.22 25.1501 21.43 24.6701C22.48 22.2001 23.37 19.6801 24.06 17.0801C24.12 16.8701 24.1 16.6001 24.01 16.4001C23.53 15.2101 23.03 14.0301 22.99 12.7201C22.98 12.3201 23.03 11.9001 23.14 11.5201C23.38 10.7001 24 10.2901 24.85 10.3301C25.31 10.3501 26.04 11.1301 26.15 11.7601C26.2 12.0401 26.21 12.3301 26.24 12.6101C26.26 12.6101 26.28 12.6201 26.3 12.6301L26.31 12.6201ZM28.01 22.9201C27.03 21.5001 26.05 20.0701 25.09 18.6701C24.41 20.6001 23.72 22.5401 23.04 24.4601C24.7 23.9401 26.37 23.4301 28.01 22.9201ZM18.05 30.0501C18.69 29.6601 19.62 28.4201 20.01 27.4701C19.31 27.7601 18.29 28.5401 17.9 29.0801C17.62 29.4701 17.65 29.7001 18.05 30.0501ZM24.61 11.7601C23.95 12.6401 24 13.6501 24.7 14.2501C25.01 13.4201 25.19 12.6101 24.61 11.7601ZM31.08 23.7701C31.62 24.2501 32.03 24.6801 32.73 24.4801C33.07 24.3801 33.31 24.2101 33.41 23.7701H31.08Z" fill="#B50000"/>
<path d="M21.6899 47.14V39.09C23.1799 39.2 24.6799 38.83 26.0999 39.53C27.1699 40.06 27.8499 40.91 28.0599 42.08C28.2999 43.36 28.1399 44.61 27.4199 45.73C26.8199 46.67 25.8899 47.08 24.8199 47.13C23.7999 47.18 22.7699 47.14 21.6899 47.14ZM22.9899 46.15C23.5999 46.15 24.1699 46.19 24.7399 46.14C25.6299 46.05 26.2299 45.54 26.5099 44.69C26.7999 43.82 26.8699 42.92 26.6899 42.02C26.5699 41.41 26.2499 40.93 25.7399 40.6C24.8999 40.06 23.9599 40.08 22.9899 40.12V46.15Z" fill="white"/>
<path d="M16.31 47.1299H15.05V39.0999C16.21 39.1799 17.39 38.8899 18.52 39.3399C19.69 39.8099 20.26 40.8299 20.08 42.0899C19.92 43.2099 19 44.0699 17.8 44.1899C17.32 44.2399 16.84 44.2499 16.3 44.2799V47.1299H16.31ZM16.31 40.1199V43.2699C16.76 43.2699 17.14 43.2899 17.51 43.2699C18.24 43.2299 18.65 42.8599 18.8 42.1699C19.03 41.1099 18.59 40.2499 17.71 40.1299C17.27 40.0699 16.81 40.1199 16.3 40.1199H16.31Z" fill="white"/>
<path d="M30.0901 39.1201H35.0801V40.0901H31.4401V42.6201H34.7401V43.5201H31.4301V47.1301H30.1101V39.1301L30.0901 39.1201Z" fill="white"/>
<path d="M23 46.1501V40.1201C23.96 40.0801 24.9 40.0501 25.75 40.6001C26.27 40.9301 26.59 41.4201 26.7 42.0201C26.88 42.9301 26.81 43.8201 26.52 44.6901C26.24 45.5401 25.64 46.0601 24.75 46.1401C24.19 46.1901 23.61 46.1501 23 46.1501Z" fill="#B50000"/>
<path d="M16.3101 40.1201C16.8201 40.1201 17.2801 40.0701 17.7201 40.1301C18.6001 40.2501 19.0401 41.1101 18.8101 42.1701C18.6601 42.8601 18.2401 43.2301 17.5201 43.2701C17.1501 43.2901 16.7701 43.2701 16.3201 43.2701V40.1201H16.3101Z" fill="#B50000"/>
</svg>
