<svg width="32" height="32" viewBox="0 0 32 32" fill="none" xmlns="http://www.w3.org/2000/svg">
<path d="M26 21H27C28.1046 21 29 20.1046 29 19V13C29 11.8954 28.1046 11 27 11H26M26 21H18C16.8954 21 16 20.1046 16 19V13C16 11.8954 16.8954 11 18 11H26M26 21V26C26 27.6569 24.6569 29 23 29H6C4.34315 29 3 27.6569 3 26V6C3 4.34315 4.34315 3 6 3H23C24.6569 3 26 4.34315 26 6V11M24 16C24 17.1046 23.1046 18 22 18C20.8954 18 20 17.1046 20 16C20 14.8954 20.8954 14 22 14C23.1046 14 24 14.8954 24 16Z" stroke="#FAA61A" stroke-width="2"/>
</svg>
