<svg width="33" height="32" viewBox="0 0 33 32" fill="none" xmlns="http://www.w3.org/2000/svg">
<path d="M4.66669 18V23H8.66669M3.66669 7H18.6667V8M18.6667 8V15M18.6667 8H25.6667L29.6667 15M18.6667 15V23.0144M18.6667 15H29.6667M29.6667 15V23H26.6667M4.77195 12H10.0351M13.6667 23H21.6667M26.6667 23.5C26.6667 24.8807 25.5474 26 24.1667 26C22.786 26 21.6667 24.8807 21.6667 23.5C21.6667 22.1193 22.786 21 24.1667 21C25.5474 21 26.6667 22.1193 26.6667 23.5ZM13.6667 23.5C13.6667 24.8807 12.5474 26 11.1667 26C9.78598 26 8.66669 24.8807 8.66669 23.5C8.66669 22.1193 9.78598 21 11.1667 21C12.5474 21 13.6667 22.1193 13.6667 23.5Z" stroke="#231F20" stroke-width="2" stroke-linecap="round" stroke-linejoin="round"/>
</svg>
