<svg width="24" height="24" viewBox="0 0 24 24" fill="none" xmlns="http://www.w3.org/2000/svg">
<path fill-rule="evenodd" clip-rule="evenodd" d="M21 10.5909C21 17.2727 11.9999 23 11.9999 23C11.9999 23 3 17.2727 3 10.5909C3 8.31247 3.9482 6.12733 5.63602 4.51622C7.32385 2.90511 9.61301 2 11.9999 2C14.3869 2 16.6762 2.90511 18.3639 4.51622C20.0517 6.12733 21 8.31247 21 10.5909ZM12 14C13.6569 14 15 12.6569 15 11C15 9.34315 13.6569 8 12 8C10.3431 8 9 9.34315 9 11C9 12.6569 10.3431 14 12 14Z" stroke="#FAA61A" stroke-width="2" stroke-linejoin="round"/>
</svg>
