<svg width="24" height="24" viewBox="0 0 24 24" fill="none" xmlns="http://www.w3.org/2000/svg">
<path d="M8.36596 3.15598C8.19059 3.05396 7.99076 3.0001 7.78721 3L4.18073 3.58021C2.70633 3.58021 1.64161 4.93215 2.11292 6.31114C3.08121 9.14345 4.92421 13.5401 7.74692 16.3268C10.5696 19.1129 15.0231 20.933 17.892 21.8883C19.2882 22.3542 20.6576 21.3025 20.6576 19.8475L21 16.3096C21.0001 16.1088 20.9458 15.9117 20.8427 15.7386C20.7397 15.5654 20.5917 15.4226 20.414 15.325L17.892 13.9409C17.7298 13.8519 17.5481 13.8033 17.3625 13.7992C17.177 13.7952 16.9933 13.8359 16.8273 13.9178L14.9566 14.7786C14.9566 14.7786 12.9596 14.4 11.3288 12.7901C9.69751 11.1802 9.3078 9.20182 9.3078 9.20182L10.2037 7.11329C10.2867 6.94945 10.328 6.76809 10.3241 6.58493C10.3201 6.40176 10.2709 6.22232 10.1808 6.06215L8.7846 3.58021C8.68587 3.40447 8.54133 3.258 8.36596 3.15598Z" stroke="#FAA61A" stroke-width="2" stroke-linejoin="round"/>
</svg>
