<svg width="24" height="25" viewBox="0 0 24 25" fill="none" xmlns="http://www.w3.org/2000/svg">
<path d="M12 1.5C9.08328 1.5 6.28344 2.65964 4.22266 4.7218C2.15975 6.78477 1.00057 9.58256 1 12.5C1 15.4162 2.16016 18.216 4.22266 20.2782C6.28344 22.3404 9.08328 23.5 12 23.5C14.9167 23.5 17.7166 22.3404 19.7773 20.2782C21.8398 18.216 23 15.4162 23 12.5C23 9.5838 21.8398 6.78395 19.7773 4.7218C17.7166 2.65964 14.9167 1.5 12 1.5Z" fill="url(#paint0_linear_64_1373)"/>
<path d="M5.97927 12.3838C9.18646 10.9868 11.3246 10.0657 12.3936 9.62073C15.4496 8.35006 16.0838 8.12937 16.498 8.12189C16.5891 8.12043 16.7919 8.14295 16.9243 8.24994C17.0343 8.34017 17.0652 8.4622 17.0807 8.54788C17.0944 8.63348 17.1133 8.82856 17.0979 8.98084C16.9329 10.7202 16.2161 14.9411 15.8518 16.8893C15.6988 17.7136 15.3946 17.99 15.1007 18.017C14.4613 18.0758 13.9766 17.5949 13.3579 17.1894C12.3902 16.5547 11.8436 16.1597 10.9035 15.5404C9.81724 14.8248 10.5219 14.4313 11.1407 13.7885C11.3022 13.6203 14.1176 11.0602 14.1708 10.828C14.1777 10.7989 14.1846 10.6906 14.1193 10.6336C14.0557 10.5764 13.9611 10.5959 13.8924 10.6114C13.7944 10.6334 12.2493 11.6557 9.25177 13.6782C8.81349 13.9796 8.41646 14.1266 8.05896 14.1189C7.66708 14.1104 6.91083 13.8968 6.3488 13.7143C5.6613 13.4903 5.11302 13.3719 5.16115 12.9915C5.18521 12.7935 5.45849 12.5909 5.97927 12.3838Z" fill="white"/>
<defs>
<linearGradient id="paint0_linear_64_1373" x1="12" y1="1.5" x2="12" y2="23.5" gradientUnits="userSpaceOnUse">
<stop stop-color="#2AABEE"/>
<stop offset="1" stop-color="#229ED9"/>
</linearGradient>
</defs>
</svg>
